<svg width="18" height="13" viewBox="0 0 18 13" fill="none" xmlns="http://www.w3.org/2000/svg">
<path d="M0.409091 12V0.363636H4.47727C5.28788 0.363636 5.95644 0.503788 6.48295 0.784091C7.00947 1.06061 7.40152 1.43371 7.65909 1.90341C7.91667 2.36932 8.04545 2.88636 8.04545 3.45455C8.04545 3.95455 7.95644 4.36742 7.77841 4.69318C7.60417 5.01894 7.37311 5.27652 7.08523 5.46591C6.80114 5.6553 6.49242 5.79545 6.15909 5.88636V6C6.51515 6.02273 6.87311 6.14773 7.23295 6.375C7.5928 6.60227 7.89394 6.92803 8.13636 7.35227C8.37879 7.77651 8.5 8.29545 8.5 8.90909C8.5 9.49242 8.36742 10.017 8.10227 10.483C7.83712 10.9489 7.41856 11.3182 6.84659 11.5909C6.27462 11.8636 5.5303 12 4.61364 12H0.409091ZM1.81818 10.75H4.61364C5.53409 10.75 6.1875 10.572 6.57386 10.2159C6.96402 9.85606 7.15909 9.42045 7.15909 8.90909C7.15909 8.51515 7.05871 8.15152 6.85795 7.81818C6.6572 7.48106 6.37121 7.21212 6 7.01136C5.62879 6.80682 5.18939 6.70455 4.68182 6.70455H1.81818V10.75ZM1.81818 5.47727H4.43182C4.85606 5.47727 5.23864 5.39394 5.57955 5.22727C5.92424 5.06061 6.19697 4.82576 6.39773 4.52273C6.60227 4.2197 6.70455 3.86364 6.70455 3.45455C6.70455 2.94318 6.52652 2.50947 6.17045 2.15341C5.81439 1.79356 5.25 1.61364 4.47727 1.61364H1.81818V5.47727ZM14.2926 12.1818C13.4517 12.1818 12.7263 11.9962 12.1165 11.625C11.5104 11.25 11.0426 10.7273 10.7131 10.0568C10.3873 9.38258 10.2244 8.59848 10.2244 7.70455C10.2244 6.81061 10.3873 6.02273 10.7131 5.34091C11.0426 4.6553 11.5009 4.12121 12.0881 3.73864C12.679 3.35227 13.3684 3.15909 14.1562 3.15909C14.6108 3.15909 15.0597 3.23485 15.5028 3.38636C15.946 3.53788 16.3494 3.78409 16.7131 4.125C17.0767 4.46212 17.3665 4.90909 17.5824 5.46591C17.7983 6.02273 17.9062 6.70833 17.9062 7.52273V8.09091H11.179V6.93182H16.5426C16.5426 6.43939 16.4441 6 16.2472 5.61364C16.054 5.22727 15.7775 4.92235 15.4176 4.69886C15.0616 4.47538 14.6411 4.36364 14.1562 4.36364C13.6222 4.36364 13.16 4.49621 12.7699 4.76136C12.3835 5.02273 12.0862 5.36364 11.8778 5.78409C11.6695 6.20455 11.5653 6.6553 11.5653 7.13636V7.90909C11.5653 8.56818 11.679 9.12689 11.9062 9.58523C12.1373 10.0398 12.4574 10.3864 12.8665 10.625C13.2756 10.8598 13.7509 10.9773 14.2926 10.9773C14.6449 10.9773 14.9631 10.928 15.2472 10.8295C15.535 10.7273 15.7831 10.5758 15.9915 10.375C16.1998 10.1705 16.3608 9.91667 16.4744 9.61364L17.7699 9.97727C17.6335 10.4167 17.4044 10.803 17.0824 11.1364C16.7604 11.4659 16.3627 11.7235 15.8892 11.9091C15.4157 12.0909 14.8835 12.1818 14.2926 12.1818Z" fill="white"/>
</svg>
