<svg width="152" height="31" viewBox="0 0 152 31" fill="none" xmlns="http://www.w3.org/2000/svg">
<g clip-path="url(#clip0_3197_5)">
<path d="M5.5243 1.62305L2.71748 3.88616C-1.66194 7.41692 -0.796009 15.8998 4.65339 22.8328C9.82658 29.4155 17.2641 32.2305 21.7531 29.481L25.2566 26.734L5.5243 1.62305Z" fill="url(#paint0_linear_3197_5)"/>
<path d="M25.2555 26.7379C29.6354 23.2081 28.7694 14.7251 23.3213 7.79066C17.8732 0.856218 9.90598 -1.90378 5.52606 1.62604C1.14614 5.15585 2.0121 13.6388 7.46022 20.5733C12.9084 27.5077 20.8756 30.2677 25.2555 26.7379Z" fill="url(#paint1_linear_3197_5)"/>
<path d="M4.26748 15.0631C4.69049 14.7154 5.12844 14.4003 5.57882 14.1105C3.97635 9.78338 4.38692 5.61754 7.0096 3.52328C10.7371 0.549478 17.5128 2.8882 22.1485 8.74759C25.2414 12.6589 26.5951 17.1473 26.0452 20.5848C26.5727 21.8474 26.9086 23.168 27.0554 24.4987C29.2003 20.3227 27.8318 13.5258 23.323 7.78741C17.8711 0.854419 9.9035 -1.90517 5.52408 1.62307C2.25444 4.25917 1.91105 9.65485 4.21274 15.106C4.23016 15.0909 4.24758 15.0757 4.26499 15.0606L4.26748 15.0631Z" fill="url(#paint2_linear_3197_5)"/>
<path d="M23.0169 16.0384C22.5068 14.1962 21.5065 12.2481 20.0632 10.4235C16.383 5.76871 11.2397 3.71477 8.27862 6.07617C6.40492 7.57063 6.04909 10.3201 6.97474 13.3191C12.2823 10.7057 18.7569 11.7289 23.0144 16.0384H23.0169Z" fill="url(#paint3_linear_3197_5)"/>
<path d="M21.8598 8.97683C17.4231 3.36694 10.9311 1.12651 7.3629 3.9743C3.79466 6.82209 4.49886 13.677 8.93551 19.2868C13.3722 24.8967 19.8642 27.1372 23.4324 24.2894C27.0006 21.4416 26.2964 14.5867 21.8598 8.97683ZM9.41078 18.9113C5.41704 13.8634 4.52125 7.90828 7.73366 5.34527C10.9461 2.78226 16.5249 5.01261 20.5186 10.063C24.5123 15.1109 25.4081 21.0661 22.1957 23.6291C18.9833 26.1921 13.4045 23.9618 9.41078 18.9113Z" fill="url(#paint4_linear_3197_5)"/>
</g>
<path d="M57.5286 15.9874C57.2692 18.0831 56.24 19.6939 54.4413 20.8197C52.6598 21.9455 50.4113 22.5084 47.6958 22.5084C44.4268 22.5084 41.867 21.651 40.0163 19.9363C38.1829 18.2043 37.2662 15.9614 37.2662 13.2075C37.2662 10.4017 38.2175 8.13274 40.1201 6.40074C42.04 4.66874 44.5652 3.80274 47.6958 3.80274C50.2902 3.80274 52.4522 4.3743 54.1818 5.51742C55.9287 6.64322 56.9492 8.2713 57.2432 10.4017H52.4176C52.1063 9.58762 51.5442 8.95544 50.7312 8.50512C49.9356 8.0548 48.9238 7.82964 47.6958 7.82964C45.8797 7.82964 44.4268 8.32326 43.3372 9.3105C42.2648 10.2804 41.7286 11.5794 41.7286 13.2075C41.7286 14.8529 42.2821 16.1432 43.3891 17.0785C44.5133 18.0138 45.9489 18.4815 47.6958 18.4815C49.0276 18.4815 50.1259 18.2563 50.9907 17.806C51.8728 17.3556 52.4436 16.7495 52.703 15.9874H57.5286Z" fill="white"/>
<path d="M73.1646 20.6638C71.6426 21.8935 69.6708 22.5084 67.2493 22.5084C64.8279 22.5084 62.8475 21.8935 61.3081 20.6638C59.7688 19.4167 58.9991 17.78 58.9991 15.7535C58.9991 13.7098 59.7688 12.073 61.3081 10.8433C62.8475 9.6136 64.8279 8.99874 67.2493 8.99874C69.6708 8.99874 71.6426 9.6136 73.1646 10.8433C74.704 12.073 75.4736 13.7098 75.4736 15.7535C75.4736 17.78 74.704 19.4167 73.1646 20.6638ZM64.2917 17.9878C65.0009 18.5594 65.9867 18.8452 67.2493 18.8452C68.512 18.8452 69.4892 18.5594 70.181 17.9878C70.8902 17.399 71.2447 16.6542 71.2447 15.7535C71.2447 14.8356 70.8902 14.0908 70.181 13.5193C69.4892 12.9477 68.512 12.6619 67.2493 12.6619C65.9867 12.6619 65.0009 12.9477 64.2917 13.5193C63.5826 14.0908 63.228 14.8356 63.228 15.7535C63.228 16.6542 63.5826 17.399 64.2917 17.9878Z" fill="white"/>
<path d="M81.3415 7.2321C80.8572 7.71706 80.2864 7.95954 79.6292 7.95954C78.9719 7.95954 78.3925 7.71706 77.8909 7.2321C77.3893 6.72982 77.1385 6.15826 77.1385 5.51742C77.1385 4.82462 77.3807 4.2444 77.865 3.77676C78.3665 3.2918 78.9546 3.04932 79.6292 3.04932C80.3037 3.04932 80.8745 3.2918 81.3415 3.77676C81.8258 4.2444 82.0679 4.82462 82.0679 5.51742C82.0679 6.15826 81.8258 6.72982 81.3415 7.2321ZM77.4758 22.2486V9.25854H81.7306V22.2486H77.4758Z" fill="white"/>
<path d="M84.2152 22.2486V9.25854H88.1068L88.47 10.7914H88.7295C89.8537 9.59628 91.3931 8.99874 93.3475 8.99874C95.3712 8.99874 96.9451 9.53566 98.0694 10.6095C99.1936 11.6833 99.7557 13.1555 99.7557 15.0261V22.2486H95.5009V15.9874C95.5009 14.9135 95.1896 14.0908 94.5669 13.5193C93.9615 12.9477 93.114 12.6619 92.0244 12.6619C90.952 12.6619 90.0872 12.9477 89.43 13.5193C88.79 14.0908 88.47 14.9395 88.47 16.0653V22.2486H84.2152Z" fill="white"/>
<path d="M109.013 22.5084C107.283 22.5084 106.038 22.11 105.277 21.3133C104.516 20.4992 104.135 19.4514 104.135 18.1697V12.584H100.892V9.25854H102.163C102.959 9.25854 103.538 9.094 103.902 8.76492C104.282 8.43584 104.472 7.91624 104.472 7.20612V5.59536H108.364V9.25854H112.437V12.584H108.364V17.4163C108.364 17.6588 108.381 17.8666 108.416 18.0398C108.451 18.1957 108.528 18.3775 108.649 18.5854C108.771 18.7759 108.969 18.9231 109.246 19.027C109.54 19.131 109.903 19.1829 110.336 19.1829C110.837 19.1829 111.33 19.131 111.815 19.027V22.1966C111.036 22.4044 110.102 22.5084 109.013 22.5084Z" fill="white"/>
<path d="M118.053 7.2321C117.569 7.71706 116.998 7.95954 116.341 7.95954C115.684 7.95954 115.104 7.71706 114.603 7.2321C114.101 6.72982 113.85 6.15826 113.85 5.51742C113.85 4.82462 114.093 4.2444 114.577 3.77676C115.078 3.2918 115.667 3.04932 116.341 3.04932C117.016 3.04932 117.586 3.2918 118.053 3.77676C118.538 4.2444 118.78 4.82462 118.78 5.51742C118.78 6.15826 118.538 6.72982 118.053 7.2321ZM114.188 22.2486V9.25854H118.443V22.2486H114.188Z" fill="white"/>
<path d="M129.592 8.99874C131.755 8.99874 133.51 9.60494 134.859 10.8173C136.226 12.0297 136.909 13.6838 136.909 15.7795C136.909 17.8926 136.217 19.5466 134.833 20.7417C133.45 21.9195 131.703 22.5084 129.592 22.5084C127.776 22.5084 126.306 22.0927 125.182 21.2613V27.4446H120.927V9.25854H124.43L124.845 10.5056H125.078C126.151 9.50102 127.655 8.99874 129.592 8.99874ZM126.168 18.0138C126.825 18.5681 127.742 18.8452 128.918 18.8452C130.094 18.8452 131.011 18.5681 131.668 18.0138C132.343 17.4596 132.68 16.7148 132.68 15.7795C132.68 14.8269 132.343 14.0735 131.668 13.5193C131.011 12.9477 130.094 12.6619 128.918 12.6619C127.759 12.6619 126.842 12.939 126.168 13.4933C125.511 14.0475 125.182 14.8096 125.182 15.7795C125.182 16.7148 125.511 17.4596 126.168 18.0138Z" fill="white"/>
<path d="M145.592 22.5084C143.274 22.5084 141.501 22.11 140.273 21.3133C139.063 20.4992 138.397 19.3475 138.276 17.8579H142.427C142.721 18.9145 143.767 19.4427 145.566 19.4427C147.071 19.4427 147.823 19.131 147.823 18.5074C147.823 18.2303 147.659 18.0052 147.33 17.832C147.002 17.6588 146.422 17.4942 145.592 17.3383L142.972 16.9227C140.187 16.455 138.795 15.2166 138.795 13.2075C138.795 11.8739 139.365 10.8433 140.507 10.1159C141.666 9.37112 143.136 8.99874 144.917 8.99874C147.027 8.99874 148.636 9.38844 149.743 10.1678C150.867 10.9299 151.516 11.9518 151.689 13.2335H147.46C147.218 12.4541 146.379 12.0644 144.943 12.0644C143.629 12.0644 142.972 12.3588 142.972 12.9477C142.972 13.2421 143.119 13.45 143.413 13.5712C143.707 13.6925 144.26 13.831 145.073 13.9869L147.797 14.4026C150.599 14.8875 152 16.2298 152 18.4295C152 19.7805 151.412 20.8023 150.236 21.4951C149.077 22.1706 147.529 22.5084 145.592 22.5084Z" fill="white"/>
<defs>
<linearGradient id="paint0_linear_3197_5" x1="-0.0750122" y1="16.0759" x2="25.2566" y2="16.0759" gradientUnits="userSpaceOnUse">
<stop stop-color="#18FF9E"/>
<stop offset="1" stop-color="#18FF9E" stop-opacity="0"/>
</linearGradient>
<linearGradient id="paint1_linear_3197_5" x1="7.46022" y1="20.5733" x2="23.4773" y2="7.98924" gradientUnits="userSpaceOnUse">
<stop stop-color="#18FF9E"/>
<stop offset="1" stop-color="#18FF9E" stop-opacity="0"/>
</linearGradient>
<linearGradient id="paint2_linear_3197_5" x1="2.73297" y1="12.2933" x2="28.0484" y2="12.2933" gradientUnits="userSpaceOnUse">
<stop stop-color="#18FF9E"/>
<stop offset="1" stop-color="#18FF9E" stop-opacity="0"/>
</linearGradient>
<linearGradient id="paint3_linear_3197_5" x1="6.48389" y1="10.5647" x2="23.0169" y2="10.5647" gradientUnits="userSpaceOnUse">
<stop stop-color="#18FF9E"/>
<stop offset="1" stop-color="#18FF9E" stop-opacity="0"/>
</linearGradient>
<linearGradient id="paint4_linear_3197_5" x1="5.08685" y1="14.1318" x2="25.7084" y2="14.1318" gradientUnits="userSpaceOnUse">
<stop stop-color="#18FF9E"/>
<stop offset="1" stop-color="#18FF9E" stop-opacity="0"/>
</linearGradient>
<clipPath id="clip0_3197_5">
<rect width="28.1179" height="30.4941" fill="white"/>
</clipPath>
</defs>
</svg>
