<svg width="24" height="24" viewBox="0 0 24 24" fill="none" xmlns="http://www.w3.org/2000/svg">
<rect width="24" height="24" rx="12" fill="#B4B4B4" fill-opacity="0.2"/>
<path d="M7.48253 7.04528C7.06844 7.19296 6.88311 7.67367 7.08292 8.07618C7.12057 8.15147 7.82134 8.87543 9.04045 10.0946L10.943 12L9.04045 13.9025C7.82134 15.1246 7.12057 15.8485 7.08292 15.9238C6.93524 16.2221 6.98736 16.5522 7.21902 16.781C7.44779 17.0126 7.7779 17.0648 8.07616 16.9171C8.15145 16.8794 8.87539 16.1786 10.0974 14.9595L11.9999 13.057L13.9053 14.9595C15.1244 16.1786 15.8483 16.8794 15.9236 16.9171C16.1061 17.0068 16.2827 17.0242 16.4767 16.9663C16.9053 16.8418 17.1196 16.3582 16.9314 15.9383C16.9024 15.8775 16.1437 15.0956 14.9709 13.917L13.0568 12L14.9594 10.0946C16.1785 8.87543 16.8792 8.15147 16.9169 8.07618C17.0646 7.77792 17.0124 7.44779 16.7808 7.21903C16.552 6.98736 16.2219 6.93524 15.9236 7.08292C15.8483 7.12057 15.1244 7.82135 13.9024 9.04049L11.9999 10.943L10.0945 9.04049C8.82616 7.77212 8.15145 7.12057 8.07037 7.08003C7.89083 6.99026 7.67365 6.97867 7.48253 7.04528Z" fill="#FF5454"/>
</svg>
