<svg width="129" height="130" viewBox="0 0 129 130" fill="none" xmlns="http://www.w3.org/2000/svg">
<g opacity="0.1">
<path d="M89.978 39.9712C64.5804 13.5839 41.6933 32.1418 41.6933 32.1418L45.5204 43.0878L56.2787 36.4525C63.0264 32.5728 69.2169 35.8133 75.1151 40.1107C80.6407 44.1364 86.1563 49.5499 89.7402 55.402C93.2562 61.1433 96.2672 67.7284 92.207 73.7808L85.1659 84.2773L95.9576 88.5198C95.9576 88.5198 115.375 66.358 89.978 39.9712Z" fill="url(#paint0_linear_3006_227)"/>
<path d="M89.978 39.9712C64.5804 13.5839 41.6933 32.1418 41.6933 32.1418L45.5204 43.0878L56.2787 36.4525C63.0264 32.5728 69.2169 35.8133 75.1151 40.1107C80.6407 44.1364 86.1563 49.5499 89.7402 55.402C93.2562 61.1433 96.2672 67.7284 92.207 73.7808L85.1659 84.2773L95.9576 88.5198C95.9576 88.5198 115.375 66.358 89.978 39.9712Z" fill="url(#paint1_linear_3006_227)"/>
<path d="M39.8591 32.9129L32.5015 39.9946C31.9345 40.5404 31.652 41.3175 31.7362 42.1001L32.1044 45.5124L47.3942 31.7902C47.3942 31.7902 43.0411 29.8503 39.8591 32.9129Z" fill="url(#paint2_linear_3006_227)"/>
<path d="M39.8591 32.9129L32.5015 39.9946C31.9345 40.5404 31.652 41.3175 31.7362 42.1001L32.1044 45.5124L47.3942 31.7902C47.3942 31.7902 43.0411 29.8503 39.8591 32.9129Z" fill="url(#paint3_linear_3006_227)"/>
<path d="M94.8645 90.0617L87.5069 97.1434C86.9399 97.6891 86.1525 97.9417 85.3737 97.8277L81.978 97.3294L96.2743 82.5751C96.2743 82.5751 98.0465 86.9991 94.8645 90.0617Z" fill="url(#paint4_linear_3006_227)"/>
<path d="M94.8645 90.0617L87.5069 97.1434C86.9399 97.6891 86.1525 97.9417 85.3737 97.8277L81.978 97.3294L96.2743 82.5751C96.2743 82.5751 98.0465 86.9991 94.8645 90.0617Z" fill="url(#paint5_linear_3006_227)"/>
<path d="M94.909 71.4402C90.2495 68.7895 83.2413 63.2089 74.8142 54.4534C66.387 45.6979 61.0783 38.4816 58.6075 33.7242C56.1363 28.9665 49.7856 32.6464 49.7856 32.6464L48.6071 33.7807L71.5388 57.6059L94.4705 81.4312L95.649 80.2968C95.649 80.2968 99.5689 74.0914 94.909 71.4402Z" fill="url(#paint6_linear_3006_227)"/>
<path d="M94.909 71.4402C90.2495 68.7895 83.2413 63.2089 74.8142 54.4534C66.387 45.6979 61.0783 38.4816 58.6075 33.7242C56.1363 28.9665 49.7856 32.6464 49.7856 32.6464L48.6071 33.7807L71.5388 57.6059L94.4705 81.4312L95.649 80.2968C95.649 80.2968 99.5689 74.0914 94.909 71.4402Z" fill="url(#paint7_linear_3006_227)"/>
<path d="M88.7466 70.9721L73.7932 55.436L58.8397 39.8999C58.8397 39.8999 49.072 27.3888 42.6331 33.5862L25.7853 49.8021C25.7853 49.8021 24.7082 51.0458 26.2012 55.6035C27.6937 60.1614 30.1325 64.843 39.9408 75.2479L43.9149 75.8021C44.7492 75.9184 45.5324 76.2746 46.1682 76.8276L48.7898 79.5017L51.3617 82.2235C51.89 82.88 52.2164 83.6758 52.3004 84.5143L52.7024 88.5067C62.7252 98.705 67.3098 101.32 71.8075 102.987C76.3047 104.653 77.5887 103.624 77.5887 103.624L94.4365 87.4081C100.875 81.2111 88.7466 70.9721 88.7466 70.9721Z" fill="url(#paint8_linear_3006_227)"/>
<path d="M88.7466 70.9721L73.7932 55.436L58.8397 39.8999C58.8397 39.8999 49.072 27.3888 42.6331 33.5862L25.7853 49.8021C25.7853 49.8021 24.7082 51.0458 26.2012 55.6035C27.6937 60.1614 30.1325 64.843 39.9408 75.2479L43.9149 75.8021C44.7492 75.9184 45.5324 76.2746 46.1682 76.8276L48.7898 79.5017L51.3617 82.2235C51.89 82.88 52.2164 83.6758 52.3004 84.5143L52.7024 88.5067C62.7252 98.705 67.3098 101.32 71.8075 102.987C76.3047 104.653 77.5887 103.624 77.5887 103.624L94.4365 87.4081C100.875 81.2111 88.7466 70.9721 88.7466 70.9721Z" fill="url(#paint9_linear_3006_227)"/>
<path d="M83.6077 75.9183L68.6543 60.3823L53.7009 44.8462C53.7009 44.8462 43.7636 32.4983 38.2498 37.8053L23.822 51.6919C23.822 51.6919 22.9145 52.7724 24.6232 57.1223C26.1919 61.1158 28.5051 65.2631 36.4721 73.9532C37.9189 75.5309 39.802 76.623 41.7852 77.0502L42.4653 77.1967C43.2458 77.3647 43.9962 77.7526 44.6239 78.3133L47.2419 80.9908L49.8174 83.7092C50.3534 84.3583 50.7127 85.1225 50.8508 85.9089L50.9704 86.5909C51.3219 88.591 52.3424 90.5164 53.8649 92.0236C62.243 100.316 66.2986 102.785 70.2288 104.505C74.5103 106.379 75.6246 105.513 75.6246 105.513L90.0524 91.6264C95.5669 86.3202 83.6077 75.9183 83.6077 75.9183Z" fill="url(#paint10_linear_3006_227)"/>
<path d="M84.5194 78.9266C83.4529 77.8186 82.6457 77.1131 82.6388 77.1067L82.5695 77.0459L52.5345 45.8406L52.4772 45.7699C52.4707 45.7615 51.7958 44.9279 50.7297 43.8203C47.8288 40.8063 42.5115 36.1847 39.4895 39.0933L25.2627 52.7866C25.2129 53.1072 25.1677 54.212 26.1557 56.7265C27.4717 60.077 29.3464 63.837 37.1081 72.3771C38.5711 73.987 40.4744 75.1153 42.4898 75.5494C43.638 75.7969 44.7414 76.3663 45.6665 77.1894L48.3575 79.9411L50.9812 82.7112C51.7679 83.6658 52.2944 84.789 52.4975 85.9447C52.855 87.9775 53.9109 89.9245 55.4653 91.4496C63.7011 99.5303 67.3866 101.546 70.6836 102.99C73.1593 104.073 74.2647 104.07 74.5866 104.032L88.8134 90.3392C91.8358 87.431 87.4203 81.9405 84.5194 78.9266Z" fill="url(#paint11_linear_3006_227)"/>
<path d="M90.8458 39.2588C88.1734 36.4823 85.6411 35.6844 85.6411 35.6844L69.5123 51.2083L73.8011 55.6642L78.09 60.1202L94.2188 44.5963C94.2188 44.5963 93.5178 42.035 90.8458 39.2588Z" fill="url(#paint12_linear_3006_227)"/>
<path d="M90.8458 39.2588C88.1734 36.4823 85.6411 35.6844 85.6411 35.6844L69.5123 51.2083L73.8011 55.6642L78.09 60.1202L94.2188 44.5963C94.2188 44.5963 93.5178 42.035 90.8458 39.2588Z" fill="url(#paint13_linear_3006_227)"/>
<path d="M68.7403 62.6787L32.8214 67.4353C34.008 68.8865 35.4183 70.5187 37.108 72.3778C38.5711 73.9877 40.4744 75.116 42.4897 75.5501C43.6379 75.7976 44.7414 76.367 45.6664 77.1901L47.3911 78.9538L80.2205 74.6061L68.7403 62.6787Z" fill="url(#paint14_linear_3006_227)"/>
<path d="M58.1372 51.6623L25.8626 55.9363C25.9484 56.1836 26.0446 56.4448 26.1554 56.7268C26.9267 58.6904 27.8918 60.7967 30.1198 63.9221L65.4354 59.2457L58.1368 51.6627L58.1372 51.6623Z" fill="url(#paint15_linear_3006_227)"/>
<path d="M74.986 129.19L5.73813e-05 51.282L37.028 39.7167L87.9576 92.6308L74.986 129.19Z" fill="url(#paint16_linear_3006_227)"/>
</g>
<defs>
<linearGradient id="paint0_linear_3006_227" x1="94.7687" y1="36.5441" x2="63.1828" y2="65.504" gradientUnits="userSpaceOnUse">
<stop stop-color="#E474C6"/>
<stop offset="0.9892" stop-color="#0E7CF7"/>
</linearGradient>
<linearGradient id="paint1_linear_3006_227" x1="117.219" y1="13.7521" x2="65.343" y2="63.6827" gradientUnits="userSpaceOnUse">
<stop offset="0.158997" stop-color="#F9B0CA"/>
<stop offset="1" stop-color="#EB0055"/>
</linearGradient>
<linearGradient id="paint2_linear_3006_227" x1="36.9347" y1="35.7275" x2="39.9976" y2="38.9098" gradientUnits="userSpaceOnUse">
<stop stop-color="#6F469E"/>
<stop offset="1" stop-color="#360F6E"/>
</linearGradient>
<linearGradient id="paint3_linear_3006_227" x1="62.2205" y1="14.4551" x2="31.0698" y2="44.4375" gradientUnits="userSpaceOnUse">
<stop offset="0.158997" stop-color="#F9B0CA"/>
<stop offset="1" stop-color="#EB0055"/>
</linearGradient>
<linearGradient id="paint4_linear_3006_227" x1="88.8773" y1="89.6942" x2="91.9401" y2="92.8764" gradientUnits="userSpaceOnUse">
<stop stop-color="#6F469E"/>
<stop offset="1" stop-color="#360F6E"/>
</linearGradient>
<linearGradient id="paint5_linear_3006_227" x1="114.163" y1="68.4219" x2="83.0125" y2="98.4043" gradientUnits="userSpaceOnUse">
<stop offset="0.158997" stop-color="#F9B0CA"/>
<stop offset="1" stop-color="#EB0055"/>
</linearGradient>
<linearGradient id="paint6_linear_3006_227" x1="86.0043" y1="46.7275" x2="67.9316" y2="60.1574" gradientUnits="userSpaceOnUse">
<stop stop-color="#6F469E"/>
<stop offset="1" stop-color="#360F6E"/>
</linearGradient>
<linearGradient id="paint7_linear_3006_227" x1="82.8519" y1="46.7171" x2="71.5388" y2="57.6059" gradientUnits="userSpaceOnUse">
<stop offset="0.158997" stop-color="#F9B0CA"/>
<stop offset="1" stop-color="#EB0055"/>
</linearGradient>
<linearGradient id="paint8_linear_3006_227" x1="69.2581" y1="50.2744" x2="57.0234" y2="75.387" gradientUnits="userSpaceOnUse">
<stop stop-color="#8F4EB6"/>
<stop offset="0.9946" stop-color="#5141AE"/>
</linearGradient>
<linearGradient id="paint9_linear_3006_227" x1="104.349" y1="26.0258" x2="46.3216" y2="81.8773" gradientUnits="userSpaceOnUse">
<stop offset="0.158997" stop-color="#F9B0CA"/>
<stop offset="1" stop-color="#EB0055"/>
</linearGradient>
<linearGradient id="paint10_linear_3006_227" x1="70.6691" y1="55.0312" x2="37.576" y2="95.1735" gradientUnits="userSpaceOnUse">
<stop stop-color="#E474C6"/>
<stop offset="0.9892" stop-color="#0E7CF7"/>
</linearGradient>
<linearGradient id="paint11_linear_3006_227" x1="64.7484" y1="44.8289" x2="48.6865" y2="102.304" gradientUnits="userSpaceOnUse">
<stop stop-color="#D2F9FF"/>
<stop offset="0.9946" stop-color="#618DD6"/>
</linearGradient>
<linearGradient id="paint12_linear_3006_227" x1="91.2211" y1="39.3849" x2="56.6406" y2="70.8662" gradientUnits="userSpaceOnUse">
<stop stop-color="#CB9DFF"/>
<stop offset="0.9892" stop-color="#796AFB"/>
</linearGradient>
<linearGradient id="paint13_linear_3006_227" x1="109.693" y1="21.1182" x2="73.8011" y2="55.6642" gradientUnits="userSpaceOnUse">
<stop offset="0.158997" stop-color="#F9B0CA"/>
<stop offset="1" stop-color="#EB0055"/>
</linearGradient>
<linearGradient id="paint14_linear_3006_227" x1="26.7527" y1="81.1316" x2="133.238" y2="44.9633" gradientUnits="userSpaceOnUse">
<stop stop-color="#D2F9FF"/>
<stop offset="0.9946" stop-color="#618DD6"/>
</linearGradient>
<linearGradient id="paint15_linear_3006_227" x1="20.9305" y1="57.7821" x2="168.416" y2="57.8455" gradientUnits="userSpaceOnUse">
<stop stop-color="#D2F9FF"/>
<stop offset="0.9946" stop-color="#618DD6"/>
</linearGradient>
<linearGradient id="paint16_linear_3006_227" x1="61.7913" y1="66.8489" x2="29.8901" y2="97.5537" gradientUnits="userSpaceOnUse">
<stop stop-color="#95C5FF" stop-opacity="0"/>
<stop offset="0.0807" stop-color="#ABD2FD"/>
<stop offset="0.4867" stop-color="#9CC9FE" stop-opacity="0.4527"/>
<stop offset="0.8226" stop-color="#95C5FF" stop-opacity="0"/>
</linearGradient>
</defs>
</svg>
