<svg width="167" height="177" viewBox="0 0 167 177" fill="none" xmlns="http://www.w3.org/2000/svg">
<g opacity="0.1">
<path d="M115.598 140.695C116.999 127.671 122.933 116.89 131.235 104.632C139.538 92.3733 142.659 78.287 142.659 78.287L129.669 70.5674L115.155 66.3599C115.155 66.3599 107.005 78.2667 103.732 92.7045C100.458 107.143 96.6432 118.843 88.0942 128.768C79.5452 138.693 77.726 147.363 93.418 154.168C109.11 160.972 114.197 153.719 115.598 140.695Z" fill="url(#paint0_linear_3006_178)"/>
<path d="M115.598 140.695C116.999 127.671 122.933 116.89 131.235 104.632C139.538 92.3733 142.659 78.287 142.659 78.287L129.669 70.5674L115.155 66.3599C115.155 66.3599 107.005 78.2667 103.732 92.7045C100.458 107.143 96.6432 118.843 88.0942 128.768C79.5452 138.693 77.726 147.363 93.418 154.168C109.11 160.972 114.197 153.719 115.598 140.695Z" fill="url(#paint1_linear_3006_178)"/>
<path opacity="0.57" d="M115.598 140.695C116.999 127.671 122.933 116.89 131.235 104.632C139.537 92.3743 142.659 78.287 142.659 78.287L138.072 75.5615C136.267 80.6882 133.353 87.5576 129.033 93.9358C120.73 106.193 114.797 116.974 113.395 129.999C111.994 143.023 106.907 150.277 91.2145 143.473C87.1332 141.703 84.2449 139.806 82.3432 137.794C80.1483 143.994 82.6901 149.518 93.4167 154.17C109.11 160.972 114.197 153.719 115.598 140.695Z" fill="url(#paint2_linear_3006_178)"/>
<path d="M95.4736 149.426C85.4692 145.089 82.5897 139.991 84.0267 134.294C79.4953 141.925 80.7124 148.66 93.4173 154.169C106.123 159.679 111.87 155.964 114.344 147.44C111.167 152.382 105.478 153.764 95.4736 149.426Z" fill="url(#paint3_linear_3006_178)"/>
<path d="M95.4736 149.426C85.4692 145.089 82.5897 139.991 84.0267 134.294C79.4953 141.925 80.7124 148.66 93.4173 154.169C106.123 159.679 111.87 155.964 114.344 147.44C111.167 152.382 105.478 153.764 95.4736 149.426Z" fill="url(#paint4_linear_3006_178)"/>
<path d="M84.032 134.272C84.032 134.272 84.0082 134.434 83.9621 134.737C83.906 135.039 83.8518 135.488 83.8279 136.051C83.7957 136.332 83.8136 136.645 83.8276 136.985C83.8235 137.325 83.8817 137.688 83.9425 138.073C84.061 138.845 84.3302 139.686 84.7339 140.545C85.1288 141.413 85.7545 142.246 86.4621 143.073C87.2273 143.855 88.0704 144.647 89.056 145.336C90.0145 146.059 91.0983 146.68 92.1973 147.305C92.7629 147.594 93.3311 147.886 93.9029 148.179C94.4899 148.444 95.0773 148.712 95.6664 148.978C96.267 149.227 96.8665 149.475 97.464 149.722C98.0651 149.938 98.6642 150.153 99.2584 150.367C100.468 150.74 101.661 151.107 102.844 151.313C104.021 151.561 105.175 151.633 106.268 151.659C107.356 151.61 108.391 151.498 109.295 151.193C110.197 150.901 110.995 150.522 111.64 150.082C111.963 149.863 112.267 149.657 112.513 149.422C112.77 149.201 113.012 148.999 113.195 148.782C113.592 148.377 113.88 148.035 114.061 147.787C114.252 147.547 114.353 147.418 114.353 147.418C114.353 147.418 114.267 147.557 114.104 147.817C113.948 148.081 113.709 148.467 113.336 148.908C113.167 149.144 112.94 149.369 112.695 149.619C112.461 149.881 112.167 150.12 111.851 150.375C111.549 150.652 111.163 150.853 110.782 151.111C110.378 151.321 109.945 151.546 109.47 151.71C108.527 152.081 107.441 152.259 106.294 152.367C105.147 152.401 103.922 152.394 102.695 152.156C101.459 151.966 100.211 151.644 98.9659 151.259C98.3483 151.044 97.7265 150.825 97.101 150.606C96.4943 150.361 95.8856 150.115 95.2779 149.869C94.6798 149.592 94.0806 149.314 93.4845 149.038C92.9005 148.733 92.3191 148.428 91.7429 148.126C90.6114 147.478 89.5228 146.79 88.5396 146.017C87.5284 145.284 86.6858 144.394 85.9259 143.534C85.2214 142.622 84.6075 141.709 84.2349 140.767C84.0309 140.308 83.898 139.838 83.7767 139.399C83.7053 138.945 83.5869 138.527 83.5832 138.118C83.5532 137.711 83.5261 137.334 83.5584 136.985C83.5731 136.635 83.5832 136.316 83.6385 136.03C83.7064 135.452 83.8232 135.021 83.9083 134.726C83.9897 134.43 84.032 134.272 84.032 134.272Z" fill="url(#paint5_linear_3006_178)"/>
<path d="M142.548 78.2385C141.419 80.8413 134.373 80.292 126.808 77.0119C119.243 73.7318 114.026 68.9628 115.155 66.36C116.284 63.7572 123.33 64.3065 130.895 67.5866C138.459 70.8672 143.676 75.6351 142.548 78.2385Z" fill="url(#paint6_linear_3006_178)"/>
<path d="M118.3 106.897L110.917 103.696C110.589 103.553 110.207 103.703 110.065 104.032L109.18 106.07C109.038 106.399 109.188 106.781 109.517 106.923L116.9 110.124C117.228 110.266 117.61 110.116 117.752 109.788L118.636 107.749C118.78 107.421 118.629 107.039 118.3 106.897Z" fill="url(#paint7_linear_3006_178)"/>
<path d="M114.848 114.86L107.465 111.659C107.137 111.517 106.756 111.667 106.613 111.995L105.729 114.034C105.586 114.362 105.737 114.743 106.065 114.886L113.448 118.087C113.776 118.229 114.158 118.079 114.3 117.751L115.185 115.713C115.327 115.383 115.176 115.002 114.848 114.86Z" fill="url(#paint8_linear_3006_178)"/>
<path d="M117.787 67.507C117.99 67.6986 124.501 76.8757 140.025 77.1477C145.189 75.6128 149.665 71.8961 151.976 66.5662C156.124 57.0026 151.732 45.8873 142.169 41.7399C132.605 37.5925 121.49 41.9838 117.342 51.5475C115.031 56.879 115.378 62.6884 117.787 67.507Z" fill="url(#paint9_radial_3006_178)"/>
<path opacity="0.55" d="M151.269 50.123C151.827 53.5642 151.455 57.1973 149.965 60.6325C149.821 60.9652 149.668 61.2921 149.507 61.6128C145.883 68.8259 137.471 72.1507 129.662 70.0995C121.206 67.8785 116.968 63.0282 115.993 61.8386C116.29 63.8139 116.897 65.7294 117.787 67.5078C117.989 67.6993 124.5 76.8765 140.024 77.1485C145.189 75.6136 149.664 71.8969 151.976 66.567C154.366 61.0548 153.906 55.0341 151.269 50.123Z" fill="url(#paint10_linear_3006_178)"/>
<path d="M126.403 87.0581C125.666 88.7579 123.441 89.4301 121.433 88.5586C119.426 87.6876 118.395 85.6034 119.132 83.9046C119.87 82.2048 122.094 81.5326 124.102 82.4041C126.11 83.274 127.141 85.3582 126.403 87.0581Z" fill="url(#paint11_linear_3006_178)"/>
<path d="M125.658 86.7349C125.072 88.086 123.302 88.6202 121.706 87.9285C120.11 87.2368 119.291 85.5802 119.877 84.2292C120.462 82.8781 122.232 82.344 123.828 83.0357C125.424 83.7273 126.244 85.3829 125.658 86.7349Z" fill="url(#paint12_linear_3006_178)"/>
<path d="M121.353 98.7055C120.615 100.405 118.391 101.078 116.382 100.206C114.375 99.3351 113.344 97.2509 114.081 95.5521C114.819 93.8522 117.043 93.18 119.052 94.0516C121.06 94.9215 122.091 97.0057 121.353 98.7055Z" fill="url(#paint13_linear_3006_178)"/>
<path d="M120.607 98.3825C120.022 99.7335 118.252 100.268 116.656 99.576C115.06 98.8843 114.241 97.2278 114.826 95.8767C115.412 94.5257 117.182 93.9915 118.778 94.6832C120.374 95.3749 121.193 97.0315 120.607 98.3825Z" fill="url(#paint14_linear_3006_178)"/>
<path d="M130.033 95.4633C129.296 97.1632 127.07 97.8348 125.063 96.9638C123.055 96.0929 122.024 94.0097 122.762 92.3099C123.5 90.61 125.724 89.9378 127.733 90.8083C129.74 91.6793 130.771 93.7635 130.033 95.4633Z" fill="url(#paint15_linear_3006_178)"/>
<path d="M129.288 95.1403C128.702 96.4913 126.932 97.0255 125.336 96.3338C123.74 95.6421 122.921 93.9856 123.507 92.6345C124.092 91.2835 125.862 90.7493 127.458 91.441C129.054 92.1327 129.873 93.7893 129.288 95.1403Z" fill="url(#paint16_linear_3006_178)"/>
<path d="M118.517 90.4689C117.78 92.1693 115.555 92.841 113.547 91.9694C111.539 91.0995 110.508 89.0153 111.246 87.3154C111.982 85.615 114.208 84.9434 116.217 85.8139C118.223 86.6859 119.254 88.7701 118.517 90.4689Z" fill="url(#paint17_linear_3006_178)"/>
<path d="M117.771 90.1459C117.186 91.4969 115.416 92.0311 113.82 91.3395C112.224 90.6478 111.405 88.9912 111.991 87.6402C112.576 86.2891 114.346 85.755 115.942 86.4467C117.538 87.1383 118.357 88.7949 117.771 90.1459Z" fill="url(#paint18_linear_3006_178)"/>
<path d="M38.0607 121.573C43.54 109.675 52.6 101.346 64.3756 92.3736C76.1511 83.4007 83.5986 71.043 83.5986 71.043L73.7451 59.5854L61.329 50.9729C61.329 50.9729 49.8093 59.6606 42.106 72.3034C34.4016 84.9456 27.0574 94.8194 15.7911 101.502C4.52475 108.186 0.0372498 115.824 12.7435 127.275C25.4487 138.725 32.5814 133.471 38.0607 121.573Z" fill="url(#paint19_linear_3006_178)"/>
<path d="M38.0607 121.573C43.54 109.675 52.6 101.346 64.3756 92.3736C76.1511 83.4007 83.5986 71.043 83.5986 71.043L73.7451 59.5854L61.329 50.9729C61.329 50.9729 49.8093 59.6606 42.106 72.3034C34.4016 84.9456 27.0574 94.8194 15.7911 101.502C4.52475 108.186 0.0372498 115.824 12.7435 127.275C25.4487 138.725 32.5814 133.471 38.0607 121.573Z" fill="url(#paint20_linear_3006_178)"/>
<path opacity="0.57" d="M38.0606 121.572C43.5399 109.674 52.6 101.346 64.3755 92.3733C76.1511 83.4004 83.5986 71.0427 83.5986 71.0427L80.1197 66.9974C76.776 71.2816 71.8236 76.8637 65.6965 81.5318C53.9209 90.5048 44.8609 98.8329 39.3816 110.731C33.9022 122.629 26.7696 127.884 14.0638 116.434C10.7584 113.456 8.62685 110.737 7.46468 108.225C3.40881 113.403 4.05727 119.447 12.7428 127.275C25.4486 138.725 32.5813 133.47 38.0606 121.572Z" fill="url(#paint21_linear_3006_178)"/>
<path d="M16.2032 123.435C8.10209 116.135 6.99793 110.386 10.1755 105.445C3.44834 111.234 2.45595 118.004 12.7428 127.276C23.0297 136.547 29.6615 134.858 34.7219 127.567C30.1367 131.238 24.3043 130.736 16.2032 123.435Z" fill="url(#paint22_linear_3006_178)"/>
<path d="M16.2032 123.435C8.10209 116.135 6.99793 110.386 10.1755 105.445C3.44834 111.234 2.45595 118.004 12.7428 127.276C23.0297 136.547 29.6615 134.858 34.7219 127.567C30.1367 131.238 24.3043 130.736 16.2032 123.435Z" fill="url(#paint23_linear_3006_178)"/>
<path d="M10.1876 105.426C10.1876 105.426 10.1129 105.571 9.97278 105.844C9.82335 106.113 9.62988 106.52 9.42695 107.047C9.308 107.302 9.2241 107.605 9.12886 107.933C9.01688 108.253 8.95617 108.617 8.89074 109.001C8.75767 109.77 8.74388 110.653 8.85357 111.595C8.9512 112.545 9.27941 113.534 9.68603 114.543C10.1626 115.528 10.7085 116.548 11.4236 117.516C12.102 118.507 12.9308 119.441 13.7736 120.384C14.2166 120.838 14.6636 121.296 15.1117 121.756C15.5821 122.195 16.0562 122.635 16.5287 123.075C17.0183 123.501 17.508 123.928 17.9962 124.353C18.4974 124.749 18.9966 125.144 19.4911 125.535C20.518 126.275 21.5326 127.004 22.5874 127.575C23.6237 128.186 24.6957 128.622 25.7237 128.994C26.7692 129.295 27.7869 129.518 28.7407 129.517C29.6902 129.529 30.5665 129.423 31.3178 129.211C31.6934 129.107 32.0479 129.008 32.3555 128.864C32.6704 128.736 32.9627 128.622 33.2066 128.475C33.7122 128.217 34.0939 127.985 34.3444 127.808C34.602 127.642 34.7386 127.552 34.7386 127.552C34.7386 127.552 34.612 127.655 34.3755 127.85C34.1424 128.051 33.7947 128.34 33.2999 128.639C33.0641 128.809 32.7774 128.949 32.4653 129.109C32.161 129.283 31.8054 129.416 31.4243 129.557C31.0505 129.724 30.6197 129.79 30.1766 129.913C29.7269 129.984 29.2451 130.059 28.742 130.064C27.7298 130.116 26.6444 129.938 25.522 129.674C24.4237 129.342 23.2652 128.943 22.1774 128.327C21.0668 127.753 19.987 127.05 18.9291 126.288C18.4132 125.886 17.8921 125.481 17.3689 125.075C16.8718 124.65 16.3741 124.223 15.8755 123.795C15.3967 123.342 14.9175 122.887 14.4408 122.435C13.9855 121.959 13.5307 121.485 13.0798 121.016C12.2135 120.042 11.4012 119.042 10.7159 117.996C9.99037 116.977 9.47561 115.866 9.03024 114.809C8.65199 113.719 8.36301 112.658 8.30835 111.647C8.26156 111.147 8.28561 110.659 8.3102 110.204C8.38695 109.752 8.40902 109.316 8.53497 108.927C8.63607 108.533 8.72999 108.166 8.87239 107.844C8.99688 107.518 9.10783 107.219 9.2528 106.966C9.50049 106.44 9.75033 106.068 9.92513 105.815C10.0973 105.562 10.1876 105.426 10.1876 105.426Z" fill="url(#paint24_linear_3006_178)"/>
<path d="M83.5083 70.9607C81.6089 73.0678 75.1045 70.3017 68.9803 64.7825C62.855 59.2627 59.4296 53.0799 61.3291 50.9727C63.2285 48.8656 69.7328 51.6318 75.8571 57.1509C81.9823 62.6707 85.4077 68.8536 83.5083 70.9607Z" fill="url(#paint25_linear_3006_178)"/>
<path d="M51.3926 90.3987L45.4156 85.0114C45.1499 84.772 44.7394 84.7927 44.5 85.0584L43.0129 86.7088C42.7735 86.9745 42.7942 87.3849 43.0599 87.6243L49.037 93.0117C49.3026 93.2511 49.7131 93.2303 49.9525 92.9646L51.4396 91.3143C51.6807 91.0481 51.6583 90.6381 51.3926 90.3987Z" fill="url(#paint26_linear_3006_178)"/>
<path d="M45.5834 96.845L39.6064 91.4577C39.3407 91.2183 38.9302 91.239 38.6908 91.5047L37.2037 93.1551C36.9643 93.4207 36.9851 93.8312 37.2508 94.0706L43.2278 99.458C43.4935 99.6974 43.9039 99.6766 44.1433 99.4109L45.6304 97.7605C45.8698 97.4949 45.8491 97.0844 45.5834 96.845Z" fill="url(#paint27_linear_3006_178)"/>
<path d="M63.4601 52.898C63.5921 53.1443 66.8382 63.9181 81.4648 69.1232C86.8485 69.3136 92.2763 67.2177 96.1648 62.9022C103.144 55.1588 102.524 43.2241 94.7803 36.245C87.0369 29.2658 75.1022 29.8861 68.1231 37.6295C64.234 41.946 62.7107 47.5629 63.4601 52.898Z" fill="url(#paint28_radial_3006_178)"/>
<path opacity="0.55" d="M100.736 47.0904C100.168 50.5301 98.658 53.8546 96.1513 56.6367C95.9086 56.906 95.6592 57.1675 95.4045 57.4191C89.6694 63.101 80.638 63.5713 73.8909 59.1391C66.5831 54.3386 64.1114 48.3909 63.5671 46.9529C63.22 48.92 63.1835 50.9277 63.46 52.8983C63.5921 53.1446 66.8382 63.9183 81.4648 69.1235C86.8485 69.3138 92.2763 67.2179 96.1648 62.9024C100.188 58.4399 101.67 52.587 100.736 47.0904Z" fill="url(#paint29_linear_3006_178)"/>
<path d="M65.3955 74.1762C64.1552 75.5527 61.8314 75.4806 60.2055 74.0155C58.5797 72.5504 58.2675 70.247 59.5079 68.8705C60.7482 67.494 63.072 67.5661 64.6978 69.0313C66.3237 70.4964 66.6359 72.7997 65.3955 74.1762Z" fill="url(#paint30_linear_3006_178)"/>
<path d="M64.7915 73.6322C63.8057 74.7256 61.9584 74.6685 60.6662 73.5042C59.374 72.3398 59.126 70.5082 60.1107 69.4142C61.0964 68.3208 62.9437 68.3779 64.2359 69.5423C65.5291 70.7072 65.7778 72.5378 64.7915 73.6322Z" fill="url(#paint31_linear_3006_178)"/>
<path d="M56.8967 83.6061C55.6563 84.9826 53.3325 84.9106 51.7067 83.4455C50.0809 81.9803 49.7686 79.677 51.009 78.3005C52.2494 76.924 54.5731 76.996 56.199 78.4612C57.8248 79.9263 58.1371 82.2296 56.8967 83.6061Z" fill="url(#paint32_linear_3006_178)"/>
<path d="M56.2926 83.0622C55.3068 84.1556 53.4595 84.0985 52.1673 82.9342C50.8751 81.7699 50.627 79.9382 51.6117 78.8442C52.5981 77.7498 54.4448 77.8079 55.737 78.9723C57.0302 80.1372 57.2783 81.9688 56.2926 83.0622Z" fill="url(#paint33_linear_3006_178)"/>
<path d="M66.1578 83.3008C64.9174 84.6772 62.5936 84.6052 60.9678 83.14C59.342 81.6749 59.0297 79.3716 60.2701 77.9951C61.5105 76.6186 63.8342 76.6906 65.4601 78.1558C67.0859 79.6209 67.3981 81.9243 66.1578 83.3008Z" fill="url(#paint34_linear_3006_178)"/>
<path d="M65.5544 82.7555C64.5681 83.8499 62.7214 83.7918 61.4292 82.6275C60.137 81.4631 59.8889 79.6315 60.8746 78.5381C61.8604 77.4447 63.7076 77.5018 64.9998 78.6661C66.2914 79.8315 66.5401 81.6621 65.5544 82.7555Z" fill="url(#paint35_linear_3006_178)"/>
<path d="M56.833 74.896C55.5926 76.2725 53.2689 76.2004 51.6431 74.7353C50.0172 73.2702 49.704 70.9662 50.9454 69.5903C52.1858 68.2138 54.5095 68.2859 56.1354 69.751C57.7612 71.2162 58.0734 73.5195 56.833 74.896Z" fill="url(#paint36_linear_3006_178)"/>
<path d="M56.2291 74.3518C55.2433 75.4452 53.396 75.3881 52.1038 74.2238C50.8116 73.0594 50.5635 71.2278 51.5493 70.1344C52.535 69.041 54.3823 69.0981 55.6745 70.2624C56.9667 71.4268 57.2154 73.2574 56.2291 74.3518Z" fill="url(#paint37_linear_3006_178)"/>
</g>
<defs>
<linearGradient id="paint0_linear_3006_178" x1="131.576" y1="68.7263" x2="78.9206" y2="185.269" gradientUnits="userSpaceOnUse">
<stop stop-color="#E474C6"/>
<stop offset="0.9892" stop-color="#7142A2"/>
</linearGradient>
<linearGradient id="paint1_linear_3006_178" x1="183.222" y1="-14.6" x2="89.5015" y2="152.231" gradientUnits="userSpaceOnUse">
<stop offset="0.158997" stop-color="#F9B0CA"/>
<stop offset="1" stop-color="#EB0055"/>
</linearGradient>
<linearGradient id="paint2_linear_3006_178" x1="101.637" y1="48.3333" x2="121.773" y2="167.294" gradientUnits="userSpaceOnUse">
<stop stop-color="#E474C6"/>
<stop offset="0.9892" stop-color="#7142A2"/>
</linearGradient>
<linearGradient id="paint3_linear_3006_178" x1="120.908" y1="110.57" x2="101.688" y2="138.174" gradientUnits="userSpaceOnUse">
<stop stop-color="#E474C6"/>
<stop offset="0.9892" stop-color="#7142A2"/>
</linearGradient>
<linearGradient id="paint4_linear_3006_178" x1="109.105" y1="123.765" x2="92.2467" y2="153.774" gradientUnits="userSpaceOnUse">
<stop offset="0.158997" stop-color="#F9B0CA"/>
<stop offset="1" stop-color="#EB0055"/>
</linearGradient>
<linearGradient id="paint5_linear_3006_178" x1="102.449" y1="123.914" x2="95.5624" y2="159.349" gradientUnits="userSpaceOnUse">
<stop stop-color="#8F4EB6"/>
<stop offset="0.9946" stop-color="#5141AE"/>
</linearGradient>
<linearGradient id="paint6_linear_3006_178" x1="127.4" y1="81.994" x2="129.634" y2="67.0646" gradientUnits="userSpaceOnUse">
<stop stop-color="#6F469E"/>
<stop offset="1" stop-color="#360F6E"/>
</linearGradient>
<linearGradient id="paint7_linear_3006_178" x1="115.327" y1="104.078" x2="110.369" y2="113.984" gradientUnits="userSpaceOnUse">
<stop stop-color="#8F4EB6"/>
<stop offset="0.9946" stop-color="#5141AE"/>
</linearGradient>
<linearGradient id="paint8_linear_3006_178" x1="111.848" y1="111.665" x2="108.946" y2="118.356" gradientUnits="userSpaceOnUse">
<stop stop-color="#8F4EB6"/>
<stop offset="0.9946" stop-color="#5141AE"/>
</linearGradient>
<radialGradient id="paint9_radial_3006_178" cx="0" cy="0" r="1" gradientUnits="userSpaceOnUse" gradientTransform="translate(129.985 48.6544) rotate(23.4426) scale(28.507 28.507)">
<stop stop-color="#D2F9FF"/>
<stop offset="0.9946" stop-color="#618DD6"/>
</radialGradient>
<linearGradient id="paint10_linear_3006_178" x1="134.342" y1="36.2541" x2="134.752" y2="59.7497" gradientUnits="userSpaceOnUse">
<stop stop-color="#D2F9FF"/>
<stop offset="0.9946" stop-color="#618DD6"/>
</linearGradient>
<linearGradient id="paint11_linear_3006_178" x1="125.491" y1="79.2891" x2="120.403" y2="90.8566" gradientUnits="userSpaceOnUse">
<stop stop-color="#8F4EB6"/>
<stop offset="0.9946" stop-color="#5141AE"/>
</linearGradient>
<linearGradient id="paint12_linear_3006_178" x1="124.023" y1="80.0472" x2="121.722" y2="90.0106" gradientUnits="userSpaceOnUse">
<stop stop-color="#D2F9FF"/>
<stop offset="0.9946" stop-color="#618DD6"/>
</linearGradient>
<linearGradient id="paint13_linear_3006_178" x1="120.282" y1="91.431" x2="116.344" y2="100.18" gradientUnits="userSpaceOnUse">
<stop stop-color="#8F4EB6"/>
<stop offset="0.9946" stop-color="#5141AE"/>
</linearGradient>
<linearGradient id="paint14_linear_3006_178" x1="118.642" y1="93.0855" x2="116.871" y2="100.827" gradientUnits="userSpaceOnUse">
<stop stop-color="#D2F9FF"/>
<stop offset="0.9946" stop-color="#618DD6"/>
</linearGradient>
<linearGradient id="paint15_linear_3006_178" x1="129.729" y1="86.4564" x2="125.344" y2="96.2373" gradientUnits="userSpaceOnUse">
<stop stop-color="#8F4EB6"/>
<stop offset="0.9946" stop-color="#5141AE"/>
</linearGradient>
<linearGradient id="paint16_linear_3006_178" x1="126.886" y1="89.0443" x2="125.924" y2="98.5789" gradientUnits="userSpaceOnUse">
<stop stop-color="#D2F9FF"/>
<stop offset="0.9946" stop-color="#618DD6"/>
</linearGradient>
<linearGradient id="paint17_linear_3006_178" x1="117.138" y1="83.3896" x2="113.372" y2="92.5735" gradientUnits="userSpaceOnUse">
<stop stop-color="#8F4EB6"/>
<stop offset="0.9946" stop-color="#5141AE"/>
</linearGradient>
<linearGradient id="paint18_linear_3006_178" x1="115.612" y1="85.1376" x2="114.085" y2="92.9846" gradientUnits="userSpaceOnUse">
<stop stop-color="#D2F9FF"/>
<stop offset="0.9946" stop-color="#618DD6"/>
</linearGradient>
<linearGradient id="paint19_linear_3006_178" x1="76.1393" y1="58.4469" x2="-10.9072" y2="152.136" gradientUnits="userSpaceOnUse">
<stop stop-color="#E474C6"/>
<stop offset="0.9892" stop-color="#7142A2"/>
</linearGradient>
<linearGradient id="paint20_linear_3006_178" x1="115.175" y1="-34.5051" x2="21.0684" y2="133.013" gradientUnits="userSpaceOnUse">
<stop offset="0.158997" stop-color="#F9B0CA"/>
<stop offset="1" stop-color="#EB0055"/>
</linearGradient>
<linearGradient id="paint21_linear_3006_178" x1="54.2593" y1="29.5787" x2="35.4395" y2="148.752" gradientUnits="userSpaceOnUse">
<stop stop-color="#E474C6"/>
<stop offset="0.9892" stop-color="#7142A2"/>
</linearGradient>
<linearGradient id="paint22_linear_3006_178" x1="52.6923" y1="94.7105" x2="25.6788" y2="114.75" gradientUnits="userSpaceOnUse">
<stop stop-color="#E474C6"/>
<stop offset="0.9892" stop-color="#7142A2"/>
</linearGradient>
<linearGradient id="paint23_linear_3006_178" x1="33.8513" y1="95.0263" x2="14.5638" y2="129.36" gradientUnits="userSpaceOnUse">
<stop offset="0.158997" stop-color="#F9B0CA"/>
<stop offset="1" stop-color="#EB0055"/>
</linearGradient>
<linearGradient id="paint24_linear_3006_178" x1="30.9446" y1="101.475" x2="13.1252" y2="132.87" gradientUnits="userSpaceOnUse">
<stop stop-color="#8F4EB6"/>
<stop offset="0.9946" stop-color="#5141AE"/>
</linearGradient>
<linearGradient id="paint25_linear_3006_178" x1="67.9547" y1="69.6936" x2="74.83" y2="56.2538" gradientUnits="userSpaceOnUse">
<stop stop-color="#6F469E"/>
<stop offset="1" stop-color="#360F6E"/>
</linearGradient>
<linearGradient id="paint26_linear_3006_178" x1="49.4725" y1="86.7789" x2="41.6166" y2="94.5886" gradientUnits="userSpaceOnUse">
<stop stop-color="#8F4EB6"/>
<stop offset="0.9946" stop-color="#5141AE"/>
</linearGradient>
<linearGradient id="paint27_linear_3006_178" x1="43.7577" y1="92.8607" x2="38.8752" y2="98.2788" gradientUnits="userSpaceOnUse">
<stop stop-color="#8F4EB6"/>
<stop offset="0.9946" stop-color="#5141AE"/>
</linearGradient>
<radialGradient id="paint28_radial_3006_178" cx="0" cy="0" r="1" gradientUnits="userSpaceOnUse" gradientTransform="translate(81.0287 38.9155) rotate(42.0238) scale(28.507 28.5071)">
<stop stop-color="#D2F9FF"/>
<stop offset="0.9946" stop-color="#618DD6"/>
</radialGradient>
<linearGradient id="paint29_linear_3006_178" x1="89.1096" y1="28.5512" x2="82.0122" y2="50.9527" gradientUnits="userSpaceOnUse">
<stop stop-color="#D2F9FF"/>
<stop offset="0.9946" stop-color="#618DD6"/>
</linearGradient>
<linearGradient id="paint30_linear_3006_178" x1="67.0068" y1="66.5213" x2="58.4982" y2="75.8645" gradientUnits="userSpaceOnUse">
<stop stop-color="#8F4EB6"/>
<stop offset="0.9946" stop-color="#5141AE"/>
</linearGradient>
<linearGradient id="paint31_linear_3006_178" x1="65.3733" y1="66.7718" x2="60.0173" y2="75.4826" gradientUnits="userSpaceOnUse">
<stop stop-color="#D2F9FF"/>
<stop offset="0.9946" stop-color="#618DD6"/>
</linearGradient>
<linearGradient id="paint32_linear_3006_178" x1="58.1997" y1="76.3697" x2="51.6793" y2="83.4077" gradientUnits="userSpaceOnUse">
<stop stop-color="#8F4EB6"/>
<stop offset="0.9946" stop-color="#5141AE"/>
</linearGradient>
<linearGradient id="paint33_linear_3006_178" x1="56.1181" y1="77.4154" x2="51.973" y2="84.1894" gradientUnits="userSpaceOnUse">
<stop stop-color="#D2F9FF"/>
<stop offset="0.9946" stop-color="#618DD6"/>
</linearGradient>
<linearGradient id="paint34_linear_3006_178" x1="68.7394" y1="74.6656" x2="61.4659" y2="82.5392" gradientUnits="userSpaceOnUse">
<stop stop-color="#8F4EB6"/>
<stop offset="0.9946" stop-color="#5141AE"/>
</linearGradient>
<linearGradient id="paint35_linear_3006_178" x1="65.2199" y1="76.2121" x2="61.2703" y2="84.9435" gradientUnits="userSpaceOnUse">
<stop stop-color="#D2F9FF"/>
<stop offset="0.9946" stop-color="#618DD6"/>
</linearGradient>
<linearGradient id="paint36_linear_3006_178" x1="57.7822" y1="67.7458" x2="51.2861" y2="75.2508" gradientUnits="userSpaceOnUse">
<stop stop-color="#8F4EB6"/>
<stop offset="0.9946" stop-color="#5141AE"/>
</linearGradient>
<linearGradient id="paint37_linear_3006_178" x1="55.7793" y1="68.9161" x2="51.8308" y2="75.8672" gradientUnits="userSpaceOnUse">
<stop stop-color="#D2F9FF"/>
<stop offset="0.9946" stop-color="#618DD6"/>
</linearGradient>
</defs>
</svg>
