<svg width="30" height="31" viewBox="0 0 30 31" fill="none" xmlns="http://www.w3.org/2000/svg">
<rect y="0.485352" width="30" height="30" rx="15" fill="#38ADB5"/>
<path d="M15.6168 9.48535C16.2918 9.48715 16.6344 9.49075 16.9301 9.49915L17.0465 9.50335C17.1809 9.50815 17.3135 9.51415 17.4737 9.52135C18.1121 9.55135 18.5477 9.65215 18.9298 9.80034C19.3258 9.95274 19.6594 10.1591 19.993 10.4921C20.2981 10.7921 20.5341 11.1549 20.6847 11.5553C20.8329 11.9375 20.9337 12.3731 20.9637 13.0121C20.9709 13.1717 20.9769 13.3043 20.9817 13.4393L20.9853 13.5557C20.9943 13.8509 20.9979 14.1934 20.9991 14.8684L20.9997 15.316V16.102C21.0012 16.5396 20.9966 16.9773 20.9859 17.4148L20.9823 17.5312C20.9775 17.6662 20.9715 17.7988 20.9643 17.9584C20.9343 18.5973 20.8323 19.0323 20.6847 19.4151C20.5346 19.8158 20.2984 20.1787 19.993 20.4783C19.693 20.7833 19.3302 21.0193 18.9298 21.1701C18.5477 21.3183 18.1121 21.4191 17.4737 21.4491C17.3313 21.4558 17.189 21.4618 17.0465 21.4671L16.9301 21.4707C16.6344 21.4791 16.2918 21.4833 15.6168 21.4845L15.1692 21.4851H14.3839C13.946 21.4866 13.5082 21.482 13.0705 21.4713L12.9541 21.4677C12.8117 21.4623 12.6693 21.4561 12.527 21.4491C11.8886 21.4191 11.453 21.3183 11.0702 21.1701C10.6699 21.0197 10.3072 20.7836 10.0077 20.4783C9.70234 20.1785 9.46606 19.8156 9.31533 19.4151C9.16714 19.0329 9.06634 18.5973 9.03634 17.9584C9.02966 17.816 9.02366 17.6736 9.01835 17.5312L9.01535 17.4148C9.00429 16.9773 8.99929 16.5396 9.00035 16.102V14.8684C8.99867 14.4308 9.00307 13.9932 9.01355 13.5557L9.01775 13.4393C9.02255 13.3043 9.02854 13.1717 9.03574 13.0121C9.06574 12.3731 9.16654 11.9381 9.31473 11.5553C9.46539 11.1545 9.70214 10.7915 10.0083 10.4921C10.3077 10.187 10.6701 9.95093 11.0702 9.80034C11.453 9.65215 11.888 9.55135 12.527 9.52135C12.6866 9.51415 12.8198 9.50815 12.9541 9.50335L13.0705 9.49975C13.508 9.48909 13.9457 9.48449 14.3833 9.48595L15.6168 9.48535ZM15 12.4853C14.2044 12.4853 13.4414 12.8013 12.8788 13.3639C12.3162 13.9265 12.0002 14.6896 12.0002 15.4852C12.0002 16.2808 12.3162 17.0439 12.8788 17.6065C13.4414 18.1691 14.2044 18.4851 15 18.4851C15.7956 18.4851 16.5587 18.1691 17.1213 17.6065C17.6838 17.0439 17.9999 16.2808 17.9999 15.4852C17.9999 14.6896 17.6838 13.9265 17.1213 13.3639C16.5587 12.8013 15.7956 12.4853 15 12.4853ZM15 13.6853C15.2364 13.6852 15.4705 13.7317 15.6889 13.8222C15.9072 13.9126 16.1057 14.0451 16.2729 14.2122C16.44 14.3794 16.5726 14.5778 16.6631 14.7961C16.7536 15.0145 16.8002 15.2485 16.8002 15.4849C16.8003 15.7213 16.7538 15.9554 16.6634 16.1737C16.5729 16.3921 16.4404 16.5906 16.2733 16.7578C16.1062 16.9249 15.9078 17.0575 15.6894 17.148C15.4711 17.2385 15.237 17.2851 15.0006 17.2852C14.5233 17.2852 14.0655 17.0955 13.7279 16.758C13.3904 16.4204 13.2007 15.9626 13.2007 15.4852C13.2007 15.0078 13.3904 14.55 13.7279 14.2124C14.0655 13.8749 14.5227 13.6853 15 13.6853ZM18.1505 11.5853C17.9516 11.5853 17.7608 11.6643 17.6202 11.805C17.4795 11.9456 17.4005 12.1364 17.4005 12.3353C17.4005 12.5342 17.4795 12.725 17.6202 12.8656C17.7608 13.0063 17.9516 13.0853 18.1505 13.0853C18.3494 13.0853 18.5401 13.0063 18.6808 12.8656C18.8214 12.725 18.9004 12.5342 18.9004 12.3353C18.9004 12.1364 18.8214 11.9456 18.6808 11.805C18.5401 11.6643 18.3494 11.5853 18.1505 11.5853Z" fill="#EFF9FA"/>
</svg>
