<svg width="29" height="29" viewBox="0 0 29 29" fill="none" xmlns="http://www.w3.org/2000/svg">
<rect x="0.5" y="0.110352" width="28" height="28" rx="14" fill="#EB0055"/>
<path d="M11.56 7.11035H17.44C19.68 7.11035 21.5 8.93035 21.5 11.1704V17.0504C21.5 18.1271 21.0723 19.1598 20.3109 19.9212C19.5495 20.6826 18.5168 21.1104 17.44 21.1104H11.56C9.32 21.1104 7.5 19.2904 7.5 17.0504V11.1704C7.5 10.0936 7.92775 9.0609 8.68915 8.2995C9.45054 7.5381 10.4832 7.11035 11.56 7.11035ZM11.42 8.51035C10.7517 8.51035 10.1107 8.77585 9.63809 9.24844C9.1655 9.72103 8.9 10.362 8.9 11.0304V17.1904C8.9 18.5834 10.027 19.7104 11.42 19.7104H17.58C18.2483 19.7104 18.8893 19.4449 19.3619 18.9723C19.8345 18.4997 20.1 17.8587 20.1 17.1904V11.0304C20.1 9.63735 18.973 8.51035 17.58 8.51035H11.42ZM18.175 9.56035C18.4071 9.56035 18.6296 9.65254 18.7937 9.81663C18.9578 9.98073 19.05 10.2033 19.05 10.4354C19.05 10.6674 18.9578 10.89 18.7937 11.0541C18.6296 11.2182 18.4071 11.3104 18.175 11.3104C17.9429 11.3104 17.7204 11.2182 17.5563 11.0541C17.3922 10.89 17.3 10.6674 17.3 10.4354C17.3 10.2033 17.3922 9.98073 17.5563 9.81663C17.7204 9.65254 17.9429 9.56035 18.175 9.56035ZM14.5 10.6104C15.4283 10.6104 16.3185 10.9791 16.9749 11.6355C17.6313 12.2919 18 13.1821 18 14.1104C18 15.0386 17.6313 15.9288 16.9749 16.5852C16.3185 17.2416 15.4283 17.6104 14.5 17.6104C13.5717 17.6104 12.6815 17.2416 12.0251 16.5852C11.3687 15.9288 11 15.0386 11 14.1104C11 13.1821 11.3687 12.2919 12.0251 11.6355C12.6815 10.9791 13.5717 10.6104 14.5 10.6104ZM14.5 12.0104C13.943 12.0104 13.4089 12.2316 13.0151 12.6254C12.6212 13.0193 12.4 13.5534 12.4 14.1104C12.4 14.6673 12.6212 15.2014 13.0151 15.5953C13.4089 15.9891 13.943 16.2104 14.5 16.2104C15.057 16.2104 15.5911 15.9891 15.9849 15.5953C16.3788 15.2014 16.6 14.6673 16.6 14.1104C16.6 13.5534 16.3788 13.0193 15.9849 12.6254C15.5911 12.2316 15.057 12.0104 14.5 12.0104Z" fill="white"/>
</svg>
