<svg width="30" height="31" viewBox="0 0 30 31" fill="none" xmlns="http://www.w3.org/2000/svg">
<rect y="0.485352" width="30" height="30" rx="15" fill="#38ADB5"/>
<path d="M10.9381 10.8193C10.9379 11.1729 10.7829 11.5119 10.5073 11.7618C10.2317 12.0117 9.85793 12.152 9.46831 12.1519C9.0787 12.1517 8.70512 12.0111 8.42975 11.7609C8.15439 11.5107 7.99981 11.1715 8 10.8179C8.00019 10.4643 8.15516 10.1253 8.43079 9.87538C8.70643 9.62547 9.08016 9.48517 9.46978 9.48535C9.85939 9.48553 10.233 9.62617 10.5083 9.87633C10.7837 10.1265 10.9383 10.4657 10.9381 10.8193ZM10.9822 13.1391H8.04407V21.4854H10.9822V13.1391ZM15.6243 13.1391H12.7009V21.4854H15.595V17.1056C15.595 14.6657 19.0986 14.4391 19.0986 17.1056V21.4854H22V16.199C22 12.0859 16.8143 12.2392 15.595 14.2591L15.6243 13.1391Z" fill="#EFF9FA"/>
</svg>
