<svg width="30" height="30" viewBox="0 0 30 30" fill="none" xmlns="http://www.w3.org/2000/svg">
<rect width="30" height="30" rx="15" fill="#F7B103"/>
<path d="M10.9381 10.3339C10.9379 10.6875 10.7829 11.0266 10.5073 11.2765C10.2317 11.5264 9.85793 11.6667 9.46831 11.6665C9.0787 11.6663 8.70512 11.5257 8.42975 11.2755C8.15439 11.0254 7.99981 10.6862 8 10.3326C8.00019 9.97899 8.15516 9.63994 8.43079 9.39003C8.70643 9.14012 9.08016 8.99982 9.46978 9C9.85939 9.00018 10.233 9.14081 10.5083 9.39097C10.7837 9.64113 10.9383 9.98032 10.9381 10.3339ZM10.9822 12.6538H8.04407V21H10.9822V12.6538ZM15.6243 12.6538H12.7009V21H15.595V16.6202C15.595 14.1804 19.0986 13.9537 19.0986 16.6202V21H22V15.7136C22 11.6005 16.8143 11.7538 15.595 13.7737L15.6243 12.6538Z" fill="black"/>
</svg>
