<svg width="30" height="30" viewBox="0 0 30 30" fill="none" xmlns="http://www.w3.org/2000/svg">
<rect width="30" height="30" rx="15" fill="#F7B103"/>
<path d="M15.6168 9C16.2918 9.0018 16.6344 9.0054 16.9301 9.0138L17.0465 9.018C17.1809 9.0228 17.3135 9.0288 17.4737 9.036C18.1121 9.066 18.5477 9.1668 18.9298 9.31499C19.3258 9.46739 19.6594 9.67378 19.993 10.0068C20.2981 10.3067 20.5341 10.6695 20.6847 11.07C20.8329 11.4521 20.9337 11.8877 20.9637 12.5267C20.9709 12.6863 20.9769 12.8189 20.9817 12.9539L20.9853 13.0703C20.9943 13.3655 20.9979 13.7081 20.9991 14.3831L20.9997 14.8307V15.6166C21.0012 16.0543 20.9966 16.4919 20.9859 16.9294L20.9823 17.0458C20.9775 17.1808 20.9715 17.3134 20.9643 17.473C20.9343 18.112 20.8323 18.547 20.6847 18.9298C20.5346 19.3304 20.2984 19.6933 19.993 19.9929C19.693 20.2979 19.3302 20.534 18.9298 20.6847C18.5477 20.8329 18.1121 20.9337 17.4737 20.9637C17.3313 20.9704 17.189 20.9764 17.0465 20.9817L16.9301 20.9853C16.6344 20.9937 16.2918 20.9979 15.6168 20.9991L15.1692 20.9997H14.3839C13.946 21.0012 13.5082 20.9966 13.0705 20.9859L12.9541 20.9823C12.8117 20.9769 12.6693 20.9707 12.527 20.9637C11.8886 20.9337 11.453 20.8329 11.0702 20.6847C10.6699 20.5344 10.3072 20.2982 10.0077 19.9929C9.70234 19.6931 9.46606 19.3303 9.31533 18.9298C9.16714 18.5476 9.06634 18.112 9.03634 17.473C9.02966 17.3306 9.02366 17.1882 9.01835 17.0458L9.01535 16.9294C9.00429 16.4919 8.99929 16.0543 9.00035 15.6166V14.3831C8.99867 13.9454 9.00307 13.5078 9.01355 13.0703L9.01775 12.9539C9.02255 12.8189 9.02854 12.6863 9.03574 12.5267C9.06574 11.8877 9.16654 11.4527 9.31473 11.07C9.46539 10.6691 9.70214 10.3062 10.0083 10.0068C10.3077 9.70167 10.6701 9.46558 11.0702 9.31499C11.453 9.1668 11.888 9.066 12.527 9.036C12.6866 9.0288 12.8198 9.0228 12.9541 9.018L13.0705 9.0144C13.508 9.00374 13.9457 8.99914 14.3833 9.0006L15.6168 9ZM15 11.9999C14.2044 11.9999 13.4414 12.316 12.8788 12.8786C12.3162 13.4412 12.0002 14.2042 12.0002 14.9999C12.0002 15.7955 12.3162 16.5585 12.8788 17.1211C13.4414 17.6837 14.2044 17.9998 15 17.9998C15.7956 17.9998 16.5587 17.6837 17.1213 17.1211C17.6838 16.5585 17.9999 15.7955 17.9999 14.9999C17.9999 14.2042 17.6838 13.4412 17.1213 12.8786C16.5587 12.316 15.7956 11.9999 15 11.9999ZM15 13.1999C15.2364 13.1999 15.4705 13.2464 15.6889 13.3368C15.9072 13.4272 16.1057 13.5598 16.2729 13.7269C16.44 13.894 16.5726 14.0924 16.6631 14.3108C16.7536 14.5291 16.8002 14.7632 16.8002 14.9996C16.8003 15.2359 16.7538 15.47 16.6634 15.6884C16.5729 15.9068 16.4404 16.1052 16.2733 16.2724C16.1062 16.4396 15.9078 16.5722 15.6894 16.6627C15.4711 16.7532 15.237 16.7998 15.0006 16.7998C14.5233 16.7998 14.0655 16.6102 13.7279 16.2726C13.3904 15.9351 13.2007 15.4772 13.2007 14.9999C13.2007 14.5225 13.3904 14.0647 13.7279 13.7271C14.0655 13.3895 14.5227 13.1999 15 13.1999ZM18.1505 11.1C17.9516 11.1 17.7608 11.179 17.6202 11.3196C17.4795 11.4603 17.4005 11.651 17.4005 11.8499C17.4005 12.0488 17.4795 12.2396 17.6202 12.3803C17.7608 12.5209 17.9516 12.5999 18.1505 12.5999C18.3494 12.5999 18.5401 12.5209 18.6808 12.3803C18.8214 12.2396 18.9004 12.0488 18.9004 11.8499C18.9004 11.651 18.8214 11.4603 18.6808 11.3196C18.5401 11.179 18.3494 11.1 18.1505 11.1Z" fill="black"/>
</svg>
