<svg width="29" height="29" viewBox="0 0 29 29" fill="none" xmlns="http://www.w3.org/2000/svg">
<rect x="0.5" y="0.110352" width="28" height="28" rx="14" fill="#EB0055"/>
<path d="M20.5856 10.3566C20.5248 10.1331 20.352 9.96435 20.1544 9.9126C19.804 9.82035 18.1008 9.61035 14.5008 9.61035C10.9008 9.61035 9.1984 9.82035 8.8456 9.9126C8.6504 9.9636 8.4776 10.1324 8.416 10.3566C8.3288 10.6746 8.1008 12.0066 8.1008 14.1104C8.1008 16.2134 8.3288 17.5454 8.416 17.8649C8.4768 18.0876 8.6496 18.2564 8.8464 18.3074C9.1984 18.4004 10.9 18.6104 14.5 18.6104C18.1 18.6104 19.8032 18.4004 20.1552 18.3081C20.3504 18.2571 20.5232 18.0884 20.5848 17.8641C20.6728 17.5461 20.9 16.2104 20.9 14.1104C20.9 12.0104 20.6728 10.6754 20.5856 10.3566ZM22.1344 9.98385C22.5 11.3204 22.5 14.1104 22.5 14.1104C22.5 14.1104 22.5 16.9004 22.1344 18.2369C21.9312 18.9756 21.3368 19.5569 20.584 19.7534C19.2176 20.1104 14.5 20.1104 14.5 20.1104C14.5 20.1104 9.7856 20.1104 8.416 19.7534C7.66 19.5539 7.0664 18.9734 6.8656 18.2369C6.5 16.9004 6.5 14.1104 6.5 14.1104C6.5 14.1104 6.5 11.3204 6.8656 9.98385C7.0688 9.2451 7.6632 8.66385 8.416 8.46735C9.7864 8.11035 14.5008 8.11035 14.5008 8.11035C14.5008 8.11035 19.2176 8.11035 20.5848 8.46735C21.34 8.66685 21.9344 9.24735 22.1352 9.98385M12.9008 16.7354V11.4854L17.7008 14.1104L12.9008 16.7354Z" fill="white"/>
</svg>
