<svg width="308" height="26" viewBox="0 0 308 26" fill="none" xmlns="http://www.w3.org/2000/svg">
<path d="M12.4456 0L12.4002 0.156987L10.0873 8.28194H1.17041L2.04605 5.30093H7.83539L9.30234 0.156987L9.34595 0H12.4456Z" fill="white"/>
<path d="M24.9714 8.28194H15.9621L13.6492 0.156987L13.6038 0H16.7034L16.7471 0.156987L18.214 5.30093H24.0941L24.9714 8.28194Z" fill="white"/>
<path d="M8.18601 14.3486L5.29395 22.437L5.23814 22.5922L2.75425 20.6927L2.80833 20.5392L4.61368 15.4877L0.136055 12.3549L0 12.2607L0.832032 9.43493V9.43319L0.938434 9.28143L1.02216 9.339L8.18601 14.3486Z" fill="white"/>
<path d="M26.0267 12.4316L21.6555 15.4876L23.4242 20.4292L23.48 20.5845L20.9926 22.4823L20.9386 22.3288L18.0849 14.3486L25.1406 9.41399L25.2749 9.31979L26.1628 12.3357L26.0267 12.4316Z" fill="white"/>
<path d="M20.1624 23.119L17.7029 24.9976L17.5738 24.8999L13.2096 21.6049L8.72673 25.0586L8.59765 25.1581L6.14691 23.2847L6.27599 23.187L13.1921 17.8582L20.0333 23.0213L20.1624 23.119Z" fill="white"/>
<path d="M30.5671 1.38321H39.3689C41.6888 1.38321 43.7418 1.84719 45.528 2.77167C47.3124 3.6979 48.7079 5.00961 49.7126 6.70333C50.7173 8.39879 51.2197 10.3524 51.2197 12.5607C51.2197 14.769 50.7173 16.7156 49.7126 18.4006C48.7096 20.0856 47.3142 21.3903 45.528 22.3166C43.7436 23.2428 41.6905 23.705 39.3689 23.705H30.5671V1.38321ZM39.3689 19.892C40.7957 19.892 42.0412 19.5641 43.0999 18.9065C44.1605 18.2489 44.9681 17.361 45.5263 16.2464C46.0844 15.13 46.3635 13.9038 46.3635 12.5642C46.3635 10.403 45.7495 8.63601 44.5233 7.2615C43.2953 5.88699 41.5772 5.19974 39.3689 5.19974H35.3186V19.892H39.3689Z" fill="white"/>
<path d="M66.512 1.38147H60.5569L51.9209 23.7085H57.1433L58.5475 19.8589H65.7323L67.2184 16.0423H59.7092L63.5362 5.80327L67.2184 16.0423L69.9256 23.7085H75.1149L66.512 1.38147Z" fill="white"/>
<path d="M81.0385 5.198H74.5114V1.38321H92.3189V5.198H85.8249V23.7068H81.0385V5.198Z" fill="white"/>
<path d="M100.953 1.38321H96.2V23.7068H100.953V1.38321Z" fill="white"/>
<path d="M110.959 8.71276V23.7068H106.207V1.38321H111.093L121.435 15.8417V1.38321H126.188V23.7068H121.602L110.959 8.71276Z" fill="white"/>
<path d="M131.962 6.48704C133.022 4.73576 134.456 3.38567 136.263 2.43677C138.07 1.48962 140.067 1.01517 142.255 1.01517C144.442 1.01517 146.265 1.41985 147.793 2.22746C149.321 3.03507 150.554 4.127 151.491 5.50151L147.542 7.64351C146.984 6.81846 146.24 6.14341 145.316 5.61838C144.39 5.09509 143.369 4.8317 142.255 4.8317C140.917 4.8317 139.717 5.16835 138.656 5.8399C137.596 6.51146 136.765 7.43768 136.164 8.61683C135.56 9.79598 135.26 11.1164 135.26 12.5799C135.26 14.0434 135.56 15.3638 136.164 16.5429C136.765 17.7221 137.597 18.6483 138.656 19.3199C139.717 19.9932 140.915 20.3281 142.255 20.3281C143.214 20.3281 144.123 20.1345 144.983 19.7472C145.841 19.3582 146.539 18.8925 147.074 18.35V15.2085H141.117V11.392H151.761V19.9269C150.579 21.2648 149.188 22.3026 147.594 23.0387C145.998 23.7748 144.219 24.1429 142.257 24.1429C140.069 24.1429 138.072 23.6632 136.265 22.7038C134.458 21.7444 133.024 20.3839 131.963 18.6204C130.903 16.8587 130.374 14.8388 130.374 12.5624C130.374 10.2861 130.905 8.24006 131.963 6.48878" fill="white"/>
<path d="M157.448 17.3139C158.295 18.207 159.328 18.9326 160.544 19.4891C161.76 20.0472 163.092 20.3263 164.543 20.3263C165.77 20.3263 166.724 20.0298 167.404 19.4385C168.084 18.8472 168.425 18.1337 168.425 17.2982C168.425 16.3842 168.056 15.69 167.32 15.219C166.584 14.7481 165.447 14.2963 163.907 13.8654C162.166 13.4852 160.75 13.1049 159.656 12.7229C158.562 12.3427 157.608 11.7234 156.795 10.867C155.981 10.0105 155.574 8.85232 155.574 7.39234C155.574 6.20796 155.92 5.12823 156.612 4.15491C157.303 3.18159 158.29 2.4141 159.574 1.85418C160.858 1.29426 162.346 1.01343 164.043 1.01343C167.591 1.01343 170.492 1.96756 172.745 3.87408L170.101 7.27024C169.23 6.46786 168.231 5.8591 167.106 5.44744C165.979 5.03579 164.847 4.82821 163.708 4.82821C162.66 4.82821 161.85 5.04974 161.282 5.49454C160.713 5.93933 160.429 6.5324 160.429 7.27721C160.429 8.02203 160.774 8.568 161.467 8.91511C162.157 9.26397 163.296 9.64248 164.882 10.0507C166.577 10.4309 167.988 10.8391 169.115 11.2752C170.242 11.7112 171.212 12.388 172.027 13.3055C172.841 14.223 173.248 15.4405 173.248 16.9616C173.248 19.1088 172.484 20.8426 170.956 22.1613C169.427 23.4818 167.212 24.1411 164.311 24.1411C160.362 24.1411 157.203 23.0544 154.84 20.8793L157.451 17.3139H157.448Z" fill="#F7B103"/>
<path d="M182.215 5.198H175.688V1.38321H193.494V5.198H187.001V23.7068H182.215V5.198Z" fill="#F7B103"/>
<path d="M207.452 1.38147H201.495L192.857 23.7085H198.079L199.485 19.8589H206.658L208.144 16.0423H200.645L204.472 5.80327L208.154 16.0423H208.144L210.541 22.8154L210.865 23.7085H216.051L207.452 1.38147Z" fill="#F7B103"/>
<path d="M227.197 15.7074H223.715V23.7068H218.962V1.38321H229.405C230.923 1.38321 232.25 1.69021 233.389 2.3042C234.527 2.91819 235.397 3.77116 236 4.86483C236.602 5.95851 236.904 7.19697 236.904 8.5802C236.904 10.41 236.43 11.8944 235.482 13.0317C234.534 14.1689 233.379 14.8946 232.018 15.2068L237.038 23.7085H231.582L227.197 15.7092V15.7074ZM231.096 6.12596C230.459 5.50848 229.662 5.198 228.702 5.198H223.715V11.8909H228.702C229.662 11.8909 230.459 11.5821 231.096 10.9629C231.732 10.3454 232.05 9.53782 232.05 8.54357C232.05 7.54931 231.732 6.74345 231.096 6.12422" fill="#F7B103"/>
<path d="M242.392 17.3139C243.239 18.207 244.272 18.9326 245.488 19.4891C246.704 20.0472 248.036 20.3263 249.487 20.3263C250.714 20.3263 251.668 20.0298 252.348 19.4385C253.028 18.8472 253.368 18.1337 253.368 17.2982C253.368 16.3842 253 15.69 252.264 15.219C251.528 14.7481 250.391 14.2963 248.851 13.8654C247.11 13.4852 245.694 13.1049 244.6 12.7229C243.506 12.3427 242.552 11.7234 241.739 10.867C240.925 10.0105 240.518 8.85232 240.518 7.39234C240.518 6.20796 240.864 5.12823 241.556 4.15491C242.247 3.18159 243.234 2.4141 244.518 1.85418C245.802 1.29426 247.29 1.01343 248.987 1.01343C252.535 1.01343 255.435 1.96756 257.689 3.87408L255.045 7.27024C254.174 6.46786 253.175 5.8591 252.05 5.44744C250.923 5.03579 249.791 4.82821 248.652 4.82821C247.604 4.82821 246.794 5.04974 246.226 5.49454C245.657 5.93933 245.373 6.5324 245.373 7.27721C245.373 8.02203 245.718 8.568 246.41 8.91511C247.101 9.26397 248.24 9.64249 249.826 10.0507C251.521 10.4309 252.932 10.8391 254.059 11.2752C255.186 11.7112 256.156 12.388 256.97 13.3055C257.785 14.223 258.191 15.4405 258.191 16.9616C258.191 19.1088 257.427 20.8426 255.899 22.1613C254.371 23.4818 252.156 24.1411 249.255 24.1411C245.306 24.1411 242.147 23.0544 239.784 20.8793L242.395 17.3139H242.392Z" fill="#F7B103"/>
<path d="M260.475 21.0276C260.864 20.6438 261.321 20.4519 261.846 20.4519C262.371 20.4519 262.842 20.6438 263.226 21.0276C263.609 21.4113 263.801 21.8718 263.801 22.4073C263.801 22.9428 263.609 23.3876 263.226 23.7783C262.842 24.1673 262.381 24.3627 261.846 24.3627C261.31 24.3627 260.866 24.1673 260.475 23.7783C260.084 23.3876 259.889 22.9306 259.889 22.4073C259.889 21.884 260.084 21.4113 260.475 21.0276Z" fill="white"/>
<path d="M268.476 23.5672C267.464 23.037 266.671 22.2904 266.091 21.3293C265.512 20.3682 265.223 19.2762 265.223 18.0587C265.223 16.8412 265.512 15.7353 266.091 14.7794C266.671 13.8236 267.462 13.0805 268.467 12.5502C269.472 12.02 270.595 11.7548 271.839 11.7548C273.337 11.7548 274.539 12.0618 275.448 12.6741C276.355 13.2881 277.028 14.0538 277.468 14.9713L274.288 16.4505C274.129 15.9516 273.826 15.5312 273.374 15.1894C272.924 14.8492 272.411 14.6783 271.839 14.6783C271.267 14.6783 270.798 14.8265 270.358 15.1248C269.92 15.4213 269.578 15.8295 269.334 16.3493C269.09 16.8691 268.97 17.4395 268.97 18.0587C268.97 18.678 269.09 19.2501 269.334 19.7699C269.578 20.2897 269.918 20.6961 270.358 20.9944C270.798 21.2909 271.289 21.4392 271.839 21.4392C272.388 21.4392 272.922 21.27 273.374 20.9281C273.824 20.5862 274.129 20.1676 274.288 19.6687L277.468 21.1304C277.03 22.0392 276.353 22.805 275.439 23.4294C274.525 24.0539 273.325 24.3661 271.841 24.3661C270.609 24.3661 269.489 24.101 268.478 23.5707" fill="white"/>
<path d="M279.294 14.7864C279.878 13.8253 280.679 13.0788 281.696 12.5485C282.713 12.0182 283.843 11.7531 285.087 11.7531C286.331 11.7531 287.459 12.0182 288.476 12.5485C289.493 13.0788 290.295 13.8253 290.88 14.7864C291.464 15.7493 291.757 16.8395 291.757 18.057C291.757 19.2745 291.464 20.3664 290.88 21.3276C290.295 22.2904 289.493 23.0352 288.476 23.5655C287.459 24.0958 286.329 24.3609 285.087 24.3609C283.845 24.3609 282.715 24.0958 281.696 23.5655C280.679 23.0352 279.878 22.2887 279.294 21.3276C278.708 20.3664 278.417 19.2745 278.417 18.057C278.417 16.8395 278.708 15.7493 279.294 14.7864ZM287.644 16.3476C287.4 15.8278 287.056 15.4196 286.611 15.1231C286.167 14.8265 285.657 14.6783 285.085 14.6783C284.513 14.6783 284.004 14.8265 283.559 15.1231C283.114 15.4196 282.769 15.8278 282.526 16.3476C282.282 16.8674 282.162 17.4378 282.162 18.057C282.162 18.6762 282.282 19.2483 282.526 19.7664C282.769 20.2862 283.114 20.6944 283.559 20.9909C284.004 21.2874 284.511 21.4357 285.085 21.4357C285.659 21.4357 286.165 21.2874 286.611 20.9909C287.056 20.6944 287.4 20.2862 287.644 19.7664C287.886 19.2466 288.009 18.6762 288.009 18.057C288.009 17.4378 287.886 16.8674 287.644 16.3476Z" fill="white"/>
<path d="M304.309 16.4505L301.584 24.1429H299.941L297.218 16.4505V24.1429H293.528V11.9554H298.626L300.763 18.1669L302.901 11.9554H308V24.1429H304.309V16.4505Z" fill="white"/>
</svg>
