<svg width="20" height="20" viewBox="0 0 20 20" fill="none" xmlns="http://www.w3.org/2000/svg">
<rect width="20" height="20" rx="10" fill="#FF5454" fill-opacity="0.1"/>
<path d="M7.28952 6.53169C7.04107 6.63507 6.92987 6.97157 7.04975 7.25333C7.07234 7.30603 7.4928 7.8128 8.22427 8.66619L9.36577 10L8.22427 11.3318C7.4928 12.1872 7.07234 12.694 7.04975 12.7467C6.96114 12.9555 6.99242 13.1865 7.13141 13.3467C7.26867 13.5088 7.46674 13.5453 7.6457 13.442C7.69087 13.4156 8.12523 12.9251 8.85844 12.0717L9.99994 10.7399L11.1432 12.0717C11.8746 12.9251 12.309 13.4156 12.3542 13.442C12.4636 13.5048 12.5696 13.517 12.686 13.4764C12.9432 13.3893 13.0717 13.0507 12.9588 12.7568C12.9414 12.7142 12.4862 12.1669 11.7826 11.3419L10.6341 10L11.7756 8.66619C12.5071 7.8128 12.9275 7.30603 12.9501 7.25333C13.0387 7.04454 13.0075 6.81346 12.8685 6.65332C12.7312 6.49115 12.5331 6.45466 12.3542 6.55804C12.309 6.5844 11.8746 7.07495 11.1414 7.92834L9.99994 9.26012L8.8567 7.92834C8.0957 7.04049 7.69087 6.5844 7.64222 6.55602C7.5345 6.49318 7.40419 6.48507 7.28952 6.53169Z" fill="#FF5454"/>
</svg>
