<svg width="19" height="12" viewBox="0 0 19 12" fill="none" xmlns="http://www.w3.org/2000/svg">
<path d="M16.1088 11.4909C16.7613 12.1659 17.8413 12.1659 18.4938 11.5134C19.1687 10.8384 19.1687 9.7809 18.4938 9.1284L10.6863 1.2759C10.3713 0.9609 9.94376 0.7809 9.49376 0.7809C9.04377 0.7809 8.61627 0.960899 8.30127 1.2759L0.493778 9.1284C0.156279 9.4434 -0.00122052 9.8709 -0.00122055 10.2984C-0.00122059 10.7484 0.156279 11.1759 0.493778 11.5134C1.16878 12.1659 2.22628 12.1659 2.87877 11.4909L9.49376 4.8534L16.1088 11.4909Z" fill="#3C278D"/>
<path d="M16.1088 11.4909C16.7613 12.1659 17.8413 12.1659 18.4938 11.5134C19.1687 10.8384 19.1687 9.7809 18.4938 9.1284L10.6863 1.2759C10.3713 0.9609 9.94376 0.7809 9.49376 0.7809C9.04377 0.7809 8.61627 0.960899 8.30127 1.2759L0.493778 9.1284C0.156279 9.4434 -0.00122052 9.8709 -0.00122055 10.2984C-0.00122059 10.7484 0.156279 11.1759 0.493778 11.5134C1.16878 12.1659 2.22628 12.1659 2.87877 11.4909L9.49376 4.8534L16.1088 11.4909Z" fill="#3C278D"/>
</svg>
