<svg width="30" height="30" viewBox="0 0 30 30" fill="none" xmlns="http://www.w3.org/2000/svg">
<path fill-rule="evenodd" clip-rule="evenodd" d="M13.2704 1.06354L11.5701 2.12237L10.1336 2.08771C9.34354 2.06859 8.43328 2.03888 8.11081 2.02164L7.5245 1.99028L6.56705 3.78309L5.6096 5.5759L3.83037 6.53647L2.05108 7.49704L2.07729 8.52668C2.09172 9.09298 2.11435 9.73165 2.1276 9.94594L2.15164 10.3356L1.5421 10.3627C0.994839 10.3872 0.904019 10.4077 0.653135 10.5633C0.339809 10.7578 0.13671 11.024 0.0471216 11.3578C0.00807311 11.5032 -0.007347 12.8329 0.00326528 15.1292C0.0196821 18.6752 0.0196818 18.6761 0.151075 18.9226C0.412571 19.4136 0.910292 19.6468 1.6966 19.6468H2.15293L2.12818 20.044C2.11458 20.2624 2.09166 20.9044 2.07717 21.4707L2.05085 22.5004L3.82937 23.4592L5.6079 24.418L6.56623 26.2123L7.5245 28.0066L8.11081 27.9755C8.43328 27.9584 9.34354 27.9288 10.1336 27.9097L11.5701 27.875L13.2865 28.9375L15.0029 30L16.7164 28.9381L18.4299 27.8761L19.925 27.9108C20.7473 27.9299 21.6576 27.9597 21.9478 27.977L22.4755 28.0086L23.4317 26.2172L24.3879 24.4257L26.1689 23.4631L27.9499 22.5004L27.9232 21.4707C27.9085 20.9044 27.8854 20.2624 27.8718 20.044L27.8471 19.6468H28.3034C29.0897 19.6468 29.5874 19.4136 29.8489 18.9226C29.9803 18.6761 29.9803 18.6752 29.9967 15.1292C30.0073 12.8329 29.9919 11.5032 29.9529 11.3578C29.8633 11.024 29.6602 10.7578 29.3469 10.5633C29.096 10.4077 29.0052 10.3872 28.4579 10.3627L27.8484 10.3356L27.8724 9.94594C27.8857 9.73165 27.9083 9.09298 27.9227 8.52668L27.9489 7.49704L26.168 6.53364L24.3872 5.57025L23.4313 3.77956L22.4755 1.98887L21.9478 2.0204C21.6576 2.03776 20.7473 2.06753 19.925 2.08659L18.4299 2.12131L16.7148 1.05831C15.7715 0.473704 14.9931 -0.00251994 14.9852 1.00341e-05C14.9772 0.00254001 14.2055 0.481176 13.2704 1.06354ZM13.3583 2.03264L11.8046 3.00227L10.5147 2.96879C9.80526 2.95037 8.95979 2.92107 8.63586 2.90366L8.04685 2.87212L7.14773 4.54338L6.24856 6.21463L4.57804 7.1196L2.90751 8.02451L2.94363 8.408C2.96351 8.61887 2.97992 9.14229 2.98016 9.57103L2.98057 10.3506H4.00181H5.02305L5.29211 9.84309C5.81457 8.85746 6.35814 8.11965 7.18942 7.26746C7.7806 6.66144 8.54873 6.02688 8.60724 6.09614C8.62935 6.12238 8.74444 6.27976 8.86294 6.44598L9.07841 6.74816L8.67414 7.07594C8.12664 7.51986 7.39586 8.2658 7.00497 8.77968C6.66291 9.22948 6.0294 10.2172 6.0294 10.3008C6.0294 10.3282 10.0662 10.3506 15 10.3506C19.9338 10.3506 23.9706 10.3282 23.9706 10.3008C23.9706 10.2178 23.3382 9.23095 23.0004 8.78679C22.5941 8.25244 21.8845 7.52416 21.3615 7.1046C18.2348 4.59615 14.0174 4.14217 10.4597 5.93116L9.793 6.26641L9.5831 5.91092C9.33603 5.49247 9.30935 5.53395 10.075 5.1461C11.1143 4.61957 12.3061 4.25055 13.5166 4.08045C14.5299 3.93807 16.24 3.99125 17.1813 4.19448C20.5191 4.91505 23.2999 7.03258 24.7849 9.98471L24.969 10.3506H25.9942H27.0194L27.0198 9.57103C27.0201 9.14229 27.0366 8.61858 27.0564 8.4073L27.0926 8.02315L25.4225 7.11989L23.7525 6.21657L22.852 4.54297L21.9516 2.8693L21.422 2.90219C21.1308 2.92031 20.2856 2.95043 19.5439 2.9692L18.1954 3.00333L16.6268 2.02887C15.764 1.49293 15.0253 1.05636 14.9851 1.05872C14.9449 1.06113 14.2129 1.4994 13.3583 2.03264ZM17.6384 7.05576V7.46762H18.0781H18.5179V7.05576V6.6439H18.0781H17.6384V7.05576ZM19.3974 7.93831V8.35017H19.8371H20.2768V7.93831V7.52645H19.8371H19.3974V7.93831ZM1.01378 11.3776L0.869837 11.522V14.9987V18.4754L1.01378 18.6198L1.15766 18.7643H7.4046H13.6515V19.2055V19.6468H9.84044C7.74437 19.6468 6.0294 19.6692 6.0294 19.6966C6.0294 19.781 6.66426 20.7697 7.01165 21.2265C9.30818 24.2456 13.2914 25.7183 17.0521 24.9387C19.4236 24.4471 21.6266 23.0462 23.085 21.1024C23.3617 20.7337 23.9706 19.7671 23.9706 19.6966C23.9706 19.6692 22.2556 19.6468 20.1596 19.6468H16.3485V19.2055V18.7643H22.5954H28.8423L28.9862 18.6198L29.1302 18.4754V14.9987V11.522L28.9862 11.3776L28.8423 11.2332H15H1.15766L1.01378 11.3776ZM3.39099 14.9987V17.2345H4.26114C5.52886 17.2345 5.92034 17.0804 6.22857 16.4597C6.48473 15.9438 6.42158 15.3826 6.05268 14.8973C5.90434 14.7021 5.9041 14.7001 6.00384 14.4381C6.25589 13.7757 5.81844 12.9829 5.10982 12.8178C4.98676 12.7892 4.54966 12.7651 4.13854 12.7643L3.39099 12.7629V14.9987ZM8.14013 14.9987V17.2345H8.57805H9.01596L9.03244 16.5182L9.04891 15.8018L9.65153 16.5158C9.98303 16.9084 10.2778 17.2443 10.3067 17.2622C10.357 17.2934 10.9045 16.8594 10.9442 16.757C10.9547 16.7299 10.737 16.4441 10.4605 16.1218C10.184 15.7994 9.95805 15.5142 9.95852 15.4879C9.95899 15.4615 10.0901 15.3676 10.2499 15.2792C11.0573 14.8324 11.1276 13.6501 10.3808 13.0772C10.0675 12.8368 9.70529 12.7629 8.84083 12.7629H8.14013V14.9987ZM13.4805 14.6881C13.0801 15.7488 12.718 16.7 12.676 16.8019L12.5996 16.9871L12.9936 17.1338C13.2103 17.2146 13.4012 17.2726 13.4178 17.2627C13.4344 17.2528 13.5258 17.0299 13.6209 16.7673L13.7938 16.2899L14.5801 16.3062L15.3663 16.3225L15.5381 16.7915C15.6326 17.0494 15.7178 17.2684 15.7275 17.2782C15.7493 17.3 16.4192 17.0529 16.4813 17.0002C16.506 16.9793 16.1731 16.0239 15.7416 14.8772L14.957 12.7923L14.5827 12.7759L14.2085 12.7593L13.4805 14.6881ZM18.2834 14.9961V17.2345H18.722H19.1607L19.1764 15.8821L19.1921 14.5297L20.0139 15.838L20.8357 17.1462L21.2598 17.1635L21.684 17.1808V14.9719V12.7629H21.2454H20.8067L20.791 14.0918L20.7752 15.4206L19.9532 14.1065L19.1311 12.7923L18.7073 12.775L18.2834 12.7577V14.9961ZM23.3843 14.9399V17.1272L24.3077 17.1073C25.1812 17.0885 25.2494 17.0785 25.5671 16.9218C25.9448 16.7357 26.1866 16.4743 26.4205 15.9989C26.568 15.6991 26.5797 15.6213 26.5797 14.9399C26.5797 14.2565 26.5679 14.1789 26.4137 13.844C26.2151 13.4126 25.922 13.1109 25.5243 12.9283C25.2668 12.81 25.119 12.7912 24.3077 12.7732L23.3843 12.7526V14.9399ZM4.21183 14.0279V14.4103H4.6189C4.97315 14.4103 5.03788 14.3933 5.11727 14.2795C5.2418 14.1012 5.23189 13.9042 5.0913 13.7631C4.99807 13.6696 4.89588 13.6455 4.59293 13.6455H4.21183V14.0279ZM9.0196 14.1456V14.6457H9.31569C9.67973 14.6457 9.91895 14.5285 10.0112 14.3051C10.1612 13.9418 9.84865 13.6455 9.31569 13.6455H9.0196V14.1456ZM24.2638 14.9399V16.2472L24.6891 16.2256C25.206 16.1994 25.4225 16.0679 25.6204 15.6602C25.8164 15.2565 25.8123 14.6097 25.6112 14.2075C25.4011 13.7871 25.2269 13.6814 24.7005 13.6548L24.2638 13.6326V14.9399ZM14.3446 14.8533L14.1315 15.4106H14.5657C14.8046 15.4106 15 15.3996 15 15.3861C15 15.3348 14.6306 14.3788 14.5951 14.3385C14.5746 14.3151 14.4619 14.5468 14.3446 14.8533ZM4.21183 15.8224V16.352H4.68475C4.94483 16.352 5.2109 16.3234 5.27598 16.2884C5.46208 16.1884 5.57073 15.8698 5.49404 15.6491C5.40357 15.3887 5.17778 15.2929 4.65449 15.2929H4.21183V15.8224ZM14.5896 19.2055V19.6468H15H15.4104V19.2055V18.7643H15H14.5896V19.2055ZM2.98016 20.4264C2.97992 20.8552 2.96351 21.3783 2.94369 21.5889L2.90763 21.9718L4.57774 22.8766L6.24786 23.7815L7.14738 25.4534L8.04685 27.1253L8.63586 27.0938C8.95979 27.0763 9.80526 27.047 10.5147 27.0286L11.8046 26.9951L13.3748 27.9691C14.2384 28.5047 14.9705 28.943 15.0016 28.943C15.0327 28.943 15.764 28.5045 16.6268 27.9685L18.1954 26.9941L19.5439 27.0282C20.2856 27.047 21.1308 27.0771 21.422 27.0952L21.9516 27.1281L22.8517 25.4552L23.7518 23.7821L25.4223 22.8787L27.0927 21.9753L27.0565 21.5907C27.0366 21.3791 27.0201 20.8552 27.0198 20.4264L27.0194 19.6468H25.9942H24.969L24.7849 20.0127C23.2693 23.0257 20.288 25.2443 16.9348 25.8547C16.107 26.0053 14.382 26.0376 13.5342 25.9184C9.93835 25.4126 6.81664 23.1965 5.21507 20.0127L5.03096 19.6468H4.00579H2.98057L2.98016 20.4264Z" fill="#4F7566"/>
</svg>
