<svg width="70" height="70" viewBox="0 0 70 70" fill="none" xmlns="http://www.w3.org/2000/svg">
<path fill-rule="evenodd" clip-rule="evenodd" d="M50.6059 40.0316C50.2163 40.4207 50.2055 40.4688 50.2055 41.8101V43.1887H46.4642C42.8952 43.1887 42.7092 43.2014 42.4248 43.4661C41.7821 44.064 41.9575 45.0092 42.7779 45.3698C43.0334 45.4821 43.2486 45.6887 43.2767 45.8486C43.7558 48.573 44.5233 50.5756 45.7364 52.2661C46.3647 53.1417 48.0715 54.861 48.7453 55.2972L49.1345 55.549L48.8138 55.7166C48.217 56.0287 45.7203 56.8487 44.8438 57.0205C43.3485 57.3138 42.7456 58.3242 43.573 59.1503C43.8914 59.4684 43.9979 59.4954 44.6389 59.4201C45.6473 59.3018 48.2344 58.4596 49.9673 57.6856L51.4415 57.0271L52.0221 57.3442C53.4471 58.1225 56.8014 59.2676 58.1041 59.4205C58.7414 59.4952 58.8488 59.468 59.1667 59.1503C59.6326 58.6852 59.6456 57.9921 59.1964 57.5706C58.9959 57.3824 58.3779 57.1413 57.5742 56.9376C56.327 56.6215 54.3171 55.9428 53.8416 55.6771C53.6482 55.5689 53.6975 55.4919 54.1689 55.1657C54.9233 54.6435 56.6025 52.8641 57.2088 51.9443C58.31 50.2738 59.1719 48.0464 59.3405 46.4358C59.4194 45.6806 59.4585 45.6061 59.8608 45.4381C60.7485 45.0677 60.9811 44.3007 60.411 43.624L60.0441 43.1887H56.2892H52.5342V41.8101C52.5342 40.4688 52.5234 40.4207 52.1338 40.0316C51.8925 39.7905 51.589 39.6317 51.3699 39.6317C51.1507 39.6317 50.8473 39.7905 50.6059 40.0316ZM47.6323 50.9675C46.671 49.5581 45.9436 47.7364 45.6326 45.959L45.5548 45.5144H51.3699H57.1849L57.1052 45.959C56.4818 49.4349 54.4903 52.4661 51.7274 54.144C51.3349 54.3824 51.3273 54.3807 50.5977 53.8927C49.7064 53.2967 48.2232 51.8334 47.6323 50.9675Z" fill="#FF8C00"/>
<path fill-rule="evenodd" clip-rule="evenodd" d="M17.903 6.07984C17.5507 6.38314 10.4792 22.8744 10.4793 23.3921C10.4796 24.217 11.6345 24.7553 12.3092 24.2451C12.449 24.1392 13.0778 22.8637 13.7063 21.4107L14.849 18.7687H18.6433H22.4377L23.5223 21.2996C24.1188 22.6916 24.7369 23.969 24.8958 24.1383C25.5233 24.8068 26.7808 24.2939 26.7808 23.3695C26.7808 22.8217 19.7316 6.38889 19.364 6.07984C19.2074 5.9481 18.8771 5.84043 18.6301 5.84043C18.3832 5.84043 18.0559 5.9481 17.903 6.07984ZM15.9818 16.1191C16.0068 16.0539 16.6104 14.6404 17.3229 12.9781C18.0355 11.3159 18.6327 9.97008 18.6504 9.98759C18.6988 10.036 21.3014 16.1164 21.3014 16.1812C21.3014 16.2123 20.0942 16.2377 18.6188 16.2377C17.1433 16.2377 15.9566 16.1844 15.9818 16.1191Z" fill="#FF8C00"/>
<path fill-rule="evenodd" clip-rule="evenodd" d="M2.53343 0.0844218C1.58849 0.374589 0.747534 1.08516 0.255068 2.00984C0.0116438 2.46691 0 3.06407 0 15.1433C0 27.2225 0.0116438 27.8197 0.255068 28.2767C0.824109 29.3449 1.83479 30.099 2.9326 30.2743L3.49315 30.3639V31.7964C3.49315 33.3376 3.67069 33.9563 4.24192 34.405C4.51315 34.618 4.55507 34.8153 4.64068 36.2824C5.08534 43.9025 7.99233 50.6511 13.1481 56.0322C17.0352 60.0892 22.2873 63.1138 27.7507 64.4416L27.804 64.4546L27.8044 64.4547C28.5128 64.6269 29.0694 64.7621 29.6314 64.8692C31.6913 65.2618 33.8235 65.2757 43.7698 65.3406L43.9726 65.3419L55.8904 65.4198L59.3151 67.464C63.5263 69.9778 63.5758 70.0035 64.1727 69.9998C64.8653 69.9956 65.7267 69.5627 66.1095 69.027C66.403 68.6159 66.4433 68.3953 66.4837 66.9746L66.529 65.3829L67.0785 65.295C68.1651 65.1216 69.1782 64.3634 69.7449 63.2993C69.9884 62.8422 70 62.2451 70 50.1658V37.5112L69.7038 36.964C69.0315 35.722 68.0064 35.0989 66.4879 35.0089L65.4418 34.9469L65.3462 33.3561C64.4666 18.7157 53.5779 6.93817 39.0753 4.94052L37.3288 4.69987L37.3274 3.73114C37.3253 2.18509 36.6458 1.01635 35.3442 0.32014L34.7945 0.0261418L18.8356 0.00261139C10.0582 -0.0103853 2.72219 0.0264157 2.53343 0.0844218ZM2.26027 3.08323L2.66068 2.68334L3.0611 2.28345H18.6301H34.1992L34.5996 2.68334L35 3.08323V15.1433V27.2034L34.5996 27.6032L34.1992 28.0031H23.8942H13.5895L10.2195 30.0048C8.36589 31.1056 6.65712 32.1214 6.42219 32.2621C6.18726 32.4027 5.96082 32.5178 5.9189 32.5178C5.87699 32.5178 5.8226 31.6504 5.79808 30.5903C5.75356 28.6714 5.75178 28.6613 5.36904 28.333C5.04178 28.0521 4.84178 28.0031 4.02288 28.0031C3.14247 28.0031 3.02726 27.9693 2.66068 27.6032L2.26027 27.2034V15.1433V3.08323ZM37.3288 14.2175V10.6348V7.05199L38.1164 7.14434C41.533 7.54463 45.52 8.78616 48.277 10.308C49.8277 11.1641 51.4384 12.2563 51.4384 12.4516C51.4384 12.7503 49.8692 14.1632 49.4353 14.2553C49.2185 14.3012 48.9227 14.3629 48.7781 14.3924C48.6334 14.4218 47.4314 14.3201 46.1068 14.1665C44.1373 13.938 43.1747 13.9 40.8219 13.9572C39.2397 13.9958 37.8066 14.07 37.637 14.1224L37.3288 14.2175ZM51.7808 15.5552C52.1575 15.2727 52.6507 14.7888 52.8767 14.4799C53.1027 14.1711 53.3252 13.9171 53.3711 13.9153C53.7025 13.9025 57.381 17.8213 57.2445 18.0417C57.2066 18.103 57.0592 18.153 56.9169 18.153C55.9218 18.153 52.6215 19.5942 51.0274 20.7249C49.826 21.5768 48.0458 23.3911 47.4984 24.3211C46.6626 25.7414 46.4542 26.5297 46.4532 28.2767C46.4514 30.861 47.1558 32.7892 48.6627 34.3257L49.2953 34.9707L42.2504 35.0097C35.3418 35.0479 35.1948 35.0544 34.6558 35.3427C33.8804 35.7575 33.3671 36.3051 32.9905 37.1193L32.6656 37.8216L32.7026 50.3553C32.7338 60.9019 32.71 62.8889 32.5518 62.8889C31.9658 62.8889 29.2456 62.4029 27.9186 62.0612C25.5605 61.454 21.5753 59.8063 21.5753 59.4386C21.5753 59.3627 21.7429 58.993 21.9478 58.6171C22.2416 58.0779 22.6004 57.7354 23.6484 56.9933C25.1555 55.9261 25.6655 55.3742 26.2319 54.1977C27.0788 52.4385 27.0507 50.4597 26.1538 48.6856C25.5256 47.4428 24.8336 46.6814 23.1599 45.391C21.1438 43.8367 20.7686 43.2218 21.0467 41.9268C21.2477 40.991 21.8767 40.4011 23.6359 39.4986C25.8236 38.3764 26.9695 37.1511 27.6056 35.2539C27.8699 34.4662 27.8984 34.1352 27.8553 32.355L27.8067 30.3451L31.3007 30.3029C34.5777 30.263 34.8285 30.2421 35.3425 29.9647C36.0707 29.5715 36.7029 28.8936 37.044 28.1399C37.3093 27.554 37.3229 27.259 37.3258 22.0333L37.3288 16.5424L37.774 16.4547C38.0189 16.4064 39.3904 16.3305 40.8219 16.2858C42.9934 16.218 43.8488 16.2539 45.9842 16.5023C49.4071 16.9007 50.1489 16.7795 51.7808 15.5552ZM49.1156 26.3084C50.0122 23.9152 53.8053 21.214 57.3973 20.4106C58.7707 20.1035 58.7893 20.1131 59.5941 21.5424C60.4575 23.0758 61.5725 25.8211 62.0514 27.5927C62.4897 29.2143 62.8985 31.7414 63.0195 33.578L63.1118 34.9803H59.2726C55.4901 34.9803 55.4237 34.9754 54.7715 34.6506C54.4074 34.4692 53.4007 34.0925 52.5342 33.8136C51.0863 33.3475 50.9022 33.2487 50.2575 32.5914C48.8237 31.1294 48.329 28.4078 49.1156 26.3084ZM7.02575 34.6809C7.11164 34.5952 8.77151 33.5816 10.7142 32.4286L14.2466 30.332L19.8189 30.3305L25.3912 30.3288L25.4855 31.0822C25.6592 32.4704 25.4982 34.4341 25.1571 35.089C24.6045 36.1502 23.956 36.7205 22.4819 37.4416C21.7196 37.8144 20.8036 38.3828 20.4464 38.7046C19.1066 39.9115 18.394 41.7714 18.689 43.2912C18.9681 44.728 19.6225 45.5842 21.6833 47.2088C23.8753 48.9365 24.4437 49.8 24.449 51.4109C24.4547 53.0894 23.9693 53.9001 22.2359 55.1078C20.8878 56.0472 20.2259 56.7319 19.783 57.6456C19.6252 57.9711 19.4592 58.2374 19.4141 58.2374C19.1507 58.2374 16.4874 56.0336 15.2005 54.7509C11.2019 50.7649 8.53795 45.7637 7.47027 40.238C7.08795 38.2599 6.81836 34.8881 7.02575 34.6809ZM35 38.1058L35.4004 37.7059L35.8008 37.306H51.3699H66.9389L67.3393 37.7059L67.7397 38.1058V50.1658V62.2259L67.3393 62.6258C66.9727 62.9919 66.8575 63.0257 65.9771 63.0257C65.1582 63.0257 64.9582 63.0746 64.631 63.3555C64.2482 63.6838 64.2464 63.694 64.2019 65.6128C64.1774 66.6729 64.1247 67.5403 64.0847 67.5403C64.0448 67.5403 62.301 66.5245 60.2096 65.283L56.407 63.0257H46.104H35.8008L35.4004 62.6258L35 62.2259V50.1658V38.1058Z" fill="black"/>
</svg>
