<svg width="70" height="76" viewBox="0 0 70 76" fill="none" xmlns="http://www.w3.org/2000/svg">
<path fill-rule="evenodd" clip-rule="evenodd" d="M33.7603 22.1666C32.7458 22.5712 32.541 22.8497 31.0692 25.8268L29.6212 28.7559L26.732 29.1662C23.3529 29.6458 22.7732 29.8606 22.1488 30.8641C21.6903 31.6009 21.5803 32.7026 21.8838 33.5166C21.9697 33.7467 23.055 34.9768 24.2956 36.25L26.5511 38.5651L26.0296 41.6373C25.5806 44.2822 25.5311 44.7977 25.6733 45.3422C25.9017 46.2168 26.4126 46.8512 27.2026 47.2411C28.32 47.7922 28.8625 47.6489 31.9468 45.9879L34.6354 44.54L37.5639 46.0614C40.4516 47.5618 40.5032 47.5816 41.2696 47.4891C42.5683 47.3323 43.3881 46.5952 43.769 45.2416C43.8614 44.9137 43.7527 43.9215 43.3764 41.6544L42.856 38.5208L44.9945 36.3765C46.1707 35.1972 47.258 33.984 47.4109 33.6808C48.0124 32.4874 47.5847 30.7694 46.5049 30.0411C46.025 29.7175 45.4718 29.5899 42.84 29.1962L39.7401 28.7326L38.4275 26.0238C37.7055 24.534 36.9507 23.1372 36.7502 22.9199C35.9874 22.0935 34.735 21.7779 33.7603 22.1666ZM31.0271 30.7932C31.2288 30.6639 31.951 29.3716 32.8874 27.4647C34.1105 24.9739 34.4763 24.3477 34.7083 24.3477C34.9404 24.3477 35.3061 24.9739 36.5292 27.4647C37.4656 29.3716 38.1878 30.6639 38.3895 30.7932C38.5708 30.9094 40.1516 31.2116 41.9022 31.4644C43.6528 31.7174 45.146 31.9627 45.2202 32.0095C45.5887 32.2415 45.1622 32.8126 42.9428 35.0597C41.6159 36.4031 40.5003 37.6361 40.4635 37.7996C40.4269 37.9631 40.6504 39.5848 40.9603 41.4032C41.4369 44.1999 41.4939 44.7497 41.3303 44.9706C41.1513 45.212 40.9078 45.1116 38.0856 43.6337C36.4075 42.7548 34.8892 42.0358 34.7118 42.0358C34.5345 42.0358 33.021 42.755 31.3487 43.6337C28.6295 45.0627 28.2845 45.2078 28.0843 45.0069C27.8832 44.805 27.9187 44.4386 28.4348 41.3974C28.8165 39.1487 28.9678 37.902 28.8859 37.6831C28.8181 37.5019 27.7048 36.2991 26.412 35.0101C24.2124 32.8171 23.8003 32.2589 24.1964 32.0095C24.2706 31.9627 25.7638 31.7174 27.5145 31.4644C29.2651 31.2116 30.8458 30.9094 31.0271 30.7932Z" fill="#FF8C00"/>
<path fill-rule="evenodd" clip-rule="evenodd" d="M32.8123 14.3334C27.791 14.9812 23.66 17.0161 20.1893 20.5512C17.1194 23.6781 15.1991 27.3446 14.338 31.7241C13.9492 33.7012 13.9821 37.8939 14.4018 39.8335C15.3556 44.2421 17.1669 47.6559 20.1893 50.7411C21.3167 51.8921 22.2934 52.7157 23.4415 53.4842L25.0823 54.5822V55.8632V57.144L24.3552 57.4789C23.4276 57.9062 22.4767 58.8489 22.0157 59.7983C21.6614 60.5279 21.6548 60.6081 21.6548 64.1831V67.8248L22.0479 68.5839C22.6303 69.709 23.0712 70.1735 24.0743 70.7184C24.8437 71.1362 25.1688 71.22 26.2696 71.284C27.153 71.3354 27.5617 71.4167 27.5617 71.5414C27.5617 71.6417 27.7922 72.1932 28.0736 72.7668C28.6958 74.0341 29.5711 74.8928 30.89 75.5296L31.8643 76H35H38.1358L39.11 75.5296C40.429 74.8928 41.3042 74.0341 41.9264 72.7668C42.2079 72.1932 42.4383 71.6417 42.4383 71.5414C42.4383 71.4167 42.847 71.3354 43.7304 71.284C44.8313 71.22 45.1564 71.1362 45.9257 70.7184C46.9289 70.1735 47.3698 69.709 47.9521 68.5839L48.3452 67.8248V64.1831V60.5415L47.9521 59.7824C47.3598 58.6381 46.9099 58.172 45.8671 57.6225L44.9188 57.1228L44.9183 55.8525L44.9178 54.5822L46.5586 53.4867C49.6672 51.4114 52.4357 48.1488 54.0144 44.7004C57.758 36.5229 56.0818 26.9401 49.7925 20.5622C46.7862 17.5137 42.9555 15.442 38.7921 14.6133C37.5919 14.3743 33.8516 14.1994 32.8123 14.3334ZM17.2988 29.7163C19.4292 23.0278 25.3277 17.9205 32.156 16.8526C42.3199 15.2627 51.9162 22.4928 53.448 32.8945C54.1513 37.6695 52.9371 42.7924 50.1717 46.718C49.0171 48.3567 47.0578 50.2737 45.3553 51.4303C44.513 52.0024 43.6675 52.6142 43.4765 52.7901C42.8358 53.3793 42.5909 54.1735 42.5874 55.6735L42.5842 57.0484H35H27.4159V55.7059C27.4159 53.5356 27.1456 53.0995 24.8635 51.5882C23.1213 50.4343 20.6667 47.9978 19.5827 46.3464C17.3813 42.9922 16.4117 39.7239 16.4076 35.6443C16.4051 33.0709 16.5615 32.0312 17.2988 29.7163ZM23.9849 61.2518C24.0947 60.6544 24.7082 59.8962 25.2938 59.634C25.6531 59.4732 27.5521 59.4412 35.1717 59.468C44.4459 59.5004 44.6116 59.5062 45.0074 59.8075C46.0014 60.5639 46.0116 60.6081 46.0116 64.1831C46.0116 67.232 45.9931 67.4566 45.7109 67.8419C45.0406 68.7569 44.7607 68.8592 42.7064 68.9396C40.9305 69.0092 40.7893 69.0367 40.529 69.3649C40.3759 69.5578 40.2506 69.918 40.2506 70.1651C40.2506 71.0637 39.9077 71.8259 39.1617 72.5863C38.1928 73.5738 37.734 73.6961 35 73.6961C32.2518 73.6961 31.8116 73.5767 30.8069 72.5588C29.6033 71.3397 29.6322 71.3178 32.4542 71.3178C34.8219 71.3178 34.8741 71.311 35.2254 70.9529C35.66 70.5101 35.6928 69.8535 35.3048 69.3649L35.0263 69.0139L30.2105 68.9396C25.6349 68.869 25.3746 68.85 24.9923 68.5588C24.0246 67.8218 23.9928 67.7013 23.9426 64.5815C23.9175 63.0135 23.9365 61.5152 23.9849 61.2518Z" fill="#0E0F13"/>
<path d="M31.7022 0.117529C30.3512 0.263345 28.0394 0.654267 27.2389 0.872321C26.2889 1.1311 26.2491 1.28866 26.2486 4.7976L26.2483 7.92304L25.0799 8.34354C23.725 8.83123 21.136 10.1144 19.9799 10.8713L19.1801 11.3948L18.5943 10.9123C15.9039 8.69582 14.4592 7.57344 14.1874 7.48812C13.7167 7.34052 13.2319 7.6543 11.5183 9.21546C8.71028 11.7737 5.77317 15.627 4.02328 19.0481C3.33574 20.3924 3.21061 20.9925 3.53308 21.3996C3.63342 21.5262 4.71635 22.4442 5.93959 23.4397C7.16297 24.4351 8.16379 25.324 8.16379 25.415C8.16379 25.5059 7.96981 26.1974 7.7328 26.9514C7.26273 28.4471 6.77851 30.7285 6.62202 32.1844C6.55055 32.8495 6.45618 33.1295 6.28583 33.1809C6.15559 33.2203 4.83478 33.5268 3.35077 33.8618L2.99648 33.9416C1.29435 34.3245 0.533994 34.4955 0.213567 34.966C-0.0451327 35.3459 -0.0170729 35.9211 0.0336416 36.9607C0.0378416 37.0468 0.042197 37.1361 0.0465578 37.2287C0.258039 41.7231 1.36168 46.4463 3.08445 50.23L3.14986 50.374C3.45405 51.0445 3.63409 51.4414 3.94177 51.63C4.38793 51.9035 5.10249 51.7391 6.85321 51.3364L7.11265 51.2768C8.61329 50.9324 9.9745 50.6146 10.1374 50.5706C10.3671 50.5086 10.5045 50.618 10.7477 51.0568C11.275 52.0082 12.7187 53.9266 14.0266 55.414L15.2688 56.8268L13.9773 59.5759C13.267 61.088 12.6857 62.4823 12.6855 62.6743C12.685 63.1095 13.2355 63.6411 14.9401 64.8505C16.5736 66.0098 17.9861 66.8587 18.2815 66.8587C18.7259 66.8587 19.2321 66.5143 19.402 66.0961C19.6844 65.4012 19.3872 64.933 18.1858 64.1805C17.6071 63.8179 16.7279 63.2335 16.2323 62.882L15.3311 62.2425L15.9597 60.8717C16.3055 60.1179 16.8915 58.8705 17.262 58.0998C17.6326 57.3289 17.9357 56.57 17.9357 56.413C17.9357 56.2549 17.3308 55.4879 16.5793 54.6928C14.8446 52.8578 13.8049 51.5311 12.7178 49.7651C12.2398 48.9885 11.6824 48.2561 11.4792 48.1376C11.1426 47.9413 10.8497 47.9823 8.17298 48.6008C5.37472 49.2472 5.2293 49.2663 5.09177 49.0044C4.6917 48.2426 3.8573 45.7607 3.4234 44.0425C2.92226 42.0571 2.57091 39.9076 2.39954 37.777C2.31116 36.6784 2.32705 36.5579 2.5712 36.4873C2.71924 36.4445 3.89041 36.1672 5.17388 35.8713C8.07044 35.2036 8.42427 35.0898 8.59185 34.7705C8.66565 34.6299 8.80071 33.8159 8.89187 32.9615C9.11254 30.8935 9.54104 28.9071 10.1567 27.0976C10.4349 26.28 10.6984 25.4619 10.7423 25.2794C10.9198 24.5414 10.6623 24.2206 8.48947 22.4717C7.30765 21.5206 6.25098 20.6571 6.14144 20.5531C5.97488 20.3948 6.08092 20.1235 6.78668 18.9011C7.72726 17.2726 8.74543 15.7678 9.73925 14.5375C10.5895 13.485 12.7451 11.2273 13.453 10.6479L14.002 10.1986L15.7137 11.5982C18.3107 13.7216 18.8109 14.0916 19.0851 14.0916C19.2237 14.0916 19.9242 13.712 20.6418 13.2478C22.2948 12.1789 25.0815 10.8154 26.6866 10.2904L26.8355 10.2419C27.5212 10.0185 27.938 9.88276 28.1913 9.60035C28.5838 9.16268 28.5835 8.37278 28.5827 6.35871L28.5827 6.07709V2.98434L29.6401 2.8143C31.4591 2.52163 33.4103 2.35426 35 2.35426C36.5898 2.35426 38.5409 2.52163 40.36 2.8143L41.4174 2.98434V6.07709L41.4173 6.35871C41.4165 8.37278 41.4162 9.16268 41.8087 9.60035C42.062 9.88276 42.4788 10.0185 43.1645 10.2419L43.3134 10.2904C44.9185 10.8154 47.7052 12.1789 49.3583 13.2478C50.0759 13.712 50.7764 14.0916 50.9149 14.0916C51.1866 14.0916 51.5854 13.7977 54.2645 11.6228L56.0086 10.207L56.5524 10.6522C57.2559 11.228 59.4134 13.4884 60.2608 14.5375C61.2546 15.7678 62.2728 17.2726 63.2134 18.9011C63.9182 20.1219 64.0249 20.3946 63.8586 20.5516C63.7491 20.6549 62.6906 21.5255 61.5068 22.4862C60.1281 23.6048 59.3224 24.3614 59.2661 24.5903C59.1589 25.0252 59.2024 25.2137 59.8434 27.0976C60.459 28.9071 60.8875 30.8935 61.1082 32.9615C61.1993 33.8159 61.3344 34.6299 61.4082 34.7705C61.5768 35.0917 61.9448 35.2097 64.8261 35.8666C66.1096 36.1592 67.2808 36.436 67.4288 36.4819C67.6727 36.5574 67.6889 36.6795 67.6005 37.777C67.4291 39.9076 67.0778 42.0571 66.5766 44.0425C66.1432 45.759 65.3085 48.2424 64.9093 49.0024C64.7731 49.2618 64.6193 49.2416 61.8298 48.5978C59.1482 47.9789 58.8617 47.9389 58.5226 48.1366C58.3184 48.2557 57.7602 48.9885 57.2822 49.7651C56.1951 51.5311 55.1555 52.8578 53.4207 54.6928C52.6692 55.4879 52.0644 56.2549 52.0644 56.413C52.0644 56.57 52.3674 57.3289 52.738 58.0998C53.1085 58.8705 53.6945 60.1179 54.0403 60.8717L54.6689 62.2425L53.7677 62.8839C53.2721 63.2366 52.3922 63.8237 51.8125 64.1886C50.6114 64.9446 50.3175 65.4062 50.598 66.0961C50.7678 66.5137 51.274 66.8587 51.7171 66.8587C52.0097 66.8587 52.9734 66.2885 54.7626 65.0571C56.6192 63.7791 57.3151 63.1302 57.3145 62.6767C57.3143 62.4833 56.7318 61.0877 56.0202 59.5753L54.7264 56.8255L55.7762 55.6364C57.5177 53.6639 57.9612 53.07 59.5795 50.5429C59.5934 50.5211 60.8888 50.8054 62.458 51.1747C64.0272 51.5439 65.4317 51.844 65.579 51.8413C66.0481 51.8331 66.3427 51.4737 66.9291 50.1947C68.628 46.49 69.7426 41.7117 69.9535 37.2287C69.9579 37.1354 69.9622 37.0456 69.9665 36.959C70.017 35.9245 70.0449 35.3516 69.7876 34.9721C69.4682 34.5009 68.709 34.3279 67.0072 33.9401L66.6493 33.8584C65.1652 33.5186 63.8444 33.2113 63.7142 33.1751C63.5428 33.1276 63.4499 32.8535 63.378 32.1844C63.2215 30.7285 62.7373 28.4471 62.2672 26.9514C62.0302 26.1974 61.8362 25.504 61.8362 25.4105C61.8362 25.3171 62.8044 24.4622 63.9875 23.5107C66.4843 21.5031 66.6493 21.3338 66.6493 20.7781C66.6493 19.7441 63.7528 15.0308 61.4439 12.3079C59.9775 10.5785 57.2916 8.00108 56.5419 7.60391C56.3061 7.47891 55.9981 7.43 55.8127 7.48812C55.5408 7.57344 54.0962 8.69582 51.4057 10.9123L50.82 11.3948L50.0201 10.8713C48.864 10.1144 46.275 8.83123 44.9201 8.34354L43.7517 7.92304L43.7514 4.75776C43.751 1.66056 43.7438 1.58505 43.4183 1.25328C42.5896 0.408714 35.4332 -0.284987 31.7022 0.117529Z" fill="#0E0F13"/>
</svg>
