<svg width="76" height="72" viewBox="0 0 76 72" fill="none" xmlns="http://www.w3.org/2000/svg">
<mask id="path-1-outside-1_3010_1549" maskUnits="userSpaceOnUse" x="14.4692" y="9" width="49" height="63" fill="black">
<rect fill="white" x="14.4692" y="9" width="49" height="63"/>
<path fill-rule="evenodd" clip-rule="evenodd" d="M36.4358 11.5627C37.232 10.7702 37.8696 10.2645 38.2326 10.1373C39.2433 9.78326 39.8184 10.0569 41.3752 11.6324C42.7651 13.0391 42.8956 13.0594 44.6872 12.1452C46.3651 11.289 46.993 11.2679 47.7667 12.0416C48.474 12.7489 48.7635 13.7204 48.8697 15.7435C48.9736 17.7249 48.6998 19.1181 47.9657 20.3435C47.37 21.3377 46.3568 22.4117 45.5048 22.9524C45.1694 23.165 44.8951 23.3714 44.8951 23.4109C44.8951 23.4503 45.1794 23.6623 45.5272 23.8819C47.299 25.0013 48.0906 27.4793 47.3249 29.5091C47.0914 30.1281 46.7693 30.6004 46.1751 31.1945C45.7212 31.6485 45.3927 32.044 45.4451 32.0733C45.4974 32.1027 45.9924 32.272 46.5449 32.4498C52.1184 34.2423 57.4483 39.0467 60.0866 44.6557C61.6116 47.8982 62.2661 50.8758 62.2684 54.5813C62.2714 59.4224 60.9286 62.9738 58.0698 65.6849C56.3662 67.3007 54.6214 68.3181 51.9743 69.2394C47.9769 70.6309 41.8712 71.2739 35.8892 70.9333C30.0236 70.5995 26.3354 69.7828 23.0517 68.0906C19.0218 66.014 16.4756 62.5259 15.6917 58.0079C15.3915 56.2779 15.3958 52.8605 15.7005 50.9353C16.3308 46.9523 18.1382 42.9426 20.7518 39.7293C22.7208 37.3083 25.827 34.8537 28.5843 33.5397C29.6923 33.0115 30.3002 32.7704 32.2246 32.0956C32.3251 32.0603 32.0459 31.6815 31.5662 31.2017C30.965 30.6005 30.6434 30.13 30.4092 29.5091C29.6435 27.4793 30.4351 25.0013 32.2069 23.8819C32.5547 23.6623 32.8375 23.4503 32.8355 23.4109C32.8337 23.3714 32.5086 23.1197 32.1132 22.8513C30.5197 21.7702 29.2754 19.931 28.9479 18.1727C28.7416 17.0645 28.8742 14.3966 29.1866 13.3691C29.3424 12.8564 29.6137 12.3953 29.9674 12.0416C30.7411 11.2679 31.369 11.289 33.0469 12.1452C34.8441 13.0622 34.947 13.0446 36.4358 11.5627ZM37.2497 12.354C37.6237 11.9381 38.1244 11.4791 38.3625 11.3339C38.6006 11.1887 38.8147 11.0697 38.8383 11.0694C39.0862 11.0663 39.829 11.6413 40.4385 12.3082C41.6852 13.6723 42.0956 13.9391 42.9475 13.9391C43.5432 13.9391 43.9329 13.8129 44.9428 13.2933C46.4014 12.5427 46.7968 12.4943 47.1435 13.0236C47.7252 13.9112 47.9562 16.8669 47.5603 18.3541C47.1359 19.9482 45.8237 21.5224 44.1292 22.47L43.2166 22.9803H38.85H34.4833L33.5544 22.4422C31.8495 21.4544 30.5954 19.938 30.1738 18.3541C29.7779 16.8669 30.0089 13.9112 30.5906 13.0236C30.9373 12.4943 31.3327 12.5427 32.7913 13.2933C33.8012 13.8129 34.1909 13.9391 34.7866 13.9391C35.6324 13.9391 36.0884 13.6457 37.2497 12.354ZM31.4297 26.684C31.7288 25.6857 32.8598 24.6131 33.9868 24.2589C34.1845 24.1967 36.4776 24.1581 39.0823 24.1731C43.6658 24.1993 43.8373 24.2104 44.4106 24.5171C45.1799 24.9285 46.0907 25.9707 46.3044 26.684C46.6882 27.9649 46.3648 29.4308 45.496 30.3487C45.2836 30.5731 44.7869 30.9283 44.3923 31.138L43.6747 31.5193H38.8671H34.0594L33.3418 31.138C32.9472 30.9283 32.4505 30.5731 32.2381 30.3487C31.3693 29.4308 31.0459 27.9649 31.4297 26.684ZM16.8988 50.805C18.4114 42.002 25.1381 34.8977 33.9159 32.833C34.0737 32.796 36.4309 32.776 39.1541 32.7888L44.1052 32.8122L45.5404 33.296C51.5455 35.3204 56.0579 39.1761 58.745 44.5789C60.4355 47.9777 61.119 50.8497 61.1192 54.553C61.1192 59.8401 59.576 63.2957 56.0259 65.9573C54.5202 67.0862 51.6764 68.2902 49.1282 68.8778C43.4109 70.1957 34.3232 70.1957 28.6059 68.8778C22.65 67.5047 18.8265 64.4902 17.3497 60.0033C16.5555 57.5906 16.373 53.8657 16.8988 50.805Z"/>
<path d="M38.4652 39.3694C38.3527 39.4819 38.293 40.0752 38.293 41.0814V42.6211L37.4681 42.7925C36.2075 43.0541 35.2131 43.5567 34.3606 44.3629C32.4618 46.1588 32.4509 48.772 34.3351 50.5088C35.479 51.5634 36.7111 52.009 39.1192 52.2393C40.8755 52.4073 41.8665 52.8069 42.7277 53.6945C44.6004 55.624 43.5064 58.3543 40.5117 59.225C37.8058 60.0116 34.6479 58.6062 34.1268 56.3833C33.9215 55.5076 33.7669 55.2705 33.4011 55.2705C32.4239 55.2705 32.9943 57.5779 34.2922 58.8759C34.9789 59.5626 36.3197 60.2295 37.4678 60.4555L38.293 60.6178V62.0943C38.293 63.8569 38.3429 64.0248 38.8671 64.0248C39.3912 64.0248 39.4411 63.8569 39.4411 62.0943V60.6178L40.2882 60.4512C42.1444 60.086 43.7611 58.914 44.4329 57.4466C45.4896 55.1387 44.2221 52.6318 41.4452 51.5372C40.9981 51.361 40.0457 51.1795 39.1106 51.0921C36.6514 50.8624 35.249 50.1925 34.4795 48.8794C33.4647 47.1478 34.4401 45.091 36.703 44.191C37.3325 43.9407 37.7952 43.8725 38.8671 43.8725C40.4658 43.8725 41.4649 44.1954 42.4342 45.0249C43.1328 45.623 43.4422 46.1607 43.6642 47.1621C43.8021 47.7841 43.8743 47.8856 44.2058 47.9242C44.7332 47.9854 44.903 47.6209 44.7437 46.7686C44.3811 44.8269 42.6464 43.2866 40.266 42.7925L39.4411 42.6211V41.0814C39.4411 39.5151 39.3442 39.1972 38.8671 39.1972C38.7408 39.1972 38.5599 39.2747 38.4652 39.3694Z"/>
</mask>
<path fill-rule="evenodd" clip-rule="evenodd" d="M36.4358 11.5627C37.232 10.7702 37.8696 10.2645 38.2326 10.1373C39.2433 9.78326 39.8184 10.0569 41.3752 11.6324C42.7651 13.0391 42.8956 13.0594 44.6872 12.1452C46.3651 11.289 46.993 11.2679 47.7667 12.0416C48.474 12.7489 48.7635 13.7204 48.8697 15.7435C48.9736 17.7249 48.6998 19.1181 47.9657 20.3435C47.37 21.3377 46.3568 22.4117 45.5048 22.9524C45.1694 23.165 44.8951 23.3714 44.8951 23.4109C44.8951 23.4503 45.1794 23.6623 45.5272 23.8819C47.299 25.0013 48.0906 27.4793 47.3249 29.5091C47.0914 30.1281 46.7693 30.6004 46.1751 31.1945C45.7212 31.6485 45.3927 32.044 45.4451 32.0733C45.4974 32.1027 45.9924 32.272 46.5449 32.4498C52.1184 34.2423 57.4483 39.0467 60.0866 44.6557C61.6116 47.8982 62.2661 50.8758 62.2684 54.5813C62.2714 59.4224 60.9286 62.9738 58.0698 65.6849C56.3662 67.3007 54.6214 68.3181 51.9743 69.2394C47.9769 70.6309 41.8712 71.2739 35.8892 70.9333C30.0236 70.5995 26.3354 69.7828 23.0517 68.0906C19.0218 66.014 16.4756 62.5259 15.6917 58.0079C15.3915 56.2779 15.3958 52.8605 15.7005 50.9353C16.3308 46.9523 18.1382 42.9426 20.7518 39.7293C22.7208 37.3083 25.827 34.8537 28.5843 33.5397C29.6923 33.0115 30.3002 32.7704 32.2246 32.0956C32.3251 32.0603 32.0459 31.6815 31.5662 31.2017C30.965 30.6005 30.6434 30.13 30.4092 29.5091C29.6435 27.4793 30.4351 25.0013 32.2069 23.8819C32.5547 23.6623 32.8375 23.4503 32.8355 23.4109C32.8337 23.3714 32.5086 23.1197 32.1132 22.8513C30.5197 21.7702 29.2754 19.931 28.9479 18.1727C28.7416 17.0645 28.8742 14.3966 29.1866 13.3691C29.3424 12.8564 29.6137 12.3953 29.9674 12.0416C30.7411 11.2679 31.369 11.289 33.0469 12.1452C34.8441 13.0622 34.947 13.0446 36.4358 11.5627ZM37.2497 12.354C37.6237 11.9381 38.1244 11.4791 38.3625 11.3339C38.6006 11.1887 38.8147 11.0697 38.8383 11.0694C39.0862 11.0663 39.829 11.6413 40.4385 12.3082C41.6852 13.6723 42.0956 13.9391 42.9475 13.9391C43.5432 13.9391 43.9329 13.8129 44.9428 13.2933C46.4014 12.5427 46.7968 12.4943 47.1435 13.0236C47.7252 13.9112 47.9562 16.8669 47.5603 18.3541C47.1359 19.9482 45.8237 21.5224 44.1292 22.47L43.2166 22.9803H38.85H34.4833L33.5544 22.4422C31.8495 21.4544 30.5954 19.938 30.1738 18.3541C29.7779 16.8669 30.0089 13.9112 30.5906 13.0236C30.9373 12.4943 31.3327 12.5427 32.7913 13.2933C33.8012 13.8129 34.1909 13.9391 34.7866 13.9391C35.6324 13.9391 36.0884 13.6457 37.2497 12.354ZM31.4297 26.684C31.7288 25.6857 32.8598 24.6131 33.9868 24.2589C34.1845 24.1967 36.4776 24.1581 39.0823 24.1731C43.6658 24.1993 43.8373 24.2104 44.4106 24.5171C45.1799 24.9285 46.0907 25.9707 46.3044 26.684C46.6882 27.9649 46.3648 29.4308 45.496 30.3487C45.2836 30.5731 44.7869 30.9283 44.3923 31.138L43.6747 31.5193H38.8671H34.0594L33.3418 31.138C32.9472 30.9283 32.4505 30.5731 32.2381 30.3487C31.3693 29.4308 31.0459 27.9649 31.4297 26.684ZM16.8988 50.805C18.4114 42.002 25.1381 34.8977 33.9159 32.833C34.0737 32.796 36.4309 32.776 39.1541 32.7888L44.1052 32.8122L45.5404 33.296C51.5455 35.3204 56.0579 39.1761 58.745 44.5789C60.4355 47.9777 61.119 50.8497 61.1192 54.553C61.1192 59.8401 59.576 63.2957 56.0259 65.9573C54.5202 67.0862 51.6764 68.2902 49.1282 68.8778C43.4109 70.1957 34.3232 70.1957 28.6059 68.8778C22.65 67.5047 18.8265 64.4902 17.3497 60.0033C16.5555 57.5906 16.373 53.8657 16.8988 50.805Z" fill="black"/>
<path d="M38.4652 39.3694C38.3527 39.4819 38.293 40.0752 38.293 41.0814V42.6211L37.4681 42.7925C36.2075 43.0541 35.2131 43.5567 34.3606 44.3629C32.4618 46.1588 32.4509 48.772 34.3351 50.5088C35.479 51.5634 36.7111 52.009 39.1192 52.2393C40.8755 52.4073 41.8665 52.8069 42.7277 53.6945C44.6004 55.624 43.5064 58.3543 40.5117 59.225C37.8058 60.0116 34.6479 58.6062 34.1268 56.3833C33.9215 55.5076 33.7669 55.2705 33.4011 55.2705C32.4239 55.2705 32.9943 57.5779 34.2922 58.8759C34.9789 59.5626 36.3197 60.2295 37.4678 60.4555L38.293 60.6178V62.0943C38.293 63.8569 38.3429 64.0248 38.8671 64.0248C39.3912 64.0248 39.4411 63.8569 39.4411 62.0943V60.6178L40.2882 60.4512C42.1444 60.086 43.7611 58.914 44.4329 57.4466C45.4896 55.1387 44.2221 52.6318 41.4452 51.5372C40.9981 51.361 40.0457 51.1795 39.1106 51.0921C36.6514 50.8624 35.249 50.1925 34.4795 48.8794C33.4647 47.1478 34.4401 45.091 36.703 44.191C37.3325 43.9407 37.7952 43.8725 38.8671 43.8725C40.4658 43.8725 41.4649 44.1954 42.4342 45.0249C43.1328 45.623 43.4422 46.1607 43.6642 47.1621C43.8021 47.7841 43.8743 47.8856 44.2058 47.9242C44.7332 47.9854 44.903 47.6209 44.7437 46.7686C44.3811 44.8269 42.6464 43.2866 40.266 42.7925L39.4411 42.6211V41.0814C39.4411 39.5151 39.3442 39.1972 38.8671 39.1972C38.7408 39.1972 38.5599 39.2747 38.4652 39.3694Z" fill="black"/>
<path fill-rule="evenodd" clip-rule="evenodd" d="M36.4358 11.5627C37.232 10.7702 37.8696 10.2645 38.2326 10.1373C39.2433 9.78326 39.8184 10.0569 41.3752 11.6324C42.7651 13.0391 42.8956 13.0594 44.6872 12.1452C46.3651 11.289 46.993 11.2679 47.7667 12.0416C48.474 12.7489 48.7635 13.7204 48.8697 15.7435C48.9736 17.7249 48.6998 19.1181 47.9657 20.3435C47.37 21.3377 46.3568 22.4117 45.5048 22.9524C45.1694 23.165 44.8951 23.3714 44.8951 23.4109C44.8951 23.4503 45.1794 23.6623 45.5272 23.8819C47.299 25.0013 48.0906 27.4793 47.3249 29.5091C47.0914 30.1281 46.7693 30.6004 46.1751 31.1945C45.7212 31.6485 45.3927 32.044 45.4451 32.0733C45.4974 32.1027 45.9924 32.272 46.5449 32.4498C52.1184 34.2423 57.4483 39.0467 60.0866 44.6557C61.6116 47.8982 62.2661 50.8758 62.2684 54.5813C62.2714 59.4224 60.9286 62.9738 58.0698 65.6849C56.3662 67.3007 54.6214 68.3181 51.9743 69.2394C47.9769 70.6309 41.8712 71.2739 35.8892 70.9333C30.0236 70.5995 26.3354 69.7828 23.0517 68.0906C19.0218 66.014 16.4756 62.5259 15.6917 58.0079C15.3915 56.2779 15.3958 52.8605 15.7005 50.9353C16.3308 46.9523 18.1382 42.9426 20.7518 39.7293C22.7208 37.3083 25.827 34.8537 28.5843 33.5397C29.6923 33.0115 30.3002 32.7704 32.2246 32.0956C32.3251 32.0603 32.0459 31.6815 31.5662 31.2017C30.965 30.6005 30.6434 30.13 30.4092 29.5091C29.6435 27.4793 30.4351 25.0013 32.2069 23.8819C32.5547 23.6623 32.8375 23.4503 32.8355 23.4109C32.8337 23.3714 32.5086 23.1197 32.1132 22.8513C30.5197 21.7702 29.2754 19.931 28.9479 18.1727C28.7416 17.0645 28.8742 14.3966 29.1866 13.3691C29.3424 12.8564 29.6137 12.3953 29.9674 12.0416C30.7411 11.2679 31.369 11.289 33.0469 12.1452C34.8441 13.0622 34.947 13.0446 36.4358 11.5627ZM37.2497 12.354C37.6237 11.9381 38.1244 11.4791 38.3625 11.3339C38.6006 11.1887 38.8147 11.0697 38.8383 11.0694C39.0862 11.0663 39.829 11.6413 40.4385 12.3082C41.6852 13.6723 42.0956 13.9391 42.9475 13.9391C43.5432 13.9391 43.9329 13.8129 44.9428 13.2933C46.4014 12.5427 46.7968 12.4943 47.1435 13.0236C47.7252 13.9112 47.9562 16.8669 47.5603 18.3541C47.1359 19.9482 45.8237 21.5224 44.1292 22.47L43.2166 22.9803H38.85H34.4833L33.5544 22.4422C31.8495 21.4544 30.5954 19.938 30.1738 18.3541C29.7779 16.8669 30.0089 13.9112 30.5906 13.0236C30.9373 12.4943 31.3327 12.5427 32.7913 13.2933C33.8012 13.8129 34.1909 13.9391 34.7866 13.9391C35.6324 13.9391 36.0884 13.6457 37.2497 12.354ZM31.4297 26.684C31.7288 25.6857 32.8598 24.6131 33.9868 24.2589C34.1845 24.1967 36.4776 24.1581 39.0823 24.1731C43.6658 24.1993 43.8373 24.2104 44.4106 24.5171C45.1799 24.9285 46.0907 25.9707 46.3044 26.684C46.6882 27.9649 46.3648 29.4308 45.496 30.3487C45.2836 30.5731 44.7869 30.9283 44.3923 31.138L43.6747 31.5193H38.8671H34.0594L33.3418 31.138C32.9472 30.9283 32.4505 30.5731 32.2381 30.3487C31.3693 29.4308 31.0459 27.9649 31.4297 26.684ZM16.8988 50.805C18.4114 42.002 25.1381 34.8977 33.9159 32.833C34.0737 32.796 36.4309 32.776 39.1541 32.7888L44.1052 32.8122L45.5404 33.296C51.5455 35.3204 56.0579 39.1761 58.745 44.5789C60.4355 47.9777 61.119 50.8497 61.1192 54.553C61.1192 59.8401 59.576 63.2957 56.0259 65.9573C54.5202 67.0862 51.6764 68.2902 49.1282 68.8778C43.4109 70.1957 34.3232 70.1957 28.6059 68.8778C22.65 67.5047 18.8265 64.4902 17.3497 60.0033C16.5555 57.5906 16.373 53.8657 16.8988 50.805Z" stroke="#0E0F13" mask="url(#path-1-outside-1_3010_1549)"/>
<path d="M38.4652 39.3694C38.3527 39.4819 38.293 40.0752 38.293 41.0814V42.6211L37.4681 42.7925C36.2075 43.0541 35.2131 43.5567 34.3606 44.3629C32.4618 46.1588 32.4509 48.772 34.3351 50.5088C35.479 51.5634 36.7111 52.009 39.1192 52.2393C40.8755 52.4073 41.8665 52.8069 42.7277 53.6945C44.6004 55.624 43.5064 58.3543 40.5117 59.225C37.8058 60.0116 34.6479 58.6062 34.1268 56.3833C33.9215 55.5076 33.7669 55.2705 33.4011 55.2705C32.4239 55.2705 32.9943 57.5779 34.2922 58.8759C34.9789 59.5626 36.3197 60.2295 37.4678 60.4555L38.293 60.6178V62.0943C38.293 63.8569 38.3429 64.0248 38.8671 64.0248C39.3912 64.0248 39.4411 63.8569 39.4411 62.0943V60.6178L40.2882 60.4512C42.1444 60.086 43.7611 58.914 44.4329 57.4466C45.4896 55.1387 44.2221 52.6318 41.4452 51.5372C40.9981 51.361 40.0457 51.1795 39.1106 51.0921C36.6514 50.8624 35.249 50.1925 34.4795 48.8794C33.4647 47.1478 34.4401 45.091 36.703 44.191C37.3325 43.9407 37.7952 43.8725 38.8671 43.8725C40.4658 43.8725 41.4649 44.1954 42.4342 45.0249C43.1328 45.623 43.4422 46.1607 43.6642 47.1621C43.8021 47.7841 43.8743 47.8856 44.2058 47.9242C44.7332 47.9854 44.903 47.6209 44.7437 46.7686C44.3811 44.8269 42.6464 43.2866 40.266 42.7925L39.4411 42.6211V41.0814C39.4411 39.5151 39.3442 39.1972 38.8671 39.1972C38.7408 39.1972 38.5599 39.2747 38.4652 39.3694Z" stroke="#0E0F13" mask="url(#path-1-outside-1_3010_1549)"/>
<path fill-rule="evenodd" clip-rule="evenodd" d="M11.9159 1.17939C11.6158 1.41547 1.46924 18.0004 1.46924 18.2549C1.46924 18.745 1.78008 18.7955 4.79872 18.7955H7.78377V27.7395C7.78377 37.8345 7.74803 37.4765 8.88006 38.7356C11.002 41.0957 14.6335 40.6613 16.1841 37.8618L16.6098 37.0933L16.6497 27.9444L16.6897 18.7955H19.6706C22.6592 18.7955 22.996 18.7427 22.996 18.2744C22.996 18.0399 12.8269 1.41016 12.5425 1.17939C12.4208 1.0808 12.2814 1 12.2326 1C12.1838 1 12.0413 1.0808 11.9159 1.17939ZM3.11446 17.5756L7.62188 10.2153C10.1011 6.16729 12.1823 2.87369 12.2467 2.89622C12.3571 2.93497 21.0827 17.0822 21.2341 17.468C21.289 17.6076 20.7145 17.6474 18.6445 17.6474C16.4176 17.6474 15.9477 17.6841 15.7589 17.8729C15.5587 18.0732 15.5333 19.1283 15.532 27.3088L15.5305 36.5192L15.1887 37.2536C14.3658 39.0208 12.1263 39.6557 10.4547 38.5956C9.60709 38.0581 9.10092 37.2698 8.92899 36.2194C8.8502 35.7387 8.78964 31.5632 8.78921 26.581C8.78878 21.7465 8.77213 17.7783 8.75247 17.7628C8.73281 17.7473 7.45613 17.6988 5.91553 17.6551L3.11446 17.5756Z" fill="#FF8C00"/>
<path fill-rule="evenodd" clip-rule="evenodd" d="M63.8734 1.17939C63.5887 1.40958 53.4206 18.0388 53.4206 18.2741C53.4206 18.7427 53.7571 18.7955 56.746 18.7955H59.7269L59.767 27.9444L59.8069 37.0933L60.1359 37.7097C61.0198 39.3649 62.4057 40.2314 64.1848 40.2411C65.5509 40.2482 66.6002 39.7771 67.5366 38.7356C67.7487 38.4997 67.9198 38.3205 68.0578 38.1187C68.6565 37.2436 68.6329 35.9429 68.6329 27.7395V18.7955H71.6179C74.6365 18.7955 74.9474 18.745 74.9474 18.2549C74.9474 18.0004 64.8008 1.41547 64.5007 1.17939C64.3753 1.0808 64.2328 1 64.184 1C64.1352 1 63.9956 1.0808 63.8734 1.17939ZM55.1427 17.5619C55.1427 17.5149 57.1579 14.188 59.621 10.1688C62.084 6.14979 64.1531 2.87929 64.2191 2.90125C64.2852 2.92335 66.3559 6.23403 68.8209 10.2585L73.3026 17.5756L70.5014 17.6551C68.9606 17.6988 67.687 17.7473 67.6709 17.7628C67.6548 17.7783 67.6225 22.0049 67.5991 27.1551L67.5565 36.5192L67.2207 37.2011C66.5386 38.5861 64.974 39.3645 63.5241 39.0402C62.5119 38.8136 61.6889 38.1904 61.2451 37.3147L60.8832 36.6005V27.4016C60.8832 21.3349 60.8327 18.1081 60.7347 17.9249C60.5958 17.6655 60.4083 17.6474 57.8644 17.6474C56.3675 17.6474 55.1427 17.6089 55.1427 17.5619Z" fill="#FF8C00"/>
<path d="M11.7614 0.982842L11.7613 0.982905C11.7326 1.00549 11.7101 1.03311 11.7013 1.04395L11.701 1.04427C11.6876 1.06068 11.6729 1.08006 11.6577 1.10091C11.627 1.14293 11.588 1.19918 11.5419 1.26738C11.4495 1.40426 11.3239 1.59653 11.1705 1.83532C10.8635 2.3133 10.4418 2.9826 9.94492 3.7789C8.95096 5.37176 7.65409 7.47564 6.36679 9.57978C5.07949 11.6839 3.80137 13.789 2.84492 15.3841C2.36678 16.1816 1.96857 16.8524 1.68967 17.3322C1.55037 17.5718 1.44 17.7652 1.36411 17.9035C1.32637 17.9722 1.29584 18.0297 1.27425 18.0734C1.26364 18.0948 1.25351 18.1163 1.24549 18.1358C1.24155 18.1453 1.23662 18.158 1.23229 18.1719L1.23211 18.1725C1.22945 18.1811 1.21924 18.2139 1.21924 18.2549C1.21924 18.3995 1.241 18.5809 1.39135 18.726C1.526 18.856 1.72566 18.9174 1.96192 18.9557C2.44197 19.0337 3.29961 19.0455 4.79872 19.0455H7.53377V27.7395C7.53377 28.0562 7.53373 28.3628 7.53369 28.6595C7.53316 33.081 7.5329 35.3145 7.65864 36.5758C7.72619 37.2534 7.83212 37.6786 8.00914 38.0208C8.1619 38.316 8.3639 38.5386 8.59475 38.7929C8.62732 38.8288 8.66047 38.8653 8.69414 38.9028L8.88006 38.7356L8.69415 38.9028C10.9332 41.3931 14.7705 40.9297 16.4028 37.9829L16.1841 37.8618L16.4028 37.9829L16.8285 37.2144L16.8595 37.1584L16.8598 37.0944L16.8996 27.9455L16.9386 19.0455H19.6706C21.1555 19.0455 22.0109 19.033 22.4928 18.9575C22.7294 18.9204 22.9285 18.8617 23.0644 18.7388C23.2197 18.5983 23.246 18.4202 23.246 18.2744C23.246 18.2319 23.2349 18.1978 23.2324 18.1899L23.2321 18.1892C23.2277 18.1755 23.2228 18.1632 23.2189 18.154C23.2109 18.1352 23.2009 18.1143 23.1903 18.0932C23.1688 18.0504 23.1383 17.9936 23.1005 17.9253C23.0246 17.788 22.914 17.5953 22.7745 17.356C22.4951 16.877 22.0961 16.2062 21.617 15.4082C20.6587 13.8117 19.3783 11.7032 18.0892 9.59507C16.8001 7.48694 15.5019 5.37864 14.5081 3.78271C14.0112 2.98486 13.59 2.31441 13.2839 1.83587C13.131 1.59678 13.0061 1.40445 12.9145 1.26771C12.8688 1.19956 12.8303 1.14353 12.8003 1.10182C12.7853 1.08112 12.7711 1.06199 12.7582 1.04588L12.7577 1.04534C12.7493 1.03483 12.7275 1.00759 12.7 0.985248L12.6999 0.985137C12.6297 0.928306 12.5538 0.875926 12.4855 0.836393C12.4516 0.816747 12.4158 0.798055 12.3809 0.783473C12.3547 0.772561 12.2978 0.75 12.2326 0.75C12.168 0.75 12.1111 0.772263 12.0852 0.782928C12.0502 0.797283 12.0142 0.815731 11.9798 0.835207C11.9106 0.8744 11.8332 0.926401 11.7614 0.982842ZM12.0543 3.59857C12.1243 3.49224 12.1854 3.40066 12.2372 3.32449C12.2954 3.41421 12.3659 3.52397 12.4476 3.65205C12.6964 4.04238 13.0464 4.59893 13.4642 5.26764C14.2998 6.60486 15.4053 8.38851 16.5122 10.1832C17.6192 11.9779 18.7273 13.7833 19.568 15.1639C19.9884 15.8543 20.3417 16.438 20.5944 16.861C20.7143 17.0615 20.8111 17.2252 20.8817 17.3467C20.8359 17.3516 20.782 17.3563 20.7188 17.3607C20.3334 17.3874 19.681 17.3974 18.6445 17.3974C17.5335 17.3974 16.849 17.4064 16.4179 17.4401C16.005 17.4724 15.7493 17.529 15.5822 17.696L15.582 17.6961C15.5178 17.7604 15.4794 17.8408 15.4529 17.9262C15.4266 18.0112 15.4069 18.1179 15.3909 18.2516C15.3588 18.5195 15.3367 18.9364 15.3209 19.5923C15.2893 20.9073 15.2826 23.2198 15.282 27.3087L15.2806 36.4639L14.9621 37.148C14.2047 38.7745 12.1365 39.3661 10.5886 38.3844L10.4547 38.5956L10.5885 38.3844C9.80522 37.8877 9.3369 37.1638 9.17571 36.1791L9.1757 36.179C9.15933 36.0791 9.14086 35.7483 9.12385 35.2034C9.10715 34.6685 9.0922 33.9474 9.07969 33.0846C9.05467 31.3594 9.03943 29.0712 9.03921 26.581C9.039 24.1635 9.03473 21.9625 9.02805 20.3637C9.02471 19.5644 9.02077 18.9153 9.01644 18.4649C9.01427 18.2398 9.01199 18.0637 9.00963 17.943C9.00845 17.8828 9.00723 17.8351 9.00593 17.8016C9.0053 17.7853 9.00456 17.7698 9.00361 17.757C9.00318 17.7513 9.0024 17.7417 9.00093 17.7314C9.0003 17.727 8.99866 17.7158 8.99521 17.7022C8.99359 17.6958 8.98988 17.6821 8.98288 17.6656L8.98257 17.6648C8.97864 17.6555 8.95814 17.6066 8.90724 17.5664C8.88034 17.5452 8.85536 17.5347 8.84623 17.5309C8.83432 17.5261 8.8243 17.523 8.81837 17.5214C8.80648 17.518 8.79648 17.5161 8.79131 17.5152C8.78023 17.5132 8.76965 17.5119 8.76228 17.5111C8.74651 17.5093 8.72714 17.5077 8.70625 17.5062C8.66365 17.5031 8.60396 17.4996 8.53018 17.4959C8.38209 17.4884 8.1713 17.4795 7.91383 17.4697C7.39862 17.4501 6.69346 17.4271 5.9226 17.4052L3.55315 17.338L7.83508 10.3459C9.07425 8.32256 10.2137 6.48819 11.0512 5.16286C11.47 4.5 11.8127 3.96547 12.0543 3.59857ZM21.0858 17.3106C21.0859 17.3107 21.085 17.3111 21.0832 17.3118C21.0848 17.311 21.0857 17.3106 21.0858 17.3106ZM63.7164 0.984867L63.7163 0.984978C63.6886 1.00734 63.6667 1.03463 63.6583 1.04516L63.6578 1.04574C63.6449 1.06186 63.6306 1.081 63.6157 1.1017C63.5856 1.14341 63.5471 1.19943 63.5014 1.26757C63.4098 1.40428 63.2849 1.59658 63.1319 1.83564C62.8258 2.31412 62.4047 2.98451 61.9078 3.7823C60.9141 5.37811 59.616 7.48632 58.3269 9.5944C57.0379 11.7025 55.7576 13.811 54.7994 15.4075C54.3204 16.2056 53.9215 16.8764 53.6421 17.3555C53.5025 17.5948 53.392 17.7876 53.3161 17.9249C53.2783 17.9932 53.2478 18.05 53.2263 18.0929C53.2157 18.114 53.2057 18.135 53.1977 18.1538C53.1938 18.163 53.1889 18.1753 53.1845 18.189L53.1842 18.1897C53.1817 18.1976 53.1706 18.2317 53.1706 18.2741C53.1706 18.4199 53.1968 18.598 53.3521 18.7386C53.488 18.8616 53.6871 18.9204 53.9237 18.9575C54.4056 19.033 55.261 19.0455 56.746 19.0455H59.478L59.517 27.9455L59.5569 37.0944L59.5571 37.1563L59.5863 37.211L59.9154 37.8274L60.1359 37.7097L59.9154 37.8274C60.8396 39.5582 62.3065 40.4809 64.1835 40.4911C65.623 40.4986 66.7397 39.9958 67.7225 38.9028C67.7553 38.8663 67.7877 38.8306 67.8195 38.7954C67.986 38.6119 68.1382 38.4441 68.2642 38.2599C68.6067 37.7592 68.7505 37.1512 68.8195 35.689C68.8836 34.3328 68.8833 32.1937 68.8829 28.6437C68.8829 28.3519 68.8829 28.0506 68.8829 27.7395V19.0455H71.6179C73.117 19.0455 73.9747 19.0337 74.4547 18.9557C74.691 18.9174 74.8906 18.856 75.0253 18.726C75.1756 18.5809 75.1974 18.3995 75.1974 18.2549C75.1974 18.2139 75.1872 18.1811 75.1845 18.1725L75.1843 18.1719C75.18 18.158 75.1751 18.1453 75.1711 18.1358C75.1631 18.1163 75.153 18.0948 75.1424 18.0734C75.1208 18.0297 75.0903 17.9722 75.0525 17.9035C74.9766 17.7652 74.8663 17.5718 74.727 17.3322C74.4481 16.8524 74.0498 16.1816 73.5717 15.3841C72.6153 13.789 71.3371 11.6839 70.0498 9.57978C68.7625 7.47564 67.4657 5.37176 66.4717 3.7789C65.9748 2.9826 65.5531 2.3133 65.2461 1.83532C65.0927 1.59653 64.9671 1.40426 64.8747 1.26738C64.8286 1.19918 64.7896 1.14293 64.7589 1.10091C64.7437 1.08006 64.729 1.06068 64.7156 1.04427L64.7154 1.04396C64.7065 1.03313 64.684 1.0055 64.6553 0.982905L64.6552 0.982841C64.5834 0.926401 64.506 0.874401 64.4368 0.835209C64.4025 0.815732 64.3664 0.797285 64.3314 0.782929C64.3055 0.772264 64.2486 0.75 64.184 0.75C64.1189 0.75 64.0619 0.772534 64.0358 0.78342C64.0009 0.797979 63.9651 0.816646 63.9311 0.836272C63.8628 0.875766 63.7867 0.928096 63.7164 0.984867ZM60.7347 17.9249L60.9551 17.8069C60.9057 17.7147 60.8357 17.6173 60.6966 17.5482C60.5767 17.4887 60.4223 17.4591 60.2255 17.44C59.8281 17.4016 59.1297 17.3974 57.8644 17.3974C57.1177 17.3974 56.44 17.3878 55.9501 17.3724C55.7946 17.3675 55.6591 17.3621 55.5469 17.3563C55.5934 17.2775 55.6481 17.1852 55.7108 17.0802C55.9378 16.6996 56.2663 16.1543 56.672 15.4845C57.4834 14.145 58.6028 12.3088 59.8342 10.2995C61.0652 8.29063 62.1976 6.46931 63.0302 5.15333C63.4466 4.49514 63.7874 3.96438 64.0279 3.60007C64.0984 3.49319 64.1598 3.40134 64.2117 3.32519C64.2667 3.40876 64.3327 3.51051 64.4091 3.62938C64.6502 4.00446 64.9916 4.54511 65.4084 5.21156C66.242 6.54422 67.3755 8.37732 68.6077 10.3891L72.8639 17.338L70.4943 17.4052C69.7234 17.4271 69.0189 17.4501 68.5049 17.4697C68.248 17.4795 68.0379 17.4884 67.8906 17.4959C67.8172 17.4996 67.7579 17.5031 67.7156 17.5062C67.7093 17.5066 67.7031 17.5071 67.6972 17.5076C67.6835 17.5087 67.6708 17.5099 67.6599 17.5111C67.6565 17.5115 67.6525 17.512 67.648 17.5126C67.6425 17.5134 67.6364 17.5143 67.6301 17.5155C67.6248 17.5165 67.6139 17.5186 67.6008 17.5226C67.5943 17.5245 67.5828 17.5282 67.5691 17.5343C67.5593 17.5388 67.5283 17.553 67.4974 17.5828C67.4509 17.6276 67.4351 17.6792 67.4338 17.6835L67.4337 17.6837C67.4323 17.6877 67.4312 17.6915 67.4302 17.695C67.4276 17.7039 67.4262 17.7109 67.4254 17.7146C67.4232 17.7256 67.4221 17.7348 67.4217 17.7384C67.4207 17.7471 67.4202 17.7555 67.4198 17.761C67.4191 17.7732 67.4184 17.7886 67.4178 17.8057C67.4167 17.8407 67.4154 17.8909 67.4142 17.9547C67.4117 18.0828 67.409 18.2701 67.4062 18.5097C67.4006 18.9891 67.3943 19.6802 67.3878 20.5315C67.3748 22.2342 67.3608 24.5786 67.3491 27.1539L67.3068 36.4605L66.9964 37.0906C66.3624 38.3779 64.9098 39.0939 63.5787 38.7962C62.6347 38.5849 61.876 38.0066 61.4681 37.2017L61.1332 36.5407V27.4016C61.1332 24.3679 61.1206 22.043 61.0957 20.453C61.0832 19.6584 61.0677 19.0455 61.049 18.6189C61.0397 18.406 61.0295 18.2366 61.0182 18.1131C61.0125 18.0517 61.0063 17.9981 60.9992 17.9545C60.9942 17.924 60.9837 17.8603 60.9551 17.807L60.7347 17.9249Z" stroke="#FF8C00" stroke-width="0.5"/>
</svg>
