 <svg width="24" height="24" viewBox="0 0 24 24" fill="none" xmlns="http://www.w3.org/2000/svg">
                <g clipPath="url(#clip0_3281_766)">
                    <path d="M0.78999 0.780001C0.59999 0.960001 0.48999 1.22 0.48999 1.48V12.49C0.48999 13.04 0.92999 13.49 1.48999 13.49H9.48999C10.04 13.49 10.49 13.04 10.49 12.49V1.49C10.49 0.930001 10.04 0.490001 9.48999 0.490001L1.48999 0.470001C1.21999 0.470001 0.96999 0.570001 0.77999 0.760001L0.78999 0.780001Z" />
                    <path d="M22.5 0.493001L14.5 0.503001C13.94 0.503001 13.5 0.943001 13.5 1.503V6.503C13.5 7.053 13.94 7.503 14.5 7.503H22.5C23.05 7.503 23.5 7.053 23.5 6.503V1.48C23.5 0.920001 23.05 0.480001 22.5 0.480001V0.493001Z" />
                    <path d="M10.2 23.21C10.38 23.02 10.49 22.76 10.49 22.5V17.5C10.49 16.94 10.04 16.5 9.48999 16.5H1.48999C0.92999 16.5 0.48999 16.94 0.48999 17.5V22.48C0.48999 23.03 0.92999 23.48 1.48999 23.48L9.48999 23.49C9.74999 23.49 9.99999 23.379 10.19 23.189L10.2 23.21Z" />
                    <path d="M22.5 10.508H14.5C13.94 10.508 13.5 10.948 13.5 11.508V22.508C13.5 23.058 13.94 23.508 14.5 23.508L22.5 23.488C23.05 23.488 23.5 23.038 23.5 22.488V11.5C23.5 10.94 23.05 10.5 22.5 10.5V10.508Z" />
                </g>
                <defs>
                    <clipPath id="clip0_3281_766">
                        <rect width="24" height="24" fill="white" />
                    </clipPath>
                </defs>
            </svg>