<svg width="30" height="30" viewBox="0 0 30 30" fill="none" xmlns="http://www.w3.org/2000/svg">
<path fill-rule="evenodd" clip-rule="evenodd" d="M2.04923 0.117493C1.22788 0.424184 0.587699 1.04088 0.217654 1.88187L0 2.37644V12.054V21.7316L0.254078 22.285C0.56877 22.9704 1.08342 23.5154 1.7249 23.8426L2.18679 24.078L6.44077 24.0986C8.7805 24.1099 10.6948 24.1281 10.6948 24.1392C10.6948 24.1501 10.5256 25.0662 10.3189 26.1746C10.1122 27.2831 9.94305 28.2001 9.94305 28.2123C9.94305 28.2244 9.52483 28.2344 9.01367 28.2344H8.08428L7.85194 28.4846C7.64692 28.7053 7.61959 28.7799 7.61959 29.1196C7.61959 29.4656 7.64419 29.5295 7.86362 29.7522L8.10765 30H15.0026H21.8975L22.139 29.7401C22.3496 29.5134 22.3804 29.4341 22.3804 29.12C22.3804 28.8121 22.347 28.7217 22.1502 28.4971L21.9201 28.2344H20.9885C20.4761 28.2344 20.0569 28.2244 20.0569 28.2123C20.0569 28.2001 19.8878 27.2831 19.6811 26.1746C19.4744 25.0662 19.3052 24.1501 19.3052 24.1392C19.3052 24.1281 21.2211 24.1099 23.5628 24.0986L27.8205 24.078L28.3345 23.8045C28.971 23.4658 29.4774 22.9117 29.7813 22.2212L30 21.724V12.0502V2.37644L29.7813 1.87922C29.4774 1.18867 28.971 0.634653 28.3344 0.295887L27.8203 0.0223735L15.1061 0.0059686C3.18178 -0.00940643 2.37055 -0.00249143 2.04923 0.117493ZM2.5705 1.86157C2.40574 1.91689 2.16656 2.071 2.03904 2.20408C1.59164 2.67092 1.60592 2.40043 1.60592 10.4084V17.6411H15H28.3941V10.4067C28.3941 2.43743 28.4076 2.69969 27.9725 2.21651C27.5271 1.72179 28.3416 1.75063 14.9705 1.75607C4.93777 1.76012 2.81898 1.77814 2.5705 1.86157ZM14.5294 3.34257C14.4418 3.40856 14.3143 3.59696 14.246 3.76108L14.1219 4.05946L11.2637 5.08363L8.40547 6.10772L7.48292 6.15723C6.64066 6.2024 6.52018 6.22704 6.09847 6.43979C5.45774 6.76311 4.94358 7.30675 4.62765 7.9948C4.37856 8.53734 4.37358 8.56508 4.37358 9.40188C4.37358 10.2387 4.37856 10.2664 4.62765 10.8089C5.11688 11.8745 6.04387 12.5594 7.08472 12.6243L7.61959 12.6576V14.1659V15.6743L7.86362 15.9221C8.07226 16.1339 8.15624 16.1698 8.44223 16.1698C8.73403 16.1698 8.80763 16.1367 9.01825 15.9099L9.25968 15.65V14.3283C9.25968 13.6013 9.2823 13.0065 9.30991 13.0065C9.33752 13.0065 10.4446 13.3952 11.77 13.8701C13.6659 14.5496 14.18 14.7602 14.18 14.8577C14.18 15.0545 14.5044 15.4167 14.7631 15.5086C15.0739 15.619 15.4135 15.5016 15.6469 15.203L15.82 14.9815V9.42939C15.82 3.33632 15.8356 3.56974 15.4123 3.33404C15.1496 3.18779 14.7292 3.19184 14.5294 3.34257ZM11.7027 6.83903L9.25968 7.72217V9.40173V11.0814L11.7198 11.9645L14.18 12.8476V9.39599C14.18 7.49758 14.1722 5.94698 14.1629 5.95014C14.1535 5.95331 13.0464 6.35335 11.7027 6.83903ZM18.7859 6.70941C18.5809 6.9301 18.5535 7.00477 18.5535 7.34442C18.5535 7.69047 18.5781 7.75432 18.7976 7.97707L19.0416 8.22484H21.1841H23.3267L23.5324 8.0385C23.9576 7.65324 23.9576 7.03088 23.5324 6.64563L23.3267 6.45929H21.1724H19.0182L18.7859 6.70941ZM6.94408 8.041C6.52462 8.1818 6.20166 8.54338 6.07442 9.01456C5.98052 9.3623 5.98052 9.44145 6.07442 9.78919C6.14057 10.0344 6.26405 10.2652 6.41084 10.4184C6.63765 10.6551 7.14068 10.8732 7.45961 10.8732H7.61959V9.40188V7.93058L7.43166 7.93551C7.32834 7.93823 7.10891 7.98568 6.94408 8.041ZM18.7859 11.4175C18.5809 11.6382 18.5535 11.7129 18.5535 12.0526C18.5535 12.3986 18.5781 12.4625 18.7976 12.6852L19.0416 12.933H22.1097H25.1777L25.4192 12.6731C25.6298 12.4464 25.6606 12.3671 25.6606 12.053C25.6606 11.7451 25.6272 11.6547 25.4304 11.4301L25.2003 11.1674H22.1092H19.0182L18.7859 11.4175ZM1.60592 20.1657C1.60592 21.4433 1.87606 22.0091 2.59763 22.2429C3.09649 22.4044 26.9039 22.4026 27.4097 22.2409C28.1203 22.0137 28.3941 21.4371 28.3941 20.1674V19.4067H15H1.60592V20.1657ZM12.3412 24.501C12.3018 24.7134 12.1443 25.5824 11.9913 26.4321C11.8381 27.2818 11.697 28.0349 11.6776 28.1057C11.6443 28.2271 11.8343 28.2344 15 28.2344C18.1657 28.2344 18.3557 28.2271 18.3224 28.1057C18.303 28.0349 18.1619 27.2818 18.0087 26.4321C17.8557 25.5824 17.6982 24.7134 17.6588 24.501L17.5871 24.1148H15H12.4129L12.3412 24.501Z" fill="#4F7566"/>
</svg>
