<svg width="24" height="24" viewBox="0 0 24 24" fill="none" xmlns="http://www.w3.org/2000/svg">
                <path d="M20.75 3H18.5V0.5625C18.5 0.253125 18.2469 0 17.9375 0H16.0625C15.7531 0 15.5 0.253125 15.5 0.5625V3H9.5V0.5625C9.5 0.253125 9.24687 0 8.9375 0H7.0625C6.75313 0 6.5 0.253125 6.5 0.5625V3H4.25C3.00781 3 2 4.00781 2 5.25V21.75C2 22.9922 3.00781 24 4.25 24H20.75C21.9922 24 23 22.9922 23 21.75V5.25C23 4.00781 21.9922 3 20.75 3ZM20.4688 21.75H4.53125C4.37656 21.75 4.25 21.6234 4.25 21.4688V7.5H20.75V21.4688C20.75 21.6234 20.6234 21.75 20.4688 21.75Z" />
            </svg>