<svg width="30" height="30" viewBox="0 0 30 30" fill="none" xmlns="http://www.w3.org/2000/svg">
<path fill-rule="evenodd" clip-rule="evenodd" d="M23.7978 0.0635022C23.3618 0.178353 22.9778 0.373347 22.6526 0.645084C22.4906 0.780395 21.8752 1.5463 21.2674 2.36925L20.1736 3.84988L11.134 3.86577L2.09436 3.8816L1.72226 4.01779C1.01015 4.27838 0.462037 4.77648 0.171903 5.42671L0.0242803 5.75767L0.00493825 13.6137C-0.00903478 19.3039 0.0059079 21.5667 0.0592124 21.8215C0.217185 22.577 0.782769 23.2209 1.59476 23.5695L2.02967 23.7562L7.38276 23.7725C10.327 23.7814 12.7359 23.811 12.7359 23.8382C12.7359 23.8654 12.5757 24.4966 12.3801 25.2407C12.1844 25.9849 12.0243 26.6055 12.0243 26.6201C12.0243 26.6346 11.5366 26.6566 10.9407 26.669C9.91408 26.6904 9.83949 26.7 9.5216 26.85C8.82593 27.1782 8.4528 27.7002 8.41211 28.4024L8.38746 28.8275H7.26347H6.13955L5.92976 28.9974C5.75613 29.1379 5.71991 29.2097 5.71991 29.4137C5.71991 29.6178 5.75613 29.6895 5.92976 29.8301L6.13955 30H15H23.8605L24.0702 29.8301C24.2439 29.6895 24.2801 29.6178 24.2801 29.4137C24.2801 29.2097 24.2439 29.1379 24.0702 28.9974L23.8605 28.8275H22.7365H21.6125L21.5879 28.4024C21.5462 27.6837 21.1475 27.1421 20.4383 26.8406C20.1047 26.6989 20.0006 26.6861 19.0269 26.6679C18.4488 26.657 17.9757 26.6359 17.9757 26.6209C17.9757 26.606 17.8156 25.9849 17.6199 25.2407C17.4243 24.4966 17.2641 23.8654 17.2641 23.8382C17.2641 23.811 19.673 23.7814 22.6172 23.7725L27.9703 23.7562L28.4052 23.5695C29.2172 23.2209 29.7828 22.577 29.9408 21.8215C29.9941 21.5667 30.009 19.3039 29.9951 13.6137L29.9757 5.75767L29.8281 5.42671C29.4235 4.5201 28.5879 3.96649 27.4835 3.87345C27.2354 3.85258 27.0323 3.831 27.0323 3.82555C27.0323 3.82015 27.0898 3.70794 27.16 3.57621C27.2302 3.44447 27.3212 3.15239 27.3623 2.92715C27.5636 1.82273 26.907 0.726282 25.745 0.226193C25.3133 0.0404032 25.1913 0.0148416 24.6734 0.00165053C24.3329 -0.00696766 23.9674 0.0188283 23.7978 0.0635022ZM24.2183 1.21025C23.9301 1.27386 23.6571 1.41732 23.468 1.60458C23.2925 1.77835 19.6145 6.72314 19.5534 6.86748C19.53 6.92276 19.8137 7.1486 20.4106 7.54972C20.9013 7.8795 21.3355 8.152 21.3754 8.15534C21.4775 8.16384 25.7881 3.40502 25.9369 3.11944C26.1181 2.7719 26.101 2.30482 25.8936 1.92744C25.6973 1.57051 25.4134 1.35465 24.9872 1.23845C24.6589 1.14887 24.5196 1.14377 24.2183 1.21025ZM2.12716 5.17685C1.83327 5.29234 1.62607 5.4711 1.47353 5.74066C1.35502 5.95014 1.35042 6.1714 1.35042 11.7019V17.4457L2.3909 17.4644L3.43143 17.4831L3.62001 17.6746C3.87488 17.9332 3.87488 18.2055 3.62001 18.4642L3.43143 18.6556L2.3909 18.6743L1.35042 18.693V20.1859C1.35042 21.3253 1.37158 21.7234 1.43976 21.8674C1.54857 22.0973 1.90009 22.4077 2.14708 22.4921C2.27323 22.5352 6.22216 22.5543 15 22.5543C23.7778 22.5543 27.7268 22.5352 27.8529 22.4921C28.0999 22.4077 28.4514 22.0973 28.5602 21.8674C28.6284 21.7233 28.6496 21.3248 28.6496 20.1824V18.686L18.3586 18.6708L8.06757 18.6556L7.8788 18.4642C7.74716 18.3306 7.69004 18.2112 7.69004 18.0694C7.69004 17.9276 7.74716 17.8081 7.8788 17.6746L8.06757 17.4831L18.3586 17.4679L28.6496 17.4527V11.7055C28.6496 6.17146 28.645 5.95014 28.5265 5.74066C28.2258 5.20927 27.8917 5.08345 26.7813 5.08345H25.9438L23.0403 8.29329C21.4434 10.0587 20.117 11.5326 20.0928 11.5686C20.0687 11.6045 20.0914 11.8156 20.1433 12.0376C20.2616 12.5438 20.2623 12.8633 20.1461 13.3601C19.8792 14.5016 18.9123 15.3745 17.6822 15.5843C17.4476 15.6243 16.9195 15.6384 16.3343 15.6203C14.8033 15.5729 14.1339 15.7028 13.5614 16.1584C13.1668 16.4724 12.8034 16.5024 12.5188 16.2444C12.1956 15.9515 11.8551 14.1337 11.9162 13.0274C11.9831 11.8173 12.3661 10.9326 13.1239 10.2385C13.8061 9.61363 14.7268 9.23232 15.7672 9.14374L16.2873 9.09941L17.7796 7.09143L19.2719 5.08345L10.8126 5.08574C3.40291 5.08773 2.32511 5.09905 2.12716 5.17685ZM18.1269 8.77028L17.534 9.58203L18.338 10.1205C18.7802 10.4166 19.1659 10.6455 19.1951 10.6292C19.2243 10.6128 19.5438 10.2705 19.9052 9.86843L20.5621 9.13746L19.7171 8.57271C19.2524 8.2621 18.8379 7.99681 18.7959 7.98321C18.754 7.96967 18.4529 8.32384 18.1269 8.77028ZM15.531 10.3907C14.3391 10.6252 13.6226 11.2609 13.345 12.3299C13.2619 12.6498 13.2476 12.9181 13.2763 13.6137C13.2963 14.0974 13.3306 14.56 13.3525 14.6417L13.3925 14.7904L13.9536 14.6158C14.5001 14.4459 14.5564 14.4405 16.0997 14.4085C17.9008 14.3712 17.9812 14.3535 18.4268 13.8948C18.7852 13.5258 18.9069 13.1552 18.8639 12.564C18.8448 12.303 18.8086 12.0428 18.7834 11.986C18.7581 11.9291 18.2109 11.5268 17.5674 11.0919C16.2723 10.2168 16.3241 10.2346 15.531 10.3907ZM5.51568 17.509C5.44057 17.5377 5.31682 17.633 5.24075 17.7207C4.91607 18.0947 5.2086 18.6347 5.74281 18.6474C5.97899 18.6529 6.0484 18.6255 6.20831 18.4633C6.33918 18.3306 6.39624 18.211 6.39624 18.0694C6.39624 17.6865 5.89146 17.3653 5.51568 17.509ZM13.773 25.1193C13.5825 25.8528 13.4133 26.4993 13.3971 26.5557C13.3696 26.6513 13.4773 26.6583 15 26.6583C16.5227 26.6583 16.6304 26.6513 16.6029 26.5557C16.5867 26.4993 16.4175 25.8528 16.227 25.1193L15.8806 23.7855H15H14.1194L13.773 25.1193ZM9.97366 27.9933C9.80081 28.1165 9.69543 28.356 9.69543 28.6261V28.8275H15H20.3046V28.631C20.3046 28.345 20.1876 28.0862 20.0109 27.9812C19.874 27.8999 19.299 27.8896 14.9861 27.8907C10.471 27.8919 10.1056 27.8994 9.97366 27.9933Z" fill="#4F7566"/>
</svg>
