<svg width="24" height="24" viewBox="0 0 24 24" fill="none" xmlns="http://www.w3.org/2000/svg">
<g opacity="0.8">
<path d="M1.17693e-07 19.4428L4.80941e-07 11.1326C0.0438409 10.2531 0.755761 9.6181 1.53796 9.60754L5.2601 9.60754C6.32402 8.79046 7.07804 7.65648 8.1034 6.83534C8.46528 6.5467 8.7453 6.22576 8.94346 5.8725C9.58774 4.60688 9.19736 3.1334 10.1131 2.12452C11.9532 1.33488 14.1577 2.43954 14.7787 4.17298C15.2667 5.58858 14.9397 7.0003 14.3328 8.25054C16.5299 8.2469 18.727 8.2647 20.9241 8.27638C22.7127 8.40992 23.9881 9.6142 24 11.3264C23.9951 13.0519 22.5075 14.3068 20.9241 14.3377L18.3393 14.3377C18.2531 14.8461 18.0851 15.307 17.8352 15.7206C17.98 16.7835 17.6487 17.8256 17.0081 18.5768C16.6566 24.7119 8.61924 21.0721 5.60908 20.9807L1.53798 20.9807C0.652342 20.9388 0.0105801 20.2289 1.17693e-07 19.4428ZM5.54444 19.4428C7.95294 19.4946 16.1826 23.1359 15.3926 17.9177C16.2635 17.4483 16.5986 16.192 16.0646 15.3975C16.8759 14.5974 17.107 13.5922 16.3231 12.7998C17.0985 12.7998 17.8654 12.7955 18.6236 12.7869C19.3818 12.7783 20.1486 12.774 20.9241 12.774C21.8115 12.7553 22.4265 12.1042 22.4362 11.3265C22.4159 10.407 21.7179 9.82374 20.9241 9.81436C17.9164 9.8142 14.9514 9.78884 12.1616 9.78852C12.4127 7.77326 14.8169 5.03682 12.3619 3.44926C11.9689 3.25622 11.6546 3.17428 11.244 3.24892C11.1751 3.2834 11.1363 3.31784 11.1277 3.35232C11.119 3.38678 11.1061 3.44278 11.0889 3.52032C10.828 5.11772 10.5845 6.71492 9.34416 7.77234C7.9789 8.8192 7.17388 10.4673 5.60912 11.1326L5.5445 11.1326L5.5445 19.4428L5.54444 19.4428Z" fill="white"/>
</g>
</svg>
