<svg width="215" height="250" viewBox="0 0 215 250" fill="none" xmlns="http://www.w3.org/2000/svg">
<g opacity="0.21">
<path d="M179.641 184.854L84.3417 82.8511L-23.066 148.436L71.0941 250L179.641 184.854Z" fill="white"/>
<path d="M179.641 184.854L84.3417 82.8511L-23.066 148.436L71.0941 250L179.641 184.854Z" fill="url(#paint0_linear_3010_1069)"/>
<path d="M84.3415 82.8506L119.328 0.112305L214.066 104.225L179.641 184.854L84.3415 82.8506Z" fill="white"/>
<path d="M84.3415 82.8506L119.328 0.112305L214.066 104.225L179.641 184.854L84.3415 82.8506Z" fill="url(#paint1_linear_3010_1069)"/>
<path d="M-23.066 148.436L11.4212 68.5195L119.328 0.112305L84.3417 82.8506L-23.066 148.436Z" fill="white"/>
<path d="M-23.066 148.436L11.4212 68.5195L119.328 0.112305L84.3417 82.8506L-23.066 148.436Z" fill="url(#paint2_linear_3010_1069)"/>
</g>
<defs>
<linearGradient id="paint0_linear_3010_1069" x1="78.2874" y1="82.8511" x2="78.2874" y2="250" gradientUnits="userSpaceOnUse">
<stop stop-color="#46AD47"/>
<stop offset="1" stop-color="#1D471D"/>
</linearGradient>
<linearGradient id="paint1_linear_3010_1069" x1="149.204" y1="0.112305" x2="149.204" y2="184.854" gradientUnits="userSpaceOnUse">
<stop stop-color="#46AD47"/>
<stop offset="1" stop-color="#1D471D"/>
</linearGradient>
<linearGradient id="paint2_linear_3010_1069" x1="48.131" y1="0.112305" x2="48.131" y2="148.436" gradientUnits="userSpaceOnUse">
<stop stop-color="#46AD47"/>
<stop offset="1" stop-color="#1D471D"/>
</linearGradient>
</defs>
</svg>
