<svg width="248" height="274" viewBox="0 0 248 274" fill="none" xmlns="http://www.w3.org/2000/svg">
<path opacity="0.2" d="M181.109 23.5975L181.568 23.7476L181.109 23.5976C179.608 28.1977 176.104 33.6397 171.175 39.2207C166.252 44.7946 159.933 50.4784 152.839 55.5646C129.501 72.2976 95.9111 81.4854 58.8456 81.2257C37.5925 81.0765 20.9435 75.2177 10.7704 64.4281C8.54136 62.0636 7.24387 60.5393 6.21325 58.7448C5.17996 56.9457 4.40273 54.8539 3.25312 51.3326C2.01571 47.5422 1.41202 45.5477 1.29265 43.8115C1.1748 42.0978 1.52801 40.6143 2.31119 37.829L1.84559 37.6981L2.31121 37.829C3.73413 32.7672 7.33902 26.6629 12.3188 20.5571C17.2925 14.4589 23.6108 8.39218 30.4208 3.40233C42.1496 -5.19131 58.7614 -12.5136 76.2001 -17.4073C93.638 -22.3009 111.859 -24.7537 126.794 -23.6404C152.953 -21.6902 169.098 -15.3816 177.706 -3.98281C180.7 -0.0183925 182.451 4.08907 183.009 8.58489C183.567 13.0855 182.933 18.0057 181.109 23.5975ZM19.6771 61.144L20.0249 60.8078L19.6772 61.1441C26.4733 68.171 37.3277 71.5059 57.0926 72.8512C74.5656 74.0402 86.2745 72.1079 111.398 63.9286C120.887 60.8399 126.078 59.11 129.881 57.5086C133.701 55.8999 136.121 54.4207 140.065 51.8505C144.695 48.8343 151.597 43.2945 155.421 39.5234C164.353 30.7171 169.736 22.436 171.406 14.9912C173.086 7.50443 171.002 0.90289 165.113 -4.43736C157.083 -11.7202 143.515 -15.1103 123.324 -15.0522C83.6555 -14.9379 51.1107 -3.00819 28.3078 19.8449C16.4412 31.74 11.849 41.7373 14.1468 51.41C14.6601 53.5699 15.1638 55.1082 15.9912 56.5631C16.8162 58.014 17.9482 59.3555 19.6771 61.144ZM233.585 35.9767L233.585 35.9765C232.9 35.0821 232.31 34.2169 231.912 33.5468C231.839 33.4233 231.773 33.308 231.715 33.2016C231.986 33.3588 232.314 33.569 232.694 33.8281C233.829 34.6029 235.354 35.7691 236.998 37.1091C240.29 39.7921 244.016 43.1333 246.011 45.3614C248.085 47.678 250.819 51.42 252.076 53.6535C260.311 68.2963 256.166 85.6048 242.701 101.672C229.24 117.736 206.523 132.463 177.884 141.813C140.034 154.17 95.1403 156.01 63.5579 146.532C59.54 145.326 53.006 142.488 47.5434 139.786C44.8147 138.436 42.3677 137.127 40.6471 136.08C39.8372 135.588 39.2022 135.162 38.7768 134.823C38.827 134.83 38.8793 134.837 38.9336 134.845C39.6511 134.952 40.6784 135.148 41.9434 135.418C44.4709 135.957 47.9193 136.788 51.6773 137.779C69.8524 142.57 75.4703 143.584 87.1709 144.169C150.056 147.309 199.789 129.652 231.415 92.8349C238.237 84.8943 242.296 77.2657 243.608 69.54C244.921 61.8071 243.473 54.0297 239.377 45.8127C237.599 42.2472 234.998 37.8242 233.585 35.9767ZM143.177 227.572C143.162 227.557 143.148 227.542 143.134 227.527C143.174 227.502 143.233 227.456 143.281 227.379C143.336 227.29 143.357 227.189 143.349 227.093C143.366 227.093 143.383 227.094 143.401 227.095C143.41 227.106 143.42 227.119 143.431 227.132C143.509 227.224 143.62 227.338 143.768 227.471C143.819 227.516 143.873 227.563 143.93 227.612C143.602 227.587 143.352 227.574 143.183 227.573C143.181 227.573 143.179 227.572 143.177 227.572ZM284.444 160.076L284.148 159.135L284.867 159.81L285.163 160.75L284.444 160.076ZM195.24 262.954L195.394 262.994L195.517 262.527L195.394 262.994C210.787 267.042 225.452 268.813 238.148 268.145C243.657 267.855 251.827 266.127 259.682 263.84C267.533 261.553 275.136 258.689 279.498 256.101C288.164 250.959 294.708 244.507 297.448 238.301C298.699 235.469 299.69 231.727 300.237 228.287C300.511 226.564 300.675 224.907 300.704 223.468C300.732 222.039 300.628 220.784 300.34 219.89C300.175 219.375 300.136 218.894 300.189 218.544C300.23 218.272 300.308 218.157 300.354 218.112C300.413 218.154 300.502 218.242 300.617 218.404C300.861 218.745 301.139 219.297 301.434 220.032C302.019 221.493 302.628 223.565 303.157 225.826C303.686 228.084 304.131 230.513 304.392 232.684C304.655 234.868 304.726 236.744 304.531 237.917C302.435 250.569 289.914 261.284 268.587 268.246C247.395 275.164 225.169 274.783 204.961 267.161C201.055 265.688 196.841 263.855 195.24 262.954ZM271.345 103.659C273.097 105.275 275.45 108.068 276.556 109.837C277.096 110.701 277.861 112.385 278.659 114.427C279.452 116.459 280.266 118.813 280.908 120.995C281.862 124.243 282.401 126.483 282.621 128.508C282.84 130.526 282.745 132.35 282.411 134.769C281.391 142.135 276.525 150.682 268.874 159.134C261.233 167.575 250.855 175.876 238.895 182.752C233.531 185.835 225.082 189.21 216.09 192.059C207.101 194.906 197.606 197.218 190.161 198.188C170.356 200.768 141.621 200.294 125.186 197.122C109.82 194.156 94.2796 187.31 86.5052 180.135L84.6232 178.398L101.473 183.071C130.804 191.205 151.954 193.242 176.777 190.306C183.881 189.465 193.805 187.018 203.479 183.946C213.153 180.875 222.617 177.167 228.794 173.79C252.575 160.791 266.49 146.969 270.171 132.408C271.076 128.829 271.551 124.413 271.59 120.203C271.63 115.999 271.237 111.956 270.383 109.133C269.683 106.818 269.075 103.899 269.022 102.66C269.002 102.194 268.996 101.87 269.013 101.654C269.023 101.66 269.032 101.666 269.042 101.673C269.176 101.759 269.347 101.887 269.564 102.065C269.997 102.422 270.573 102.947 271.345 103.659L271.673 103.303L271.345 103.659Z" fill="white" stroke="#46AD47" stroke-width="0.96731"/>
</svg>
