<svg width="212" height="223" viewBox="0 0 212 223" fill="none" xmlns="http://www.w3.org/2000/svg">
<g opacity="0.21">
<path d="M181.034 164.864L95.989 73.8359L0.138062 132.364L84.1668 223L181.034 164.864Z" fill="white"/>
<path d="M181.034 164.864L95.989 73.8359L0.138062 132.364L84.1668 223L181.034 164.864Z" fill="url(#paint0_linear_3010_1038)"/>
<path d="M95.9888 73.8359L127.211 0L211.755 92.9101L181.034 164.864L95.9888 73.8359Z" fill="white"/>
<path d="M95.9888 73.8359L127.211 0L211.755 92.9101L181.034 164.864L95.9888 73.8359Z" fill="url(#paint1_linear_3010_1038)"/>
<path d="M0.138062 132.364L30.9146 61.0467L127.211 0L95.989 73.8359L0.138062 132.364Z" fill="white"/>
<path d="M0.138062 132.364L30.9146 61.0467L127.211 0L95.989 73.8359L0.138062 132.364Z" fill="url(#paint2_linear_3010_1038)"/>
</g>
<defs>
<linearGradient id="paint0_linear_3010_1038" x1="90.5861" y1="73.8359" x2="90.5861" y2="223" gradientUnits="userSpaceOnUse">
<stop stop-color="#46AD47"/>
<stop offset="1" stop-color="#1D471D"/>
</linearGradient>
<linearGradient id="paint1_linear_3010_1038" x1="153.872" y1="0" x2="153.872" y2="164.864" gradientUnits="userSpaceOnUse">
<stop stop-color="#46AD47"/>
<stop offset="1" stop-color="#1D471D"/>
</linearGradient>
<linearGradient id="paint2_linear_3010_1038" x1="63.6745" y1="0" x2="63.6745" y2="132.364" gradientUnits="userSpaceOnUse">
<stop stop-color="#46AD47"/>
<stop offset="1" stop-color="#1D471D"/>
</linearGradient>
</defs>
</svg>
