<svg width="198" height="200" viewBox="0 0 198 200" fill="none" xmlns="http://www.w3.org/2000/svg">
<g opacity="0.2">
<path d="M161.199 103.843C159.612 105.315 157.799 106.607 155.784 107.699C153.449 108.965 150.842 109.962 147.993 110.667C142.135 112.114 135.257 112.32 127.631 111.047C121.181 109.97 114.756 107.931 108.609 105.139C105.098 103.545 101.677 101.706 98.3949 99.6612C95.5455 97.8855 92.7995 95.9563 90.1895 93.8961C87.5867 91.8417 85.117 89.6598 82.8148 87.3753C80.2043 84.7857 77.807 82.0651 75.6663 79.2498C70.8956 72.9741 67.402 66.2305 65.6816 59.43C63.3864 50.3579 64.579 42.4957 68.4946 36.4983L27.2641 99.6331C23.3477 105.629 22.1559 113.493 24.4503 122.564C26.1708 129.364 29.6643 136.108 34.435 142.383C36.5758 145.199 38.9738 147.921 41.5836 150.509C43.8865 152.795 46.3562 154.977 48.9583 157.03C51.5682 159.09 54.3143 161.019 57.1636 162.795C60.4459 164.839 63.8666 166.679 67.3761 168.273C73.5239 171.065 79.9489 173.105 86.3982 174.181C94.0241 175.454 100.902 175.249 106.76 173.802C109.61 173.097 112.217 172.098 114.551 170.833C116.566 169.741 118.378 168.45 119.967 166.977C121.406 165.644 122.66 164.162 123.718 162.543L164.948 99.4082C163.894 101.027 162.639 102.509 161.199 103.843Z" fill="url(#paint0_linear_3010_1028)"/>
<path d="M161.199 103.843C159.612 105.315 157.799 106.607 155.784 107.699C153.449 108.965 150.842 109.962 147.993 110.667C142.135 112.114 135.257 112.32 127.631 111.047C121.181 109.97 114.756 107.931 108.609 105.139C105.098 103.545 101.677 101.706 98.3949 99.6612C95.5455 97.8855 92.7995 95.9563 90.1895 93.8961C87.5867 91.8417 85.117 89.6598 82.8148 87.3753C80.2043 84.7857 77.807 82.0651 75.6663 79.2498C70.8956 72.9741 67.402 66.2305 65.6816 59.43C63.3864 50.3579 64.579 42.4957 68.4946 36.4983L27.2641 99.6331C23.3477 105.629 22.1559 113.493 24.4503 122.564C26.1708 129.364 29.6643 136.108 34.435 142.383C36.5758 145.199 38.9738 147.921 41.5836 150.509C43.8865 152.795 46.3562 154.977 48.9583 157.03C51.5682 159.09 54.3143 161.019 57.1636 162.795C60.4459 164.839 63.8666 166.679 67.3761 168.273C73.5239 171.065 79.9489 173.105 86.3982 174.181C94.0241 175.454 100.902 175.249 106.76 173.802C109.61 173.097 112.217 172.098 114.551 170.833C116.566 169.741 118.378 168.45 119.967 166.977C121.406 165.644 122.66 164.162 123.718 162.543L164.948 99.4082C163.894 101.027 162.639 102.509 161.199 103.843Z" fill="url(#paint1_linear_3010_1028)"/>
<path d="M105.829 24.8573C134.017 29.5618 161.745 52.666 167.765 76.4648C173.786 100.264 155.819 115.75 127.63 111.045C99.4424 106.34 71.7019 83.2269 65.6826 59.4273C59.662 35.6285 77.6407 20.1527 105.829 24.8573Z" fill="url(#paint2_linear_3010_1028)"/>
<path d="M105.829 24.8573C134.017 29.5618 161.745 52.666 167.765 76.4648C173.786 100.264 155.819 115.75 127.63 111.045C99.4424 106.34 71.7019 83.2269 65.6826 59.4273C59.662 35.6285 77.6407 20.1527 105.829 24.8573Z" fill="url(#paint3_linear_3010_1028)"/>
<path opacity="0.1" d="M130.45 107.028C116.356 104.675 102.374 97.7218 91.1629 88.3805C79.9521 79.0391 71.5113 67.3109 68.501 55.4115C66.3799 47.0263 67.2492 39.6827 70.482 33.8825C65.0261 40.1209 63.0337 48.9697 65.6792 59.4301C68.6895 71.3295 77.129 83.0584 88.3411 92.399C99.5519 101.74 113.535 108.695 127.628 111.047C136.754 112.57 144.807 111.974 151.32 109.666C157.834 107.359 162.808 103.336 165.781 98.0071C158.826 105.959 146.245 109.665 130.45 107.028Z" fill="white"/>
<g opacity="0.55">
<path d="M69.4826 35.4427C65.1617 41.1611 63.6012 48.8426 65.6185 57.8153C65.8041 58.6391 66.0171 59.4682 66.2593 60.3031C69.5538 71.6295 77.8339 82.7583 88.6909 91.6994C99.9299 100.951 113.925 107.868 128.008 110.252C137.128 111.796 145.164 111.248 151.656 109.008C158.149 106.766 163.096 102.832 166.013 97.6225C162.77 101.992 157.918 105.233 151.805 107.042C145.604 108.874 138.11 109.235 129.686 107.808C115.601 105.423 101.607 98.5079 90.3693 89.2553C79.1302 80.0036 70.6468 68.4133 67.5837 56.6823C65.4185 48.3914 66.2589 41.1446 69.4826 35.4427Z" fill="white"/>
<path d="M69.4826 35.4427C65.1617 41.1611 63.6012 48.8426 65.6185 57.8153C65.8041 58.6391 66.0171 59.4682 66.2593 60.3031C69.5538 71.6295 77.8339 82.7583 88.6909 91.6994C99.9299 100.951 113.925 107.868 128.008 110.252C137.128 111.796 145.164 111.248 151.656 109.008C158.149 106.766 163.096 102.832 166.013 97.6225C162.77 101.992 157.918 105.233 151.805 107.042C145.604 108.874 138.11 109.235 129.686 107.808C115.601 105.423 101.607 98.5079 90.3693 89.2553C79.1302 80.0036 70.6468 68.4133 67.5837 56.6823C65.4185 48.3914 66.2589 41.1446 69.4826 35.4427Z" fill="url(#paint4_linear_3010_1028)"/>
</g>
<path d="M128.924 108.581C114.85 106.164 100.843 99.2889 89.5766 90.1247C78.3086 80.9613 69.7821 69.5111 66.666 57.9484C64.4583 49.7543 65.2702 42.6076 68.4827 37.0034C64.8339 42.7301 63.8046 50.1939 66.1294 58.8209C69.2462 70.3848 77.7727 81.835 89.04 90.9972C100.308 100.161 114.313 107.036 128.388 109.453C137.502 111.018 145.522 110.519 151.993 108.344C158.464 106.169 163.385 102.319 166.297 97.1819C166.281 97.2004 166.263 97.2152 166.247 97.2337C163.187 102.057 158.271 105.652 151.913 107.662C145.556 109.673 137.756 110.097 128.924 108.581Z" fill="white"/>
<path d="M128.924 108.581C114.85 106.164 100.843 99.2889 89.5766 90.1247C78.3086 80.9613 69.7821 69.5111 66.666 57.9484C64.4583 49.7543 65.2702 42.6076 68.4827 37.0034C64.8339 42.7301 63.8046 50.1939 66.1294 58.8209C69.2462 70.3848 77.7727 81.835 89.04 90.9972C100.308 100.161 114.313 107.036 128.388 109.453C137.502 111.018 145.522 110.519 151.993 108.344C158.464 106.169 163.385 102.319 166.297 97.1819C166.281 97.2004 166.263 97.2152 166.247 97.2337C163.187 102.057 158.271 105.652 151.913 107.662C145.556 109.673 137.756 110.097 128.924 108.581Z" fill="url(#paint5_linear_3010_1028)"/>
</g>
<defs>
<linearGradient id="paint0_linear_3010_1028" x1="133.262" y1="146.404" x2="40.1347" y2="82.4525" gradientUnits="userSpaceOnUse">
<stop stop-color="#C6B034"/>
<stop offset="0.1608" stop-color="#CAB841"/>
<stop offset="0.3423" stop-color="#CFC554"/>
<stop offset="0.6201" stop-color="#DED98C"/>
<stop offset="0.7508" stop-color="#F2EFCF"/>
<stop offset="0.8325" stop-color="#E1DD97"/>
<stop offset="0.8415" stop-color="#DDD689"/>
<stop offset="0.8681" stop-color="#D4C366"/>
<stop offset="0.8931" stop-color="#CDB64D"/>
<stop offset="0.9157" stop-color="#C9AE3D"/>
<stop offset="0.9338" stop-color="#C8AB38"/>
<stop offset="0.9703" stop-color="#C8B93A"/>
<stop offset="1" stop-color="#C9C73C"/>
</linearGradient>
<linearGradient id="paint1_linear_3010_1028" x1="52.9742" y1="46.1642" x2="126.155" y2="163.668" gradientUnits="userSpaceOnUse">
<stop stop-color="#46AD47"/>
<stop offset="1" stop-color="#1D471D"/>
</linearGradient>
<linearGradient id="paint2_linear_3010_1028" x1="148.252" y1="42.0853" x2="87.3276" y2="92.0689" gradientUnits="userSpaceOnUse">
<stop offset="0.0098" stop-color="#FFFFCA"/>
<stop offset="1" stop-color="#FFFF98"/>
</linearGradient>
<linearGradient id="paint3_linear_3010_1028" x1="87.947" y1="21.7397" x2="145.505" y2="114.16" gradientUnits="userSpaceOnUse">
<stop stop-color="#46AD47"/>
<stop offset="1" stop-color="#1D471D"/>
</linearGradient>
<linearGradient id="paint4_linear_3010_1028" x1="82.7987" y1="27.1495" x2="139.189" y2="117.694" gradientUnits="userSpaceOnUse">
<stop stop-color="#46AD47"/>
<stop offset="1" stop-color="#1D471D"/>
</linearGradient>
<linearGradient id="paint5_linear_3010_1028" x1="83.6274" y1="27.5714" x2="139.42" y2="117.157" gradientUnits="userSpaceOnUse">
<stop stop-color="#46AD47"/>
<stop offset="1" stop-color="#1D471D"/>
</linearGradient>
</defs>
</svg>
