<svg width="334" height="213" viewBox="0 0 334 213" fill="none" xmlns="http://www.w3.org/2000/svg">
<path opacity="0.2" d="M72.9876 65.3534L73.2729 64.9628L72.9876 65.3534C76.8949 68.2074 80.9809 73.2269 84.7566 79.6447C88.5276 86.0543 91.9695 93.8254 94.6031 102.147C103.267 129.526 101.577 164.309 89.8267 199.464C83.0891 219.622 72.3527 233.63 58.9387 239.953C55.9991 241.338 54.1474 242.098 52.1217 242.521C50.0907 242.945 47.861 243.034 44.1567 243.034C40.1695 243.034 38.0861 242.989 36.3987 242.564C34.7329 242.144 33.4323 241.348 31.0276 239.739L30.7587 240.141L31.0276 239.739C26.6574 236.816 21.9732 231.494 17.7144 224.865C13.4608 218.245 9.65447 210.356 7.02446 202.333C2.49508 188.517 0.689732 170.453 1.44963 152.356C2.20948 134.261 5.53244 116.179 11.2258 102.326C21.198 78.064 32.2056 64.6741 45.7131 60.0286C50.4108 58.4131 54.8591 58.0227 59.306 58.8877C63.7577 59.7536 68.2381 61.8835 72.9876 65.3534ZM58.5808 230.466L58.3692 230.031L58.5809 230.466C67.37 226.186 73.9088 216.903 81.3216 198.532C87.8746 182.29 89.6715 170.56 89.6929 144.139C89.7016 134.16 89.6683 128.687 89.3262 124.575C88.9825 120.445 88.327 117.686 87.1081 113.138C85.6776 107.801 82.5531 99.521 80.1551 94.7152C74.5557 83.4908 68.3539 75.8042 61.7952 71.9056C55.1995 67.985 48.2769 67.9182 41.3729 71.8583C31.9575 77.2322 24.5241 89.0777 18.3131 108.29C6.11083 146.035 7.35145 180.676 21.9994 209.445C29.6244 224.417 37.703 231.885 47.6112 232.703C49.8237 232.885 51.4423 232.884 53.0822 232.549C54.7175 232.215 56.3441 231.555 58.5808 230.466ZM101.041 19.31L101.041 19.31C99.9783 19.6835 98.9728 19.9756 98.2123 20.1459C98.0721 20.1773 97.942 20.2041 97.8228 20.2264C98.0563 20.0178 98.3582 19.7705 98.7222 19.49C99.8111 18.6513 101.393 17.564 103.177 16.4168C106.749 14.1197 111.082 11.6151 113.819 10.41C116.665 9.15747 121.071 7.71943 123.584 7.21808C140.059 3.93378 155.227 13.2452 166.323 31.0318C177.415 48.8137 184.366 74.9793 184.366 105.106C184.366 144.922 172.182 188.17 153.371 215.252C150.977 218.697 146.252 224.028 141.988 228.382C139.858 230.557 137.854 232.477 136.325 233.788C135.605 234.405 135.003 234.876 134.549 235.176C134.571 235.13 134.595 235.083 134.619 235.033C134.944 234.385 135.448 233.469 136.098 232.35C137.395 230.115 139.254 227.094 141.363 223.829C151.558 208.039 154.266 203.013 158.453 192.071C180.954 133.265 179.602 80.5088 154.419 39.0179C148.987 30.0689 142.995 23.843 136.058 20.1981C129.114 16.5499 121.272 15.5123 112.189 16.8565C108.248 17.44 103.236 18.5395 101.041 19.31ZM255.119 164.714C255.1 164.724 255.081 164.732 255.063 164.741C255.052 164.696 255.026 164.625 254.967 164.556C254.9 164.476 254.811 164.424 254.717 164.402C254.722 164.386 254.728 164.37 254.735 164.353C254.749 164.348 254.763 164.343 254.779 164.336C254.891 164.291 255.033 164.221 255.206 164.121C255.265 164.087 255.326 164.05 255.39 164.011C255.265 164.315 255.175 164.549 255.121 164.709C255.12 164.711 255.12 164.713 255.119 164.714ZM234.797 9.47573L233.811 9.46465L234.675 8.99068L235.661 9.00175L234.797 9.47573ZM304.911 126.202L304.997 126.069L304.591 125.806L304.997 126.068C313.623 112.692 319.857 99.3002 323.162 87.0245C324.596 81.6971 325.489 73.394 325.752 65.2176C326.016 57.0441 325.652 48.9276 324.546 43.978C322.347 34.1442 318.245 25.921 313.196 21.3901C310.892 19.3223 307.642 17.219 304.541 15.6311C302.989 14.8361 301.464 14.1656 300.105 13.6917C298.755 13.2213 297.53 12.9312 296.591 12.9272C296.049 12.9246 295.58 12.8117 295.264 12.6534C295.018 12.5301 294.933 12.4203 294.905 12.3619C294.963 12.3194 295.075 12.2617 295.264 12.2023C295.665 12.0764 296.276 11.9837 297.066 11.9317C298.635 11.8284 300.794 11.8924 303.108 12.0911C305.418 12.2896 307.866 12.6208 310.01 13.046C312.169 13.474 313.974 13.9886 315.029 14.5375C326.405 20.4571 332.705 35.6848 332.705 58.1191C332.705 80.4119 325.444 101.423 311.927 118.267C309.314 121.524 306.265 124.96 304.911 126.202ZM177.1 4.41891C179.18 3.25529 182.566 1.88522 184.591 1.38258C185.579 1.13732 187.417 0.933067 189.607 0.808563C191.785 0.684708 194.275 0.641563 196.548 0.708664C199.932 0.809303 202.228 0.992592 204.222 1.41203C206.208 1.8297 207.913 2.48566 210.108 3.55462C216.794 6.80973 223.409 14.0878 229.069 23.9839C234.723 33.8674 239.393 46.3091 242.217 59.813C243.484 65.8688 244.069 74.9477 243.987 84.3806C243.904 93.8094 243.155 103.553 241.767 110.932C238.074 130.559 228.705 157.728 220.589 172.367C213.001 186.054 201.67 198.702 192.436 203.866L190.201 205.116L199.873 190.549C216.708 165.19 225.208 145.717 230.12 121.208C231.526 114.194 232.279 104 232.362 93.8506C232.444 83.7016 231.856 73.5541 230.563 66.6339C225.587 39.9925 216.766 22.4754 204.066 14.4569C200.944 12.4859 196.894 10.6647 192.904 9.32024C188.92 7.97768 184.955 7.09633 182.005 7.03209C179.588 6.97928 176.624 6.65117 175.43 6.31752C174.98 6.19185 174.67 6.09715 174.471 6.01347C174.48 6.00639 174.488 5.99911 174.498 5.99162C174.621 5.89075 174.796 5.7682 175.032 5.61772C175.506 5.31662 176.184 4.93153 177.1 4.41893L176.864 3.99682L177.1 4.41891Z" fill="white" stroke="#46AD47" stroke-width="0.96731"/>
</svg>
