 <svg width="24" height="24" viewBox="0 0 24 24" fill="none" xmlns="http://www.w3.org/2000/svg">
                <path d="M19 2H5C2.23 2 0 4.23 0 7V17C0 19.76 2.23 21.99 5 22H19C21.76 21.99 23.99 19.76 24 17V7C23.99 4.23 21.76 2 19 2ZM22 17C22 18.65 20.65 20 19 20H5C3.34 20 2 18.65 2 17V7C2 5.34 3.34 4 5 4H19C20.65 4 22 5.34 22 7V17Z" />
                <path d="M15.93 10.658L10.16 7.768V7.76C9.41 7.38 8.51 7.68 8.14 8.43C8.03 8.63 7.98 8.86 7.98 9.1V14.86C7.97 15.68 8.65 16.359 9.47 16.359C9.7 16.359 9.93 16.299 10.14 16.199L15.9 13.309C16.64 12.929 16.94 12.029 16.57 11.289C16.42 10.989 16.18 10.759 15.89 10.609L15.93 10.658Z" />
            </svg>