<svg width="30" height="30" viewBox="0 0 30 30" fill="none" xmlns="http://www.w3.org/2000/svg">
<path fill-rule="evenodd" clip-rule="evenodd" d="M6.77317 0.108944C6.05579 0.360385 5.5637 0.831315 5.24116 1.57494L5.05562 2.00266V10.9026V19.8026L5.2428 20.2342C5.58159 21.0153 6.27111 21.5883 7.07173 21.7541C7.27885 21.797 10.8743 21.8192 17.5357 21.8186C26.4346 21.8177 27.7311 21.8056 28.0645 21.7198C28.712 21.553 29.2187 21.156 29.5958 20.5199C30.0183 19.8071 29.9999 20.2461 29.9999 10.9147C29.9999 5.57334 29.9786 2.44176 29.9408 2.22419C29.7916 1.36493 29.2521 0.610353 28.5185 0.23476L28.0946 0.0177674L17.601 0.00476941C7.57437 -0.00765214 7.09255 -0.00304166 6.77317 0.108944ZM6.84392 1.53845C6.60503 1.69525 6.49013 1.82498 6.37752 2.06496L6.22808 2.38337L6.21255 10.2446C6.20399 14.5683 6.21648 18.1059 6.24034 18.1059C6.26426 18.1059 7.45836 16.8272 8.89398 15.2644C11.3444 12.5969 11.5237 12.416 11.8222 12.3102C12.0035 12.246 12.311 12.1987 12.5374 12.2002C13.213 12.2049 13.4547 12.3702 14.5959 13.6089C15.4426 14.5279 15.5897 14.6626 15.658 14.5819C15.7017 14.5304 16.8504 13.0272 18.2107 11.2414C20.6397 8.05266 20.6908 7.99087 21.0653 7.7895C21.3843 7.61797 21.5164 7.58378 21.8729 7.58038C22.2416 7.57686 22.3526 7.60503 22.6948 7.78899C23.0844 7.99849 23.1331 8.05611 25.9149 11.5972L28.7395 15.1926L28.756 8.88573C28.7679 4.34009 28.754 2.50483 28.7061 2.31358C28.6185 1.96341 28.3594 1.62937 28.0468 1.46417L27.7938 1.33035H17.4773H7.1609L6.84392 1.53845ZM10.5251 4.20723C9.80851 4.45745 9.31572 4.92883 8.99306 5.67278C8.81971 6.07232 8.80752 6.14691 8.80752 6.8048C8.80752 7.46404 8.81947 7.53671 8.9947 7.94074C9.34245 8.74244 10.0402 9.30877 10.879 9.47019C11.9067 9.66791 13.0195 9.01655 13.484 7.94547C13.6616 7.53607 13.6733 7.46564 13.6733 6.8048C13.6733 6.14595 13.6612 6.0727 13.4865 5.67002C12.9459 4.42345 11.6867 3.80154 10.5251 4.20723ZM10.5958 5.63628C9.84878 6.12668 9.77463 7.20601 10.4439 7.84783C10.898 8.28322 11.5828 8.28322 12.0368 7.84783C12.7256 7.18737 12.6232 6.06796 11.8309 5.59697C11.4147 5.34956 11.013 5.36237 10.5958 5.63628ZM21.6206 8.96609C21.5422 9.00886 20.2931 10.6002 18.8448 12.5024C17.3967 14.4046 16.1348 16.0402 16.0408 16.137C15.9049 16.2769 15.814 16.3131 15.5977 16.3131H15.3258L14.0548 14.9341C12.6778 13.4401 12.5749 13.3649 12.2021 13.5809C12.1084 13.6352 10.7655 15.0656 9.21788 16.7596L6.40395 19.8396L6.64566 20.088C6.77862 20.2246 6.98966 20.3673 7.11465 20.4053C7.27293 20.4533 10.4426 20.4743 17.5504 20.4745L27.7588 20.4749L28.0723 20.296C28.3004 20.1659 28.4341 20.032 28.5627 19.8051C28.7388 19.4943 28.7395 19.4891 28.7578 18.3984L28.776 17.3036L25.559 13.2068C23.7896 10.9535 22.2998 9.07244 22.2483 9.02673C22.1137 8.90706 21.7868 8.87549 21.6206 8.96609ZM2.88655 10.547C2.82206 10.5758 2.72111 10.6579 2.6622 10.7295C2.55093 10.8647 0.0961336 20.7191 0.0168161 21.349C-0.106879 22.3312 0.464699 23.5083 1.30765 24.0078C1.49583 24.1192 2.90707 24.5623 5.34873 25.2766C7.41228 25.8802 11.8442 27.1772 15.1975 28.1589C18.5507 29.1406 21.4307 29.9632 21.5974 29.987C22.0444 30.0508 22.6992 29.8739 23.1219 29.5751C23.4984 29.3088 23.7601 29.0108 23.9841 28.5931C24.148 28.2874 25.1928 24.1534 25.1928 23.8104C25.1928 23.666 25.1404 23.5453 25.0214 23.4153C24.7861 23.1584 24.4467 23.1538 24.2013 23.4042C24.0462 23.5624 23.9773 23.7913 23.5209 25.6612C23.2238 26.8791 22.9539 27.8543 22.8703 28.0126C22.7866 28.1711 22.623 28.3499 22.4751 28.4445C21.9641 28.7716 22.0965 28.7979 17.5424 27.464C15.2532 26.7934 10.8099 25.4935 7.66858 24.5753C1.68043 22.825 1.73993 22.8457 1.46335 22.4119C1.32295 22.1917 1.21578 21.8532 1.21578 21.6297C1.21578 21.5359 1.78396 19.1453 2.47841 16.3173C3.63417 11.6107 3.73542 11.1568 3.67416 10.9541C3.56705 10.5995 3.19696 10.4082 2.88655 10.547Z" fill="#4F7566"/>
</svg>
