<svg width="24" height="24" viewBox="0 0 24 24" fill="none" xmlns="http://www.w3.org/2000/svg">
                <g clipPath="url(#clip0_3281_970)">
                    <path d="M19.5 3.35649e-06H4.50001C3.39001 3.35649e-06 2.50001 0.890003 2.50001 2V22.4C2.46001 22.98 2.75901 23.53 3.25901 23.82C3.77901 24.07 4.38901 24.03 4.86901 23.69L11.714 19.26C11.874 19.15 12.084 19.15 12.254 19.26L19.1 23.69C19.74 24.18 20.68 24.06 21.17 23.41C21.39 23.11 21.5 22.74 21.47 22.38V1.98C21.47 0.870003 20.57 -0.0199966 19.47 -0.0199966L19.5 3.35649e-06ZM9.58601 13.719L6.78001 10.649H6.77901C6.38901 10.249 6.40901 9.609 6.79901 9.229C7.18901 8.839 7.82901 8.859 8.20901 9.249C8.21901 9.259 8.22901 9.269 8.23901 9.279L10.899 12.179L16.239 4.921C16.559 4.471 17.189 4.37 17.629 4.7C18.069 5.02 18.169 5.65 17.839 6.09L12.369 13.52C11.799 14.32 10.679 14.52 9.86901 13.95C9.74901 13.86 9.63901 13.77 9.54901 13.66L9.58601 13.719Z" />
                </g>
                <defs>
                    <clipPath id="clip0_3281_970">
                        <rect width="24" height="24" fill="white" />
                    </clipPath>
                </defs>
 </svg>