<svg width="14" height="13" viewBox="0 0 14 13" fill="none" xmlns="http://www.w3.org/2000/svg">
<path d="M11.5 0H2.5C1.96974 0.000579017 1.46137 0.211479 1.08643 0.586426C0.711479 0.961373 0.500579 1.46974 0.5 2V11C0.500579 11.5303 0.711479 12.0386 1.08643 12.4136C1.46137 12.7885 1.96974 12.9994 2.5 13H11.5C12.0303 12.9994 12.5386 12.7885 12.9136 12.4136C13.2885 12.0386 13.4994 11.5303 13.5 11V2C13.4994 1.46974 13.2885 0.961373 12.9136 0.586426C12.5386 0.211479 12.0303 0.000579017 11.5 0ZM10.3828 4.32156L6.18281 9.32156C6.13674 9.37644 6.07941 9.42077 6.01471 9.45156C5.95001 9.48234 5.87945 9.49886 5.80781 9.5H5.79938C5.72929 9.49997 5.66 9.48522 5.59599 9.45668C5.53198 9.42815 5.47468 9.38648 5.42781 9.33438L3.62781 7.33438C3.5821 7.28589 3.54654 7.22876 3.52322 7.16633C3.4999 7.10391 3.4893 7.03745 3.49203 6.97087C3.49477 6.90429 3.51078 6.83892 3.53914 6.77862C3.56749 6.71831 3.60761 6.66429 3.65715 6.61971C3.70668 6.57514 3.76463 6.54091 3.82757 6.51905C3.89052 6.49719 3.95721 6.48813 4.02371 6.4924C4.09021 6.49668 4.15518 6.51421 4.21481 6.54396C4.27444 6.5737 4.32752 6.61507 4.37094 6.66562L5.78625 8.23812L9.61719 3.67844C9.70312 3.57909 9.8247 3.51754 9.95564 3.50711C10.0866 3.49668 10.2164 3.53819 10.317 3.62268C10.4175 3.70717 10.4808 3.82784 10.4931 3.95862C10.5055 4.0894 10.4658 4.21977 10.3828 4.32156Z" fill="#5E0612"/>
</svg>
