<svg width="130" height="1190" viewBox="0 0 130 1190" fill="none" xmlns="http://www.w3.org/2000/svg">
<rect width="130" height="1190" fill="#282828"/>
<rect width="79" height="5" transform="translate(25 29)" fill="white"/>
<rect width="79" height="5" transform="translate(25 78)" fill="white"/>
<rect width="79" height="5" transform="translate(25 127)" fill="white"/>
<rect width="79" height="5" transform="translate(25 176)" fill="white"/>
<rect width="79" height="5" transform="translate(25 225)" fill="white"/>
<rect width="79" height="5" transform="translate(25 274)" fill="white"/>
<rect width="79" height="5" transform="translate(25 323)" fill="white"/>
<rect width="79" height="5" transform="translate(25 372)" fill="white"/>
<rect width="79" height="5" transform="translate(25 421)" fill="white"/>
<rect width="79" height="5" transform="translate(25 470)" fill="white"/>
<rect width="79" height="5" transform="translate(25 519)" fill="white"/>
<rect width="79" height="5" transform="translate(25 568)" fill="white"/>
<rect width="79" height="5" transform="translate(25 617)" fill="white"/>
<rect width="79" height="5" transform="translate(25 666)" fill="white"/>
<rect width="79" height="5" transform="translate(25 715)" fill="white"/>
<rect width="79" height="5" transform="translate(25 764)" fill="white"/>
<rect width="79" height="5" transform="translate(25 813)" fill="white"/>
<rect width="79" height="5" transform="translate(25 862)" fill="white"/>
<rect width="79" height="5" transform="translate(25 911)" fill="white"/>
<rect width="79" height="5" transform="translate(25 960)" fill="white"/>
<rect width="79" height="5" transform="translate(25 1009)" fill="white"/>
<rect width="79" height="5" transform="translate(25 1058)" fill="white"/>
<rect width="79" height="5" transform="translate(25 1107)" fill="white"/>
<rect width="79" height="5" transform="translate(25 1156)" fill="white"/>
<path d="M95 55C95 71.567 81.5663 85 64.9986 85C48.4309 85 35 71.567 35 55C35 38.4331 48.4309 25 64.9986 25C81.5663 25 95 38.4331 95 55Z" fill="white"/>
<path d="M63.3381 56.2466H78.0442C78.0442 64.3654 71.4572 70.9493 63.3381 70.9493C55.2244 70.9493 48.6375 64.3654 48.6375 56.2466C48.6375 48.1305 55.2244 41.5439 63.3381 41.5439V56.2466Z" fill="#00171C"/>
<path d="M66.6571 53.7556H81.3578C81.3578 45.6396 74.7762 39.0557 66.6571 39.0557V53.7556Z" fill="#00171C"/>
<path d="M99 399.001C99 418.329 83.3287 434 63.9987 434C44.6687 434 29 418.329 29 399.001C29 379.674 44.6687 364 63.9987 364C83.3287 364 99 379.671 99 399.001Z" fill="white"/>
<path d="M78.9119 394.383L77.8706 391.92C77.8706 391.92 80.2887 386.473 80.0719 386.261L76.8746 383.14C76.6527 382.923 71.2037 385.412 71.2037 385.412L68.6897 384.396C68.6897 384.396 66.4682 378.873 66.1631 378.873H61.6496C61.337 378.873 59.2818 384.408 59.2818 384.408L56.7755 385.427C56.7755 385.427 51.208 383.062 50.9936 383.271L47.8014 386.398C47.582 386.609 50.1212 391.95 50.1212 391.95L49.0849 394.416C49.0849 394.416 43.4442 396.59 43.4442 396.882V401.305C43.4442 401.613 49.0999 403.627 49.0999 403.627L50.1338 406.086C50.1338 406.086 47.7207 411.532 47.93 411.739L51.1298 414.871C51.3442 415.082 56.7982 412.591 56.7982 412.591L59.3146 413.612C59.3146 413.612 61.5361 419.132 61.8438 419.132H66.3522C66.6674 419.132 68.7225 413.597 68.7225 413.597L71.244 412.579C71.244 412.579 76.7939 414.944 77.0082 414.735L80.208 411.608C80.4274 411.394 77.8832 406.055 77.8832 406.055L78.9195 403.592C78.9195 403.592 84.5602 401.416 84.5602 401.116V396.696C84.5627 396.393 78.9119 394.383 78.9119 394.383ZM70.5935 399C70.5935 402.558 67.6408 405.455 64.0072 405.455C60.3762 405.455 57.4134 402.558 57.4134 399C57.4134 395.445 60.3762 392.555 64.0072 392.555C67.6408 392.555 70.5935 395.447 70.5935 399Z" fill="#00171C"/>
<path d="M103.385 749.615C108.695 727.311 94.9189 704.925 72.6147 699.615C50.3106 694.305 27.9248 708.081 22.6147 730.385C17.3047 752.689 31.0811 775.075 53.3852 780.385C75.6894 785.695 98.0752 771.919 103.385 749.615Z" fill="white"/>
<path d="M87.4385 723.311L83.0342 718.9C82.4219 718.285 81.4295 718.285 80.815 718.9C80.4622 719.255 80.337 719.742 80.4007 720.206C80.0684 720.206 79.7497 720.336 79.4629 720.545L79.4288 720.511L68.014 731.926C68.1255 732.927 67.8797 733.949 67.3016 734.819L68.5034 736.039L68.5307 736.009L68.6445 736.128L66.1271 738.64L57.8533 730.378C58.7843 727.053 57.9489 723.329 55.3336 720.711C52.732 718.128 49.0583 717.274 45.7443 718.173L51.3504 723.773L49.88 729.263L44.3832 730.733L38.7839 725.132C37.8939 728.439 38.7406 732.117 41.3354 734.714C44.06 737.439 47.984 738.24 51.4141 737.122L51.4437 737.152L59.5399 745.241L51.8375 752.944L51.4164 752.532L49.2587 754.273L45.6123 760.02L46.5432 760.953L52.2882 757.309L54.0363 755.142L53.6197 754.733L61.3221 747.028L74.485 760.195C75.3978 761.106 76.5973 761.568 77.7877 761.568C78.9872 761.568 80.1754 761.106 81.0972 760.195C82.9135 758.379 82.9135 755.425 81.0972 753.595L67.9184 740.43L70.3903 737.958L71.4714 739.057C72.3523 738.458 73.3834 738.201 74.4031 738.313L85.6609 727.059L85.8247 726.902L85.7883 726.866C86.0023 726.586 86.1252 726.261 86.1252 725.931C86.5941 725.997 87.0766 725.874 87.4339 725.514C88.053 724.911 88.0531 723.923 87.4385 723.311ZM78.1974 755.848C79.1898 755.848 79.9842 756.645 79.9842 757.637C79.9842 758.62 79.1875 759.422 78.1974 759.422C77.2232 759.422 76.422 758.618 76.422 757.637C76.4197 756.645 77.2209 755.848 78.1974 755.848ZM71.806 732.55L71.0663 731.81L79.5267 723.349L80.2641 724.089L71.806 732.55ZM74.5624 735.306L73.8227 734.571L82.2853 726.11L83.0205 726.848L74.5624 735.306Z" fill="#00171C"/>
<path d="M113 1109C113 1136.61 90.6152 1159 63 1159C35.3848 1159 13 1136.61 13 1109C13 1081.39 35.3848 1059 63 1059C90.6152 1059 113 1081.39 113 1109Z" fill="white"/>
<path d="M89.9111 1095.64C87.8418 1095.64 86.1606 1097.32 86.1606 1099.38C86.1606 1101.44 87.8418 1103.13 89.9111 1103.13C91.9701 1103.13 93.6534 1101.44 93.6534 1099.38C93.6534 1097.32 91.9701 1095.64 89.9111 1095.64ZM36.0963 1095.64C34.0249 1095.64 32.3478 1097.32 32.3478 1099.38C32.3478 1101.44 34.0269 1103.13 36.0963 1103.13C38.1573 1103.13 39.8406 1101.44 39.8406 1099.38C39.8406 1097.32 38.1573 1095.64 36.0963 1095.64ZM78.7737 1088.83C75.6978 1088.83 73.205 1091.33 73.205 1094.41C73.205 1097.48 75.6978 1099.97 78.7737 1099.97C81.8476 1099.97 84.3487 1097.48 84.3487 1094.41C84.3487 1091.33 81.8372 1088.83 78.7737 1088.83ZM96.0589 1122.71H89.7119V1111.02C89.7119 1109.02 89.1162 1107.16 88.176 1105.53C88.7364 1105.37 89.303 1105.25 89.9111 1105.25C93.2943 1105.25 96.0589 1108.01 96.0589 1111.4V1122.71ZM47.2316 1088.83C44.1556 1088.83 41.6546 1091.33 41.6546 1094.41C41.6546 1097.48 44.1556 1099.97 47.2316 1099.97C50.2951 1099.97 52.7982 1097.48 52.7982 1094.41C52.7982 1091.33 50.293 1088.83 47.2316 1088.83ZM36.0963 1105.25C36.7023 1105.25 37.2669 1105.37 37.8231 1105.53C36.8663 1107.16 36.2872 1109.02 36.2872 1111.03V1122.71H29.9423V1111.41C29.9423 1108.01 32.7069 1105.25 36.0963 1105.25ZM62.9954 1077.7C58.4562 1077.7 54.7596 1081.39 54.7596 1085.93C54.7596 1090.48 58.452 1094.18 62.9954 1094.18C67.5367 1094.18 71.2312 1090.48 71.2312 1085.93C71.2374 1081.39 67.5367 1077.7 62.9954 1077.7ZM87.6716 1127.05H77.9456V1109.28C77.9456 1106.84 77.3084 1104.57 76.2582 1102.53C77.0531 1102.29 77.8895 1102.12 78.7633 1102.12C83.6741 1102.12 87.6737 1106.11 87.6737 1111.03L87.6716 1127.05ZM48.0431 1109.28V1127.05H38.3254V1111.02C38.3254 1106.11 42.3208 1102.12 47.2337 1102.12C48.1075 1102.12 48.9335 1102.29 49.7285 1102.52C48.6845 1104.57 48.0431 1106.83 48.0431 1109.28ZM50.0813 1132.2H75.9074V1109.28C75.9074 1102.16 70.1104 1096.37 62.9975 1096.37C55.87 1096.37 50.0813 1102.16 50.0813 1109.28V1132.2Z" fill="#00171C"/>
</svg>
