<svg width="104" height="1190" viewBox="0 0 104 1190" fill="none" xmlns="http://www.w3.org/2000/svg">
<rect width="104" height="1190" fill="#282828"/>
<rect width="79" height="5" transform="translate(12 29)" fill="white"/>
<rect width="79" height="5" transform="translate(12 78)" fill="white"/>
<rect width="79" height="5" transform="translate(12 127)" fill="white"/>
<rect width="79" height="5" transform="translate(12 176)" fill="white"/>
<rect width="79" height="5" transform="translate(12 225)" fill="white"/>
<rect width="79" height="5" transform="translate(12 274)" fill="white"/>
<rect width="79" height="5" transform="translate(12 323)" fill="white"/>
<rect width="79" height="5" transform="translate(12 372)" fill="white"/>
<rect width="79" height="5" transform="translate(12 421)" fill="white"/>
<rect width="79" height="5" transform="translate(12 470)" fill="white"/>
<rect width="79" height="5" transform="translate(12 519)" fill="white"/>
<rect width="79" height="5" transform="translate(12 568)" fill="white"/>
<rect width="79" height="5" transform="translate(12 617)" fill="white"/>
<rect width="79" height="5" transform="translate(12 666)" fill="white"/>
<rect width="79" height="5" transform="translate(12 715)" fill="white"/>
<rect width="79" height="5" transform="translate(12 764)" fill="white"/>
<rect width="79" height="5" transform="translate(12 813)" fill="white"/>
<rect width="79" height="5" transform="translate(12 862)" fill="white"/>
<rect width="79" height="5" transform="translate(12 911)" fill="white"/>
<rect width="79" height="5" transform="translate(12 960)" fill="white"/>
<rect width="79" height="5" transform="translate(12 1009)" fill="white"/>
<rect width="79" height="5" transform="translate(12 1058)" fill="white"/>
<rect width="79" height="5" transform="translate(12 1107)" fill="white"/>
<rect width="79" height="5" transform="translate(12 1156)" fill="white"/>
</svg>
