<svg width="30" height="30" viewBox="0 0 30 30" fill="none" xmlns="http://www.w3.org/2000/svg">
<path fill-rule="evenodd" clip-rule="evenodd" d="M24.1562 0.0764844C22.966 0.345182 22.0084 0.946848 21.2966 1.87308C20.6212 2.75204 20.3015 3.71021 20.3015 4.85575C20.3015 5.92971 20.5922 6.82598 21.227 7.70918L21.4568 8.02893L20.9948 8.49327L20.5328 8.95766L20.3369 8.79974C19.1673 7.85741 18.0145 7.29551 16.6395 6.99731C15.8874 6.83426 14.1918 6.83047 13.447 6.99025C12.2105 7.25555 11.0952 7.76043 10.1083 8.50161L9.51991 8.94355L9.06493 8.48621L8.60994 8.02893L8.83821 7.70918C9.8475 6.29526 10.006 4.29892 9.23094 2.76236C8.6014 1.5142 7.57393 0.645694 6.23178 0.227286C5.82292 0.099833 5.61374 0.0770619 4.85051 0.0770619C4.08972 0.0770619 3.87681 0.10009 3.46924 0.226388C1.39239 0.86994 0 2.72734 0 4.85421C0 6.29468 0.443806 7.37133 1.44166 8.35157C2.03741 8.93675 2.49258 9.22739 3.21117 9.48127C4.7323 10.0187 6.37717 9.79339 7.67312 8.87004L8.0742 8.58435L8.53606 9.04856L8.99792 9.51276L8.68344 9.90397C6.28864 12.8832 6.28864 17.0977 8.68344 20.0769L8.99792 20.4681L8.5351 20.9333C8.28056 21.1891 8.0557 21.3879 8.0354 21.3751C8.0151 21.3623 7.80527 21.2222 7.56904 21.0638C6.21032 20.1524 4.26774 20.0386 2.78593 20.7837C1.53578 21.4122 0.665901 22.4381 0.24683 23.7781C0.11744 24.1919 0.0966891 24.3892 0.0988092 25.1892C0.100994 26.0363 0.117119 26.1651 0.279466 26.6325C0.995736 28.6942 2.78015 30 4.88109 30C6.30284 30 7.37284 29.567 8.35457 28.5943C10.06 26.9046 10.2903 24.2796 8.90329 22.339L8.61714 21.9386L9.09018 21.4694L9.56328 21.0002L9.87307 21.2561C10.9059 22.1089 12.0715 22.6628 13.4443 22.9529C14.2061 23.1138 15.682 23.1454 16.3825 23.0156C17.7763 22.7576 19.2159 22.0968 20.2324 21.2485L20.5167 21.0113L20.9937 21.4876L21.4707 21.9638L21.2411 22.2831C20.9183 22.7317 20.6465 23.3392 20.4872 23.9679C20.3734 24.4171 20.356 24.6336 20.3814 25.2805C20.4311 26.547 20.805 27.4525 21.6499 28.3531C22.6158 29.3823 23.7747 29.8848 25.1817 29.8843C27.1833 29.8836 28.9063 28.718 29.6601 26.8547C30.5851 24.5681 29.5591 21.8801 27.3474 20.7958C26.5072 20.3839 26.0763 20.2841 25.152 20.2876C24.0523 20.2918 23.1529 20.5732 22.3256 21.1723L22.0047 21.4045L21.5312 20.9317L21.0576 20.4589L21.3652 20.0819C22.1941 19.066 22.779 17.8102 23.0433 16.4792C23.1971 15.7046 23.1964 14.1861 23.0417 13.451C22.77 12.1589 22.2716 11.0505 21.5151 10.0557L21.0852 9.49025L21.5521 9.0272L22.0191 8.56408L22.3328 8.78717C23.1632 9.37774 24.0876 9.6653 25.1578 9.66607C27.7232 9.66786 29.8265 7.68236 29.9816 5.11233C30.1172 2.86634 28.7058 0.864488 26.5011 0.175651C25.9099 -0.00901851 24.7519 -0.0580245 24.1562 0.0764844ZM4.07957 0.91561C1.92228 1.39162 0.503104 3.514 0.92725 5.63003C1.09622 6.47294 1.4565 7.15158 2.04916 7.7433C3.66397 9.35555 6.16773 9.35773 7.7797 7.74824C9.3893 6.14125 9.3893 3.63279 7.7797 2.03427C7.26247 1.52061 6.68368 1.16975 6.03905 0.979176C5.5193 0.825553 4.62013 0.796367 4.07957 0.91561ZM24.328 0.919073C22.4518 1.321 21.1333 2.92221 21.1131 4.82368C21.105 5.59456 21.1948 5.99565 21.5359 6.71097C22.2102 8.12508 23.7873 9.03727 25.3892 8.93964C27.8751 8.78813 29.6439 6.48121 29.1352 4.05396C28.8892 2.88032 28.0456 1.79348 26.9774 1.27404C26.0905 0.842871 25.2252 0.7269 24.328 0.919073ZM5.02044 2.35865C4.47172 2.57808 4.28374 2.89386 4.24037 3.6691L4.20806 4.24639L3.85619 4.27846C3.56618 4.30489 3.49095 4.33754 3.42806 4.46416C3.27246 4.77737 3.53503 5.04542 3.99926 5.04722L4.24018 5.04818V6.16075C4.24018 7.15716 4.25245 7.28442 4.35769 7.37948C4.51566 7.5222 4.72639 7.51335 4.88263 7.35735C5.00136 7.23881 5.01112 7.14356 5.01112 6.10655V4.98404H5.32239C6.04367 4.98404 6.0262 4.31188 5.30286 4.23048L5.01112 4.19764V3.72856C5.01112 3.13016 5.09047 3.05973 5.76427 3.05973C6.2693 3.05973 6.48876 2.94319 6.48876 2.67487C6.48876 2.60432 6.43094 2.48886 6.36027 2.4183C6.25176 2.30996 6.14948 2.29065 5.70176 2.29405C5.41028 2.2963 5.10364 2.32536 5.02044 2.35865ZM22.7865 2.70457C22.6342 2.85659 22.518 3.43664 22.5225 4.02189C22.5281 4.74921 22.7382 5.23458 23.249 5.70072L23.6068 6.02714L23.3836 6.21335C23.2608 6.31572 23.0447 6.4324 22.9034 6.47255C22.5641 6.56902 22.4216 6.69795 22.4216 6.90834C22.4216 7.17178 22.6106 7.28929 23.2421 7.41848C24.6047 7.69718 25.5224 7.64138 26.3385 7.23009C27.2182 6.78673 27.8182 5.78923 27.8182 4.76999C27.8182 4.52105 27.8736 4.35434 28.0813 3.97859C28.3673 3.46134 28.3759 3.29585 28.1292 3.04954C28.0095 2.93004 27.9432 2.91849 27.561 2.9505C27.1868 2.9818 27.0868 2.9657 26.8199 2.83081C26.1787 2.50662 25.3566 2.71952 24.984 3.30624C24.882 3.46672 24.7986 3.65005 24.7986 3.71374C24.7986 3.77737 24.7742 3.82946 24.7443 3.82946C24.6171 3.82946 23.9038 3.30374 23.5802 2.97134C23.2102 2.59142 22.978 2.51336 22.7865 2.70457ZM25.7217 3.59597C25.5727 3.72394 25.5426 3.80527 25.5271 4.12112C25.5046 4.58109 25.4129 4.68513 25.0356 4.67949C24.6917 4.67429 24.1756 4.44094 23.6443 4.05037L23.2568 3.76557V3.97833C23.2568 4.09533 23.3002 4.33696 23.3532 4.51528C23.4679 4.90091 23.8909 5.32952 24.2274 5.40104C24.5105 5.4612 24.6701 5.60623 24.6701 5.80322C24.6701 5.97955 24.3 6.51874 24.0765 6.66826C23.9379 6.76088 23.9507 6.76736 24.3618 6.81187C24.85 6.86473 25.5233 6.76999 25.9286 6.59141C26.5775 6.30559 26.9594 5.65992 27.0394 4.71348C27.0728 4.31752 27.1288 4.05505 27.2045 3.93978L27.319 3.76531H27.0799C26.9187 3.76531 26.7788 3.7131 26.6501 3.60495C26.3908 3.38719 25.9696 3.38308 25.7217 3.59597ZM13.7806 7.71623C9.12461 8.539 6.41803 13.446 8.21824 17.8007C9.14318 20.0381 11.1399 21.6692 13.62 22.2134C14.2977 22.3622 15.7333 22.3624 16.4337 22.2138C17.95 21.8921 19.1933 21.2299 20.2387 20.187C23.0645 17.3683 23.1405 12.8713 20.4118 9.94798C18.7418 8.15889 16.1713 7.29378 13.7806 7.71623ZM17.7563 12.2319C16.7878 13.031 15.6609 13.3211 13.5212 13.3222C12.5798 13.3226 12.4663 13.3352 12.2079 13.467C12.0523 13.5464 11.8365 13.7222 11.7285 13.8576C11.5379 14.0965 11.5314 14.1264 11.5137 14.8518C11.4958 15.5834 11.4996 15.6071 11.69 15.9336C11.9238 16.3346 12.3054 16.5814 12.7782 16.6372C12.9585 16.6586 13.106 16.6825 13.106 16.6905C13.106 16.8116 13.5048 18.1683 13.5598 18.2346C13.6664 18.3628 13.9653 18.3482 14.0919 18.2086C14.2333 18.0525 14.2267 17.9285 14.0398 17.2308L13.8813 16.6397L14.6661 16.6764C15.9603 16.737 16.875 17.0445 17.6799 17.6895C18.1011 18.027 18.2907 18.0751 18.4605 17.8878C18.5561 17.7825 18.5669 17.4866 18.5669 14.9793C18.5669 12.3566 18.5598 12.1816 18.4493 12.0818C18.2665 11.9166 18.0929 11.9542 17.7563 12.2319ZM17.2177 13.461C16.7071 13.7224 15.9424 13.9441 15.3557 14.0008C15.1608 14.0196 14.9073 14.0492 14.7924 14.0666L14.5837 14.0983V14.9858V15.8734L15.0816 15.9195C15.8039 15.9866 16.724 16.2367 17.2968 16.5218L17.7959 16.7703V14.9823C17.7959 13.999 17.7743 13.1989 17.7477 13.2043C17.7212 13.2098 17.4827 13.3253 17.2177 13.461ZM12.4105 14.2408C12.2896 14.3694 12.271 14.462 12.2722 14.9304C12.2744 15.7333 12.4399 15.8884 13.2945 15.8884H13.8127V14.9904V14.0924H13.1814C12.6047 14.0924 12.5382 14.1052 12.4105 14.2408ZM4.04745 21.1197C3.32443 21.2747 2.60456 21.6766 2.05514 22.232C0.77833 23.5227 0.497386 25.2588 1.29692 26.9182C2.05617 28.4938 3.92911 29.4197 5.65814 29.0742C6.9264 28.8208 7.99011 28.0241 8.53574 26.9189C9.1399 25.6954 9.1399 24.4933 8.53574 23.2649C7.7348 21.6362 5.84676 20.7338 4.04745 21.1197ZM24.2847 21.1197C23.5617 21.2747 22.8418 21.6766 22.2924 22.232C21.0156 23.5227 20.7346 25.2588 21.5341 26.9182C22.2934 28.4938 24.1663 29.4197 25.8954 29.0742C27.1636 28.8208 28.2273 28.0241 28.773 26.9189C29.3771 25.6954 29.3771 24.4933 28.773 23.2649C27.972 21.6362 26.084 20.7338 24.2847 21.1197ZM3.11326 22.6778C2.78657 22.8286 2.52965 23.1299 2.43804 23.4696C2.39255 23.6381 2.37463 24.2769 2.38812 25.2467C2.40598 26.5288 2.42609 26.7915 2.51931 26.9616C2.6557 27.2103 2.9732 27.4827 3.20114 27.5465C3.29558 27.573 4.09563 27.5946 4.979 27.5946C6.74985 27.5946 6.81217 27.5827 7.15396 27.1771C7.43529 26.8433 7.46362 26.6223 7.4412 24.9327C7.42115 23.4228 7.41453 23.3518 7.27255 23.1238C7.19122 22.9933 7.01776 22.8202 6.88708 22.739C6.65734 22.5964 6.59425 22.5909 5.01112 22.5747C3.52545 22.5595 3.34872 22.5692 3.11326 22.6778ZM23.6101 22.839C23.3421 22.9636 23.0733 23.2656 22.9985 23.5259C22.9639 23.6465 22.9362 24.366 22.9369 25.1246C22.9382 26.3287 22.9535 26.5375 23.0573 26.7658C23.2562 27.2028 23.7534 27.4883 24.1764 27.4083C24.289 27.387 24.9737 27.0426 25.6981 26.6429C27.0862 25.8769 27.256 25.7355 27.3431 25.2721C27.3984 24.9778 27.2703 24.5677 27.0575 24.3579C26.9635 24.2652 26.3259 23.8785 25.6407 23.4985C24.3052 22.7581 23.9983 22.6584 23.6101 22.839ZM3.28119 23.4981C3.15547 23.6576 3.14801 23.7474 3.14801 25.1046V26.5421L3.30574 26.6995L3.46339 26.857H4.90319C6.26249 26.857 6.35243 26.8495 6.51221 26.724L6.6815 26.5911V25.0883C6.6815 23.6712 6.67417 23.5783 6.55301 23.4574C6.43184 23.3364 6.33888 23.3291 4.91945 23.3291H3.41431L3.28119 23.4981ZM23.8128 23.6388C23.721 23.7401 23.7065 23.9398 23.7065 25.1042C23.7065 26.3622 23.7149 26.4599 23.8326 26.5661C23.9094 26.6355 24.0036 26.6634 24.0735 26.6376C24.4314 26.5051 26.5359 25.2821 26.5653 25.1894C26.5846 25.1287 26.5823 25.032 26.5602 24.9746C26.5196 24.8686 24.1445 23.5215 23.9985 23.5215C23.9548 23.5215 23.8713 23.5743 23.8128 23.6388ZM4.51072 23.9146C4.18917 24.0072 3.82458 24.4088 3.73329 24.771C3.64187 25.1334 3.68221 25.3796 3.89306 25.7457C4.09402 26.0948 4.63285 26.377 5.00348 26.3273C5.60276 26.2471 6.05761 25.8256 6.14055 25.2738C6.27919 24.3504 5.43688 23.6479 4.51072 23.9146ZM4.59064 24.7694C4.41525 24.9445 4.39861 25.0439 4.50551 25.2781C4.71264 25.7321 5.39659 25.5664 5.39659 25.0622C5.39659 24.8746 5.11552 24.6119 4.91475 24.6119C4.82321 24.6119 4.67737 24.6828 4.59064 24.7694Z" fill="#4F7566"/>
</svg>
