<svg width="30" height="30" viewBox="0 0 30 30" fill="none" xmlns="http://www.w3.org/2000/svg">
<path fill-rule="evenodd" clip-rule="evenodd" d="M1.37312 0.040382C0.849403 0.175365 0.351525 0.605404 0.130674 1.1134C0.0361514 1.33083 0.0248652 2.32261 0.00947484 11.7814C-0.00995548 23.6562 -0.0545234 22.6785 0.534222 23.2944C1.10495 23.8914 0.770592 23.8614 6.83555 23.8614C11.0163 23.8614 12.1141 23.8788 12.1133 23.9452C12.1108 24.1741 11.9039 24.9094 11.7564 25.2139C11.6649 25.4029 11.411 25.7495 11.1921 25.9841L10.7942 26.4108L9.70681 26.4114C8.70272 26.412 8.59486 26.424 8.29878 26.5686C7.64444 26.8881 7.26834 27.5523 7.31675 28.3031C7.36267 29.0145 7.71934 29.5645 8.32514 29.8576C8.61884 29.9997 8.6316 30 15 30C21.3602 30 21.3815 29.9995 21.6736 29.8582C22.0173 29.6919 22.3817 29.3201 22.5422 28.9721C22.7096 28.6091 22.7357 27.95 22.5976 27.5716C22.4459 27.156 22.091 26.7589 21.7012 26.5686C21.4073 26.4251 21.2947 26.412 20.3474 26.4114L19.3141 26.4108L19.0672 26.2055C18.776 25.9633 18.3565 25.4002 18.2208 25.069C18.0943 24.7604 17.9515 24.2022 17.9506 24.0123L17.9498 23.8614H23.1965C29.2255 23.8614 28.8952 23.8912 29.4658 23.2944C30.0545 22.6785 30.01 23.6562 29.9905 11.7814C29.9751 2.32261 29.9639 1.33083 29.8693 1.1134C29.7114 0.750047 29.3804 0.391927 29.0174 0.191533L28.691 0.0113326L15.1283 0.00106807C7.66874 -0.00463448 1.47893 0.0130769 1.37312 0.040382ZM1.40974 1.03457C1.2888 1.09904 1.13008 1.23704 1.05704 1.34123C0.924367 1.53049 0.924239 1.53834 0.924239 10.0963V18.662L1.48535 18.6814L2.04645 18.7008V10.6911C2.04645 5.27109 2.06819 2.61605 2.11379 2.47933C2.15079 2.36823 2.25313 2.24297 2.34124 2.20097C2.45917 2.14475 5.80959 2.12463 15.0585 2.12463H27.6156L27.7843 2.26343L27.953 2.40231L27.9693 10.5321L27.9856 18.662H28.5307H29.0758V10.0963C29.0758 1.53834 29.0756 1.53049 28.943 1.34123C28.8699 1.23704 28.7112 1.09904 28.5903 1.03457C28.383 0.924008 27.6026 0.917232 15 0.917232C2.39742 0.917232 1.617 0.924008 1.40974 1.03457ZM2.97379 3.14773C2.95698 3.19389 2.9507 6.70343 2.95981 10.9468L2.97629 18.662L15.016 18.679L27.0558 18.6959V10.8799V3.06387H15.0301C5.4685 3.06387 2.99809 3.08105 2.97379 3.14773ZM6.59943 4.33856C6.47336 4.47045 6.47118 4.56216 6.47118 9.66171C6.47118 14.6035 6.47676 14.856 6.58847 14.9617C6.69575 15.0633 7.1994 15.0728 12.5148 15.0728H18.3239L18.6567 16.1173C18.9256 16.9614 19.018 17.1755 19.1383 17.2328C19.3739 17.3451 19.5577 17.2538 19.9659 16.8217L20.3468 16.4185L21.004 17.0874C21.5122 17.6048 21.701 17.7563 21.837 17.7563C21.9781 17.7563 22.2128 17.5486 23.0273 16.7024C24.3124 15.3674 24.2958 15.4587 23.4213 14.5275L22.8009 13.8668L23.2358 13.3955C23.6187 12.9805 23.6653 12.9024 23.6266 12.741C23.6024 12.6402 23.5527 12.52 23.5161 12.4738C23.4795 12.4276 22.9335 12.2183 22.3029 12.0085L21.1561 11.6271V8.05474V4.48246L20.9872 4.34345C20.8186 4.20465 20.8034 4.20438 13.7729 4.20438C6.81317 4.20438 6.72615 4.20599 6.59943 4.33856ZM7.36895 6.01578V6.88793H13.8137H20.2584V6.01578V5.14362H13.8137H7.36895V6.01578ZM7.36895 10.9803V14.1335H12.6914C15.6188 14.1335 18.0139 14.1131 18.0139 14.0881C18.0139 14.0631 17.7925 13.3243 17.5219 12.4462C16.9828 10.6968 16.9748 10.5988 17.3604 10.4582C17.5228 10.399 17.7037 10.4419 18.5999 10.7523C19.177 10.9523 19.7862 11.1592 19.9538 11.2122L20.2584 11.3085V9.56786V7.82717H13.8137H7.36895V10.9803ZM8.97211 9.8874C8.66161 10.0069 8.65148 10.0551 8.65148 11.4164C8.65148 12.5785 8.66289 12.7147 8.76877 12.8149C8.87291 12.9135 9.12352 12.9259 11.0085 12.9259H13.131L13.2639 12.7491C13.3864 12.5862 13.3968 12.4839 13.3968 11.4441C13.3968 10.199 13.3571 10.0194 13.0578 9.91028C12.8586 9.83762 9.15545 9.81689 8.97211 9.8874ZM9.54925 11.3816V11.9867H11.0267H12.5041L12.4855 11.3996L12.467 10.8126L11.0081 10.7946L9.54925 10.7765V11.3816ZM18.6945 13.1775C18.9553 14.0169 19.2452 14.9604 19.3388 15.274C19.4323 15.5877 19.5176 15.8557 19.5284 15.8696C19.5392 15.8835 19.6965 15.7552 19.878 15.5845C20.3564 15.1345 20.4132 15.1502 21.184 15.9437L21.8345 16.6134L22.4064 16.0122L22.9784 15.411L22.3558 14.7481C21.6048 13.9484 21.5803 13.8489 22.0219 13.3955C22.1806 13.2326 22.3104 13.0763 22.3104 13.0482C22.3104 12.999 18.4314 11.6512 18.2898 11.6512C18.2515 11.6512 18.4337 12.3381 18.6945 13.1775ZM0.904488 20.9719C0.926548 22.4656 0.952839 22.5609 1.40974 22.8046C1.617 22.9152 2.39742 22.9219 15 22.9219C27.6026 22.9219 28.383 22.9152 28.5903 22.8046C29.0472 22.5609 29.0735 22.4656 29.0955 20.9719L29.1153 19.6348H15H0.884673L0.904488 20.9719ZM13.2452 20.9144C13.0384 21.0844 13.0199 21.3873 13.2045 21.5804C13.3261 21.7076 13.4182 21.7145 15 21.7145C16.5818 21.7145 16.6739 21.7076 16.7955 21.5804C16.9231 21.4469 16.9646 21.1443 16.8747 21.0034C16.7467 20.8028 16.5184 20.7753 14.9808 20.7753C13.493 20.7753 13.4056 20.7823 13.2452 20.9144ZM12.9388 24.4299C12.8294 25.0205 12.5417 25.7485 12.2713 26.1195C12.1849 26.2379 12.1143 26.3519 12.1143 26.3727C12.1143 26.3936 13.4273 26.4108 15.0321 26.4108C16.6368 26.4108 17.9498 26.3997 17.9498 26.3861C17.9498 26.3725 17.8264 26.1688 17.6755 25.9332C17.3729 25.461 17.1397 24.799 17.0759 24.231L17.0344 23.8614L15.0392 23.8616L13.0441 23.8619L12.9388 24.4299ZM8.45153 27.6104C8.24203 27.8297 8.20259 27.9152 8.20259 28.1505C8.20259 28.4922 8.32963 28.7644 8.56805 28.9334C8.74145 29.0563 8.96493 29.0608 15 29.0608C21.0351 29.0608 21.2586 29.0563 21.4319 28.9334C21.6704 28.7644 21.7974 28.4922 21.7974 28.1505C21.7974 27.9152 21.758 27.8297 21.5485 27.6104L21.2995 27.35H15H8.70054L8.45153 27.6104Z" fill="#4F7566"/>
</svg>
